if (_typeface_js && _typeface_js.loadFace) _typeface_js.loadFace({"glyphs":{"0":{"ha":792,"x_min":83,"x_max":708,"o":"m 499 750 q 505 784 508 765 q 490 808 501 803 q 447 826 471 819 q 396 833 424 833 q 317 818 351 833 q 260 776 283 803 q 226 715 238 750 q 215 639 215 679 l 215 354 q 232 318 215 319 q 261 338 249 317 l 499 750 m 576 593 q 560 627 576 625 q 532 607 544 629 l 299 204 q 288 157 282 175 q 304 132 293 139 q 396 111 342 111 q 474 126 440 111 q 531 168 508 142 q 565 230 554 194 q 576 306 576 265 l 576 593 m 708 299 q 686 176 708 233 q 623 77 664 119 q 524 10 582 35 q 396 -14 467 -14 q 267 10 325 -14 q 169 77 210 35 q 106 176 128 119 q 83 299 83 233 l 83 646 q 106 768 83 711 q 169 867 128 825 q 267 934 210 910 q 396 958 325 958 q 524 934 467 958 q 623 867 582 910 q 686 768 664 825 q 708 646 708 711 l 708 299 z "},"1":{"ha":792,"x_min":111,"x_max":701,"o":"m 153 0 q 122 11 133 0 q 111 42 111 22 l 111 83 q 122 114 111 103 q 153 125 133 125 l 333 125 q 347 139 347 125 l 347 806 q 333 819 347 819 l 153 819 q 122 831 133 819 q 111 861 111 842 l 111 903 q 122 933 111 922 q 153 944 133 944 l 438 944 q 468 933 457 944 q 479 903 479 922 l 479 139 q 493 125 479 125 l 660 125 q 690 114 679 125 q 701 83 701 103 l 701 42 q 690 11 701 22 q 660 0 679 0 l 153 0 z "},"2":{"ha":792,"x_min":79,"x_max":707,"o":"m 121 0 q 90 11 101 0 q 79 42 79 22 l 79 92 q 84 117 79 108 q 103 139 89 125 l 339 378 q 432 475 394 435 q 492 548 469 515 q 525 609 515 581 q 535 671 535 638 q 522 740 535 710 q 485 792 508 771 q 432 823 463 813 q 367 833 401 833 q 268 808 317 833 q 188 750 219 782 q 160 738 176 739 q 129 750 143 736 l 100 783 q 88 813 86 797 q 100 842 89 829 q 215 927 153 896 q 367 958 278 958 q 484 938 429 958 q 580 879 539 917 q 644 789 621 842 q 667 671 667 736 q 656 585 667 625 q 619 502 644 544 q 552 412 593 460 q 451 304 511 364 l 294 147 q 290 132 286 139 q 307 125 294 125 l 665 125 q 696 114 685 125 q 707 83 707 103 l 707 42 q 696 11 707 22 q 665 0 685 0 l 121 0 z "},"3":{"ha":792,"x_min":132,"x_max":689,"o":"m 174 0 q 143 11 154 0 q 132 42 132 22 l 132 83 q 143 114 132 103 q 174 125 154 125 l 404 125 q 465 138 438 125 q 513 171 493 150 q 545 219 533 192 q 557 278 557 247 q 513 388 557 344 q 404 431 469 431 l 260 431 q 229 442 240 431 q 218 472 218 453 l 218 514 q 229 544 218 533 q 260 556 240 556 l 404 556 q 459 567 435 556 q 501 596 483 578 q 527 638 518 614 q 536 689 536 663 q 526 740 536 717 q 497 782 515 764 q 455 810 479 800 q 404 819 431 819 l 188 819 q 157 831 168 819 q 146 861 146 842 l 146 903 q 157 933 146 922 q 188 944 168 944 l 390 944 q 497 926 446 944 q 585 873 547 907 q 646 792 624 839 q 668 692 668 746 q 659 627 668 656 q 635 576 650 599 q 603 538 621 554 q 568 510 585 521 q 560 497 560 503 q 568 485 560 489 q 610 453 589 472 q 649 409 631 435 q 678 351 667 383 q 689 278 689 318 q 665 165 689 217 q 601 77 642 114 q 507 20 561 40 q 390 0 453 0 l 174 0 z "},"4":{"ha":792,"x_min":60,"x_max":719,"o":"m 471 0 q 440 11 451 0 q 429 42 429 22 l 429 247 q 415 261 429 261 l 101 261 q 71 272 82 261 q 60 303 60 283 l 60 360 q 85 429 60 390 l 417 949 q 443 966 426 964 q 475 958 460 968 l 515 935 q 533 908 531 924 q 526 876 536 893 l 219 408 q 217 393 214 400 q 232 386 219 386 l 415 386 q 429 400 429 386 l 429 522 q 440 553 429 542 q 471 564 451 564 l 519 564 q 550 553 539 564 q 561 522 561 542 l 561 400 q 575 386 561 386 l 678 386 q 708 375 697 386 q 719 344 719 364 l 719 303 q 708 272 719 283 q 678 261 697 261 l 575 261 q 561 247 561 261 l 561 42 q 550 11 561 22 q 519 0 539 0 l 471 0 z "},"5":{"ha":792,"x_min":51,"x_max":681,"o":"m 100 185 q 131 198 114 199 q 158 185 147 197 q 237 133 188 154 q 340 111 286 111 q 418 124 381 111 q 485 163 456 138 q 531 224 514 188 q 549 304 549 260 q 490 440 549 394 q 340 486 432 486 l 194 486 q 153 522 153 486 l 153 903 q 164 933 153 922 q 194 944 175 944 l 560 944 q 590 933 579 944 q 601 903 601 922 l 601 861 q 590 831 601 842 q 560 819 579 819 l 299 819 q 285 806 285 819 l 285 629 q 307 610 285 610 l 342 610 q 471 590 410 610 q 578 531 532 569 q 653 436 625 493 q 681 304 681 379 q 652 176 681 235 q 576 76 624 118 q 468 10 529 33 q 340 -14 407 -14 q 242 -6 283 -14 q 169 17 201 3 q 113 50 138 31 q 65 92 88 69 q 53 119 54 103 q 65 150 51 136 l 100 185 z "},"6":{"ha":792,"x_min":79,"x_max":715,"o":"m 396 111 q 471 125 436 111 q 531 164 506 139 q 569 224 556 189 q 583 299 583 258 q 569 374 583 339 q 531 433 556 408 q 471 472 506 458 q 396 486 436 486 q 321 472 356 486 q 261 433 286 458 q 222 374 236 408 q 208 299 208 339 q 222 224 208 258 q 261 164 236 189 q 321 125 286 139 q 396 111 356 111 m 383 624 q 392 608 375 608 q 517 586 458 608 q 619 524 575 564 q 690 426 664 483 q 715 299 715 369 q 690 175 715 232 q 622 76 665 118 q 520 10 578 35 q 396 -14 463 -14 q 272 10 329 -14 q 172 76 214 35 q 104 175 129 118 q 79 299 79 232 q 104 417 79 361 q 167 531 129 474 l 443 949 q 468 967 453 964 q 501 958 483 969 l 539 938 q 550 879 572 915 l 383 624 z "},"7":{"ha":792,"x_min":74,"x_max":719,"o":"m 256 -3 q 229 20 233 6 q 233 53 225 35 l 569 797 q 554 819 579 819 l 115 819 q 85 831 96 819 q 74 861 74 842 l 74 903 q 85 933 74 922 q 115 944 96 944 l 678 944 q 708 933 697 944 q 719 903 719 922 l 719 847 q 715 817 719 831 q 704 788 711 803 l 361 0 q 340 -21 354 -15 q 306 -19 326 -26 l 256 -3 z "},"8":{"ha":792,"x_min":94,"x_max":692,"o":"m 393 549 q 453 560 426 549 q 499 593 481 572 q 528 640 518 614 q 539 696 539 667 q 527 752 539 726 q 495 796 515 778 q 449 824 475 814 q 393 833 422 833 q 290 795 333 833 q 247 696 247 757 q 257 640 247 667 q 285 593 267 614 q 331 560 304 572 q 393 549 358 549 m 560 271 q 547 338 560 307 q 512 390 535 368 q 458 425 489 413 q 393 438 428 438 q 327 425 357 438 q 274 390 297 413 q 239 338 251 368 q 226 271 226 307 q 239 208 226 238 q 274 158 251 179 q 327 124 297 136 q 393 111 357 111 q 460 124 429 111 q 513 158 490 136 q 547 208 535 179 q 560 271 560 238 m 692 271 q 668 158 692 210 q 604 67 644 106 q 510 8 564 29 q 393 -14 456 -14 q 276 8 331 -14 q 181 67 221 29 q 117 158 140 106 q 94 271 94 210 q 106 343 94 310 q 135 403 117 376 q 174 449 153 429 q 215 482 194 469 q 222 493 221 485 q 215 506 222 501 q 180 537 197 518 q 148 580 163 556 q 124 633 133 604 q 115 696 115 663 q 138 798 115 750 q 198 881 160 846 q 286 938 236 917 q 393 958 336 958 q 499 938 449 958 q 588 881 550 917 q 649 798 626 846 q 671 696 671 750 q 662 630 671 660 q 638 576 653 600 q 606 535 624 553 q 571 507 588 518 q 563 494 564 501 q 571 482 563 488 q 613 450 592 469 q 651 404 633 431 q 681 344 669 378 q 692 271 692 311 z "},"9":{"ha":792,"x_min":79,"x_max":715,"o":"m 586 646 q 572 721 586 686 q 533 781 558 756 q 474 819 508 806 q 399 833 439 833 q 324 819 358 833 q 264 781 289 806 q 225 721 239 756 q 211 646 211 686 q 225 571 211 606 q 264 511 239 536 q 324 472 289 486 q 399 458 358 458 q 474 472 439 458 q 533 511 508 486 q 572 571 558 536 q 586 646 586 606 m 256 7 q 235 33 236 18 q 244 65 233 49 l 411 321 q 403 336 419 336 q 278 358 336 336 q 175 421 219 381 q 105 518 131 461 q 79 646 79 575 q 104 769 79 713 q 173 868 129 826 q 274 934 217 910 q 399 958 332 958 q 523 934 465 958 q 623 868 581 910 q 690 769 665 826 q 715 646 715 713 q 690 527 715 583 q 628 414 665 471 l 351 -4 q 293 -14 332 -35 l 256 7 z "}," ":{"ha":389,"x_min":0,"x_max":0,"o":""},"½":{"ha":1324,"x_min":69,"x_max":1254,"o":"m 110 296 q 81 307 92 296 q 69 336 69 318 l 69 374 q 81 403 69 393 q 110 414 92 414 l 213 414 q 225 426 225 414 l 225 814 q 213 826 225 826 l 110 826 q 81 837 92 826 q 69 867 69 847 l 69 903 q 81 933 69 922 q 110 944 92 944 l 307 944 q 337 933 326 944 q 347 903 347 922 l 347 426 q 361 414 347 414 l 454 414 q 483 403 472 414 q 494 374 494 393 l 494 336 q 483 307 494 318 q 454 296 472 296 l 110 296 m 853 0 q 824 11 835 0 q 813 42 813 22 l 813 74 q 817 95 813 88 q 832 114 821 103 l 985 275 q 1039 333 1017 308 q 1075 378 1061 358 q 1095 417 1089 399 q 1101 460 1101 436 q 1080 518 1101 496 q 1021 540 1058 540 q 969 528 992 540 q 926 499 946 517 q 899 485 915 486 q 869 499 883 485 l 844 524 q 831 553 831 538 q 844 581 832 568 q 920 637 881 617 q 1021 657 960 657 q 1101 641 1064 657 q 1165 598 1138 625 q 1207 535 1192 571 q 1222 460 1222 500 q 1215 404 1222 432 q 1192 347 1208 376 q 1150 283 1176 317 q 1086 210 1124 250 l 1013 132 q 1009 122 1006 126 q 1019 118 1013 118 l 1214 118 q 1254 78 1254 118 l 1254 42 q 1244 11 1254 22 q 1214 0 1233 0 l 853 0 m 482 0 q 457 10 464 0 q 456 38 450 21 l 729 913 q 774 944 739 944 l 822 944 q 847 934 840 944 q 849 907 854 924 l 575 32 q 531 0 565 0 l 482 0 z "},"¼":{"ha":1299,"x_min":69,"x_max":1228,"o":"m 110 296 q 81 307 92 296 q 69 336 69 318 l 69 374 q 81 403 69 393 q 110 414 92 414 l 211 414 q 224 426 224 414 l 224 814 q 211 826 224 826 l 110 826 q 81 837 92 826 q 69 867 69 847 l 69 903 q 81 933 69 922 q 110 944 92 944 l 307 944 q 337 933 326 944 q 347 903 347 922 l 347 426 q 360 414 347 414 l 453 414 q 493 374 493 414 l 493 336 q 483 307 493 318 q 453 296 472 296 l 110 296 m 1042 0 q 1012 11 1022 0 q 1001 42 1001 22 l 1001 160 q 988 172 1001 172 l 813 172 q 783 183 794 172 q 772 214 772 194 l 772 260 q 776 284 772 272 q 790 311 781 296 l 1008 646 q 1032 663 1018 660 q 1065 654 1046 667 l 1094 635 q 1107 581 1128 614 l 924 303 q 931 290 917 290 l 988 290 q 998 294 994 290 q 1001 303 1001 299 l 1001 339 q 1042 379 1001 379 l 1082 379 q 1122 339 1122 379 l 1122 303 q 1126 294 1122 299 q 1136 290 1129 290 l 1188 290 q 1217 279 1206 290 q 1228 250 1228 268 l 1228 214 q 1217 183 1228 194 q 1188 172 1206 172 l 1136 172 q 1122 160 1122 172 l 1122 42 q 1112 11 1122 22 q 1082 0 1101 0 l 1042 0 m 482 0 q 457 10 464 0 q 456 38 450 21 l 729 913 q 774 944 739 944 l 822 944 q 847 934 840 944 q 849 907 854 924 l 575 32 q 531 0 565 0 l 482 0 z "},"¹":{"ha":604,"x_min":88,"x_max":511,"o":"m 128 297 q 99 308 110 297 q 88 338 88 318 l 88 374 q 99 403 88 393 q 128 414 110 414 l 229 414 q 243 428 243 414 l 243 814 q 229 828 243 828 l 128 828 q 99 838 110 828 q 88 868 88 849 l 88 904 q 99 934 88 924 q 128 944 110 944 l 325 944 q 365 904 365 944 l 365 428 q 378 414 365 414 l 471 414 q 511 374 511 414 l 511 338 q 471 297 511 297 l 128 297 z "},"¾":{"ha":1246,"x_min":71,"x_max":1175,"o":"m 988 0 q 947 40 947 0 l 947 158 q 935 172 947 172 l 760 172 q 719 213 719 172 l 719 258 q 723 283 719 271 q 738 310 726 294 l 956 644 q 978 662 964 658 q 1011 654 992 665 l 1042 635 q 1053 579 1075 613 l 871 303 q 869 292 867 296 q 876 289 872 289 l 935 289 q 947 303 947 289 l 947 338 q 988 378 947 378 l 1028 378 q 1058 367 1047 378 q 1069 338 1069 357 l 1069 303 q 1082 289 1069 289 l 1135 289 q 1163 278 1151 289 q 1175 249 1175 267 l 1175 213 q 1163 183 1175 193 q 1135 172 1151 172 l 1082 172 q 1069 158 1069 172 l 1069 40 q 1058 10 1069 21 q 1028 0 1047 0 l 988 0 m 111 279 q 82 290 93 279 q 71 319 71 301 l 71 356 q 82 385 71 375 q 111 396 93 396 l 229 396 q 292 420 267 396 q 317 479 317 444 q 291 542 317 517 q 229 567 265 567 l 151 567 q 122 578 132 567 q 111 607 111 589 l 111 643 q 151 683 111 683 l 229 683 q 283 706 264 683 q 303 760 303 729 q 281 809 303 790 q 229 828 258 828 l 125 828 q 95 839 106 828 q 85 868 85 850 l 85 904 q 125 944 85 944 l 229 944 q 304 930 268 944 q 367 890 340 915 q 409 831 393 865 q 425 760 425 797 q 415 704 425 728 q 392 665 404 681 q 370 639 381 649 q 360 626 360 629 q 365 619 360 624 q 413 571 388 606 q 438 479 438 536 q 422 399 438 436 q 377 336 406 363 q 310 294 349 310 q 229 279 272 279 l 111 279 m 426 0 q 401 10 408 0 q 400 38 394 21 l 674 913 q 718 944 683 944 l 767 944 q 792 934 785 944 q 793 907 799 924 l 519 32 q 475 0 510 0 l 426 0 z "},"³":{"ha":518,"x_min":75,"x_max":443,"o":"m 117 278 q 86 290 97 278 q 75 318 75 301 l 75 356 q 86 385 75 375 q 117 396 97 396 l 233 396 q 296 419 271 396 q 321 478 321 443 q 295 541 321 517 q 233 565 269 565 l 156 565 q 126 576 136 565 q 115 606 115 588 l 115 643 q 126 672 115 661 q 156 683 136 683 l 233 683 q 288 706 268 683 q 307 758 307 728 q 285 808 307 789 q 233 826 263 826 l 129 826 q 99 838 110 826 q 89 867 89 849 l 89 904 q 99 933 89 922 q 129 944 110 944 l 233 944 q 308 930 272 944 q 371 890 344 915 q 413 831 397 865 q 429 758 429 797 q 419 703 429 726 q 397 663 408 679 q 374 638 385 647 q 364 625 364 628 q 369 619 364 624 q 417 570 392 604 q 443 478 443 536 q 426 398 443 435 q 382 335 410 361 q 315 293 354 308 q 233 278 276 278 l 117 278 z "},"²":{"ha":578,"x_min":68,"x_max":510,"o":"m 108 301 q 79 312 90 301 q 68 342 68 322 l 68 375 q 72 397 68 389 q 88 415 76 404 l 240 575 q 294 633 272 608 q 331 679 317 658 q 351 719 344 700 q 357 761 357 738 q 335 819 357 797 q 278 840 314 840 q 224 829 247 840 q 182 799 201 818 q 155 787 171 788 q 125 799 139 786 l 100 825 q 87 853 86 838 q 100 881 88 869 q 176 938 136 918 q 278 958 215 958 q 357 942 321 958 q 420 899 393 926 q 463 837 447 872 q 478 761 478 801 q 448 647 478 704 q 342 510 418 590 l 268 433 q 265 423 261 426 q 275 419 268 419 l 469 419 q 499 408 489 419 q 510 379 510 397 l 510 342 q 469 301 510 301 l 108 301 z "},"¦":{"ha":354,"x_min":111,"x_max":243,"o":"m 153 524 q 122 535 133 524 q 111 565 111 546 l 111 972 q 122 1003 111 992 q 153 1014 133 1014 l 201 1014 q 232 1003 221 1014 q 243 972 243 992 l 243 565 q 232 535 243 546 q 201 524 221 524 l 153 524 m 153 -69 q 122 -58 133 -69 q 111 -28 111 -47 l 111 379 q 122 410 111 399 q 153 421 133 421 l 201 421 q 232 410 221 421 q 243 379 243 399 l 243 -28 q 232 -58 243 -47 q 201 -69 221 -69 l 153 -69 z "},"−":{"ha":792,"x_min":118,"x_max":671,"o":"m 160 413 q 129 424 140 413 q 118 454 118 435 l 118 489 q 129 519 118 508 q 160 531 140 531 l 629 531 q 660 519 649 531 q 671 489 671 508 l 671 454 q 660 424 671 435 q 629 413 649 413 l 160 413 z "},"×":{"ha":792,"x_min":163,"x_max":617,"o":"m 571 254 q 546 243 560 243 q 521 254 532 243 l 413 361 q 385 361 399 374 l 276 254 q 226 254 251 229 l 188 293 q 188 343 163 318 l 294 451 q 294 479 307 465 l 188 588 q 176 613 176 599 q 188 638 176 626 l 221 672 q 247 683 232 683 q 272 672 261 683 l 381 564 q 408 564 394 550 l 515 672 q 541 683 526 683 q 567 672 556 683 l 606 633 q 617 608 617 622 q 606 582 617 593 l 497 475 q 497 447 483 461 l 606 339 q 617 313 617 328 q 606 288 617 299 l 571 254 z "},"þ":{"ha":667,"x_min":83,"x_max":597,"o":"m 472 389 q 438 474 472 442 q 354 507 403 507 l 222 507 q 208 496 208 507 l 208 132 q 222 118 208 118 l 354 118 q 440 151 407 118 q 472 236 472 183 l 472 389 m 125 -319 q 94 -308 106 -319 q 83 -278 83 -297 l 83 903 q 94 933 83 922 q 125 944 106 944 l 167 944 q 197 933 186 944 q 208 903 208 922 l 208 639 q 222 625 208 625 l 354 625 q 453 607 408 625 q 531 558 499 589 q 580 483 563 526 q 597 389 597 439 l 597 236 q 579 142 597 186 q 530 67 561 99 q 455 18 499 36 q 360 0 411 0 l 222 0 q 208 -14 208 0 l 208 -278 q 197 -308 208 -297 q 167 -319 186 -319 l 125 -319 z "},"!":{"ha":375,"x_min":110,"x_max":265,"o":"m 181 278 q 151 289 161 278 q 139 319 140 300 l 111 903 q 122 934 110 924 q 153 944 133 944 l 222 944 q 253 933 242 944 q 264 903 265 922 l 236 319 q 224 290 235 301 q 194 278 214 278 l 181 278 m 163 0 q 132 11 143 0 q 121 42 121 22 l 121 125 q 132 156 121 144 q 163 167 143 167 l 211 167 q 242 156 231 167 q 253 125 253 144 l 253 42 q 242 11 253 22 q 211 0 231 0 l 163 0 z "},"\"":{"ha":528,"x_min":97,"x_max":431,"o":"m 139 639 q 108 650 119 639 q 97 681 97 661 l 97 903 q 108 933 97 922 q 139 944 119 944 l 181 944 q 211 933 200 944 q 222 903 222 922 l 222 681 q 211 650 222 661 q 181 639 200 639 l 139 639 m 347 639 q 317 650 328 639 q 306 681 306 661 l 306 903 q 317 933 306 922 q 347 944 328 944 l 389 944 q 419 933 408 944 q 431 903 431 922 l 431 681 q 419 650 431 661 q 389 639 408 639 l 347 639 z "},"#":{"ha":792,"x_min":69,"x_max":722,"o":"m 460 0 q 429 11 440 0 q 421 42 418 22 l 439 250 q 426 264 440 264 l 329 264 q 314 250 315 264 l 296 42 q 282 11 293 22 q 251 0 271 0 l 210 0 q 179 11 190 0 q 171 42 168 22 l 189 250 q 176 264 190 264 l 111 264 q 81 275 92 264 q 69 306 69 286 l 69 354 q 81 385 69 374 q 111 396 92 396 l 189 396 q 203 410 201 396 l 213 521 q 200 535 214 535 l 125 535 q 94 546 106 535 q 83 576 83 557 l 83 625 q 94 656 83 644 q 125 667 106 667 l 213 667 q 226 681 225 667 l 246 903 q 260 933 249 922 q 292 944 272 944 l 333 944 q 363 933 353 944 q 371 903 374 922 l 351 681 q 365 667 350 667 l 463 667 q 476 681 475 667 l 496 903 q 510 933 499 922 q 542 944 522 944 l 583 944 q 613 933 603 944 q 621 903 624 922 l 601 681 q 615 667 600 667 l 681 667 q 711 656 700 667 q 722 625 722 644 l 722 576 q 711 546 722 557 q 681 535 700 535 l 603 535 q 588 521 589 535 l 578 410 q 592 396 576 396 l 667 396 q 697 385 686 396 q 708 354 708 374 l 708 306 q 697 275 708 286 q 667 264 686 264 l 579 264 q 564 250 565 264 l 546 42 q 532 11 543 22 q 501 0 521 0 l 460 0 m 463 521 q 450 535 464 535 l 353 535 q 338 521 339 535 l 328 410 q 342 396 326 396 l 439 396 q 453 410 451 396 l 463 521 z "},"$":{"ha":792,"x_min":85,"x_max":647,"o":"m 339 -83 q 308 -72 319 -83 q 297 -42 297 -61 l 297 -26 q 282 -8 297 -10 q 178 24 222 1 q 99 83 135 47 q 86 111 88 94 q 99 142 85 128 l 139 182 q 169 194 153 196 q 197 182 185 193 q 262 142 224 158 q 354 125 300 125 q 458 158 421 125 q 494 243 494 190 q 459 333 494 293 q 340 414 424 374 q 245 467 288 439 q 174 530 203 496 q 128 605 144 564 q 113 699 113 646 q 124 774 113 738 q 158 844 136 811 q 210 901 179 876 q 281 940 242 926 q 297 963 297 946 l 297 1000 q 308 1031 297 1019 q 339 1042 319 1042 l 394 1042 q 425 1031 414 1042 q 436 1000 436 1019 l 436 969 q 447 951 436 953 q 551 916 507 940 q 618 868 594 892 q 618 810 647 839 l 575 767 q 549 752 561 753 q 519 767 536 751 q 469 801 501 783 q 378 819 436 819 q 288 788 325 819 q 251 699 251 757 q 259 653 251 674 q 284 615 267 633 q 330 580 301 597 q 401 544 358 563 q 578 424 515 494 q 640 243 640 354 q 586 91 640 156 q 449 0 532 26 q 438 -8 439 -3 q 436 -21 436 -14 l 436 -42 q 425 -72 436 -61 q 394 -83 414 -83 l 339 -83 z "},"%":{"ha":792,"x_min":36,"x_max":756,"o":"m 257 786 q 242 820 257 807 q 206 833 228 833 q 169 820 183 833 q 154 786 154 807 l 154 675 q 169 641 154 654 q 206 628 183 628 q 242 641 228 628 q 257 675 257 654 l 257 786 m 638 256 q 623 290 638 276 q 586 303 608 303 q 549 290 564 303 q 535 256 535 276 l 535 144 q 549 110 535 124 q 586 97 564 97 q 623 110 608 97 q 638 144 638 124 l 638 256 m 110 0 q 82 10 90 0 q 85 39 74 21 l 521 806 q 524 826 528 817 q 507 835 519 835 l 397 835 q 375 813 375 835 l 375 682 q 328 564 375 611 q 206 517 282 517 q 83 564 129 517 q 36 682 36 611 l 36 779 q 50 844 36 814 q 87 897 64 875 q 140 932 110 919 q 206 944 171 944 l 686 944 q 718 931 708 944 q 715 894 728 917 l 226 33 q 168 0 207 0 l 110 0 m 756 151 q 709 33 756 81 q 586 -14 663 -14 q 463 33 510 -14 q 417 151 417 81 l 417 249 q 463 367 417 319 q 586 414 510 414 q 709 367 663 414 q 756 249 756 319 l 756 151 z "},"&":{"ha":778,"x_min":56,"x_max":743,"o":"m 319 0 q 215 19 263 0 q 131 72 167 38 q 76 153 96 107 q 56 257 56 200 q 91 392 56 336 q 175 478 126 449 q 186 492 186 485 q 179 507 186 500 q 131 578 151 536 q 111 674 111 619 q 133 779 111 729 q 190 865 154 829 q 276 923 226 901 q 382 944 325 944 l 486 944 q 517 933 506 944 q 528 903 528 922 l 528 854 q 517 824 528 835 q 486 813 506 813 l 378 813 q 283 772 322 813 q 243 667 243 732 q 283 565 243 601 q 378 529 322 529 l 701 529 q 732 518 721 529 q 743 488 743 507 l 743 446 q 732 415 743 426 q 701 404 721 404 l 618 404 q 604 390 604 404 l 604 42 q 593 11 604 22 q 563 0 582 0 l 319 0 m 472 390 q 458 404 472 404 l 315 404 q 224 365 260 404 q 188 264 188 325 q 224 167 188 203 q 315 132 260 132 l 458 132 q 472 146 472 132 l 472 390 z "},"'":{"ha":319,"x_min":97,"x_max":222,"o":"m 139 639 q 108 650 119 639 q 97 681 97 661 l 97 903 q 108 933 97 922 q 139 944 119 944 l 181 944 q 211 933 200 944 q 222 903 222 922 l 222 681 q 211 650 222 661 q 181 639 200 639 l 139 639 z "},"(":{"ha":389,"x_min":97,"x_max":368,"o":"m 307 -250 q 224 -235 263 -250 q 158 -194 186 -221 q 113 -128 129 -167 q 97 -42 97 -89 l 97 833 q 113 919 97 881 q 158 985 129 958 q 224 1027 186 1013 q 307 1042 263 1042 l 326 1042 q 357 1031 346 1042 q 368 1000 368 1019 l 368 958 q 357 928 368 939 q 326 917 346 917 l 306 917 q 229 840 229 917 l 229 -49 q 306 -125 229 -125 l 326 -125 q 357 -136 346 -125 q 368 -167 368 -147 l 368 -208 q 357 -239 368 -228 q 326 -250 346 -250 l 307 -250 z "},")":{"ha":389,"x_min":21,"x_max":292,"o":"m 63 -250 q 32 -239 43 -250 q 21 -208 21 -228 l 21 -167 q 32 -136 21 -147 q 63 -125 43 -125 l 83 -125 q 160 -49 160 -125 l 160 840 q 83 917 160 917 l 63 917 q 32 928 43 917 q 21 958 21 939 l 21 1000 q 32 1031 21 1019 q 63 1042 43 1042 l 82 1042 q 165 1027 126 1042 q 231 985 203 1013 q 276 919 260 958 q 292 833 292 881 l 292 -42 q 276 -128 292 -89 q 231 -194 260 -167 q 165 -235 203 -221 q 82 -250 126 -250 l 63 -250 z "},"*":{"ha":694,"x_min":67,"x_max":640,"o":"m 414 383 q 388 384 399 379 q 372 403 376 389 l 318 572 q 301 579 313 589 l 157 475 q 133 469 146 467 q 111 482 119 471 l 88 514 q 96 561 67 542 l 238 663 q 240 683 253 674 l 96 790 q 89 835 72 810 l 111 867 q 133 881 119 879 q 157 874 146 882 l 300 768 q 319 772 315 757 l 374 942 q 415 963 385 971 l 453 951 q 474 910 485 942 l 419 740 q 429 725 415 725 l 607 725 q 640 692 640 725 l 640 653 q 631 628 640 638 q 607 619 622 619 l 429 619 q 419 616 424 619 q 418 606 415 613 l 472 435 q 472 410 476 421 q 451 394 467 399 l 414 383 z "},"+":{"ha":792,"x_min":128,"x_max":665,"o":"m 372 192 q 347 201 357 192 q 336 228 336 211 l 336 379 q 317 400 335 399 l 164 400 q 128 436 128 400 l 128 490 q 164 526 128 526 l 317 526 q 336 547 335 528 l 336 699 q 347 724 336 715 q 372 735 357 733 l 419 735 q 446 726 435 736 q 457 699 457 715 l 457 546 q 476 526 457 526 l 628 526 q 654 516 643 526 q 665 490 665 506 l 665 436 q 654 410 665 421 q 628 400 643 400 l 476 400 q 457 381 457 400 l 457 228 q 446 201 457 211 q 419 192 435 190 l 372 192 z "},",":{"ha":326,"x_min":19,"x_max":229,"o":"m 124 -151 q 74 -154 106 -175 l 47 -136 q 39 -85 19 -118 l 92 6 q 97 31 97 17 l 97 125 q 108 156 97 144 q 139 167 119 167 l 188 167 q 218 156 207 167 q 229 125 229 144 l 229 28 q 224 -6 229 8 q 207 -39 219 -21 l 124 -151 z "},"-":{"ha":500,"x_min":97,"x_max":403,"o":"m 139 285 q 108 296 119 285 q 97 326 97 307 l 97 361 q 108 392 97 381 q 139 403 119 403 l 361 403 q 392 392 381 403 q 403 361 403 381 l 403 326 q 392 296 403 307 q 361 285 381 285 l 139 285 z "},".":{"ha":326,"x_min":97,"x_max":229,"o":"m 139 0 q 108 11 119 0 q 97 42 97 22 l 97 125 q 108 156 97 144 q 139 167 119 167 l 188 167 q 218 156 207 167 q 229 125 229 144 l 229 42 q 218 11 229 22 q 188 0 207 0 l 139 0 z "},"/":{"ha":456,"x_min":-6,"x_max":461,"o":"m 35 -69 q 6 -31 -6 -69 l 322 981 q 369 1014 332 1014 l 421 1014 q 450 975 461 1014 l 133 -36 q 86 -69 124 -69 l 35 -69 z "},";":{"ha":326,"x_min":19,"x_max":229,"o":"m 124 -151 q 74 -154 106 -175 l 47 -136 q 39 -85 19 -118 l 92 6 q 97 31 97 17 l 97 125 q 108 156 97 144 q 139 167 119 167 l 188 167 q 218 156 207 167 q 229 125 229 144 l 229 28 q 224 -6 229 8 q 207 -39 219 -21 l 124 -151 m 139 458 q 108 469 119 458 q 97 500 97 481 l 97 583 q 108 614 97 603 q 139 625 119 625 l 188 625 q 218 614 207 625 q 229 583 229 603 l 229 500 q 218 469 229 481 q 188 458 207 458 l 139 458 z "},"<":{"ha":792,"x_min":144,"x_max":668,"o":"m 640 161 q 615 141 632 146 q 583 146 599 136 l 174 382 q 151 408 158 392 q 144 439 144 424 l 144 488 q 151 522 144 508 q 174 544 157 535 l 582 781 q 614 785 599 790 q 639 765 629 781 l 658 728 q 663 696 668 713 q 643 671 658 679 l 318 488 q 318 440 276 465 l 643 253 q 663 227 660 243 q 658 196 667 211 l 640 161 z "},"=":{"ha":792,"x_min":118,"x_max":674,"o":"m 160 543 q 129 554 140 543 q 118 585 118 565 l 118 619 q 129 650 118 639 q 160 661 140 661 l 632 661 q 663 650 651 661 q 674 619 674 639 l 674 585 q 663 554 674 565 q 632 543 651 543 l 160 543 m 160 265 q 129 276 140 265 q 118 307 118 288 l 118 342 q 129 372 118 361 q 160 383 140 383 l 632 383 q 663 372 651 383 q 674 342 674 361 l 674 307 q 663 276 674 288 q 632 265 651 265 l 160 265 z "},">":{"ha":792,"x_min":147,"x_max":671,"o":"m 232 146 q 200 141 217 136 q 175 161 183 146 l 157 196 q 152 227 149 211 q 172 253 156 243 l 497 440 q 497 488 539 465 l 172 671 q 152 696 157 679 q 157 728 147 713 l 176 765 q 201 785 186 781 q 233 781 217 790 l 642 544 q 665 522 658 535 q 671 488 671 508 l 671 439 q 664 408 671 424 q 642 382 657 392 l 232 146 z "},"?":{"ha":556,"x_min":21,"x_max":521,"o":"m 144 0 q 114 11 125 0 q 103 42 103 22 l 103 125 q 114 156 103 144 q 144 167 125 167 l 193 167 q 224 156 213 167 q 235 125 235 144 l 235 42 q 224 11 235 22 q 193 0 213 0 l 144 0 m 144 278 q 114 289 125 278 q 103 319 103 300 l 103 500 q 114 531 103 519 q 144 542 125 542 l 257 542 q 358 582 319 542 q 396 683 396 622 q 384 739 396 714 q 353 782 372 764 q 308 810 333 800 q 257 819 283 819 l 63 819 q 32 831 43 819 q 21 861 21 842 l 21 903 q 32 933 21 922 q 63 944 43 944 l 243 944 q 349 926 299 944 q 438 875 400 908 q 499 794 476 842 q 521 686 521 746 q 499 578 521 626 q 439 495 476 529 q 352 442 401 461 q 249 424 303 424 q 235 410 235 424 l 235 319 q 224 289 235 300 q 193 278 213 278 l 144 278 z "},"@":{"ha":819,"x_min":83,"x_max":736,"o":"m 672 -178 q 685 -208 686 -192 q 672 -236 683 -225 q 567 -307 628 -281 q 417 -333 506 -333 q 277 -308 339 -333 q 172 -237 215 -282 q 106 -132 129 -193 q 83 0 83 -71 l 83 625 q 106 757 83 696 q 172 863 129 818 q 277 933 215 907 q 417 958 339 958 q 549 934 490 958 q 650 868 608 910 q 714 771 692 826 q 736 653 736 715 l 736 42 q 725 11 736 22 q 694 0 714 0 l 543 0 q 444 18 489 0 q 367 67 399 36 q 317 142 335 99 q 300 236 300 186 l 300 389 q 318 483 300 439 q 367 558 336 526 q 442 607 399 589 q 538 625 486 625 l 597 625 q 611 639 611 625 l 611 667 q 596 736 611 704 q 554 791 581 768 q 492 827 528 814 q 417 840 457 840 q 331 826 369 840 q 266 785 293 811 q 224 723 239 758 q 208 646 208 688 l 208 -21 q 223 -98 208 -62 q 265 -160 238 -133 q 330 -201 292 -186 q 417 -215 368 -215 q 519 -194 476 -215 q 589 -150 563 -174 q 617 -137 601 -139 q 647 -150 633 -136 l 672 -178 m 611 493 q 597 507 611 507 l 529 507 q 451 477 476 507 q 425 403 425 447 l 425 222 q 453 148 425 178 q 529 118 481 118 l 597 118 q 611 132 611 118 l 611 493 z "},"A":{"ha":806,"x_min":15,"x_max":776,"o":"m 724 0 q 692 -10 710 -11 q 660 0 675 -8 l 256 236 q 238 236 246 242 q 228 222 231 231 l 171 33 q 124 0 161 0 l 56 0 q 26 39 15 0 l 304 907 q 323 937 311 929 q 354 944 335 944 l 451 944 q 483 937 471 944 q 501 907 494 929 l 767 76 q 756 26 776 44 l 724 0 m 417 768 q 403 783 413 783 q 389 768 393 783 l 279 401 q 278 374 274 383 q 292 360 282 365 l 553 207 q 575 205 568 197 q 579 222 582 213 l 417 768 z "},"B":{"ha":750,"x_min":97,"x_max":701,"o":"m 139 0 q 108 11 119 0 q 97 42 97 22 l 97 903 q 108 933 97 922 q 139 944 119 944 l 375 944 q 480 924 431 944 q 566 869 529 904 q 624 785 603 833 q 646 681 646 736 q 628 588 646 631 q 578 508 610 544 q 581 482 565 494 q 670 385 639 439 q 701 264 701 332 q 680 159 701 207 q 622 76 658 111 q 535 20 585 40 q 431 0 486 0 l 139 0 m 421 125 q 472 133 446 125 q 520 157 499 140 q 556 200 542 174 q 569 264 569 226 q 556 329 569 301 q 520 374 542 357 q 472 401 499 392 q 421 410 446 410 l 243 410 q 229 396 229 410 l 229 139 q 243 125 229 125 l 421 125 m 365 535 q 417 544 390 535 q 465 570 443 553 q 500 615 486 588 q 514 681 514 643 q 500 744 514 718 q 465 788 486 771 q 417 812 443 804 q 365 819 390 819 l 243 819 q 229 806 229 819 l 229 549 q 243 535 229 535 l 365 535 z "},"C":{"ha":722,"x_min":83,"x_max":674,"o":"m 660 153 q 672 122 674 139 q 660 94 671 106 q 556 18 615 50 q 401 -14 496 -14 q 275 10 333 -14 q 174 78 217 35 q 108 184 132 122 q 83 319 83 246 l 83 625 q 108 759 83 697 q 174 865 132 821 q 275 933 217 908 q 401 958 333 958 q 485 949 447 958 q 553 926 522 940 q 606 895 583 913 q 644 863 629 878 q 644 804 674 833 l 613 772 q 586 758 599 758 q 557 772 574 757 q 502 811 539 789 q 401 833 465 833 q 323 817 357 833 q 265 773 289 801 q 228 706 240 744 q 215 625 215 668 l 215 319 q 265 169 215 226 q 401 111 314 111 q 505 134 463 111 q 574 181 547 157 q 602 193 586 192 q 632 181 618 194 l 660 153 z "},"E":{"ha":736,"x_min":97,"x_max":667,"o":"m 139 0 q 108 11 119 0 q 97 42 97 22 l 97 903 q 108 933 97 922 q 139 944 119 944 l 597 944 q 628 933 617 944 q 639 903 639 922 l 639 861 q 628 831 639 842 q 597 819 617 819 l 243 819 q 229 806 229 819 l 229 556 q 243 542 229 542 l 569 542 q 600 531 589 542 q 611 500 611 519 l 611 458 q 600 428 611 439 q 569 417 589 417 l 243 417 q 229 403 229 417 l 229 139 q 243 125 229 125 l 625 125 q 656 114 644 125 q 667 83 667 103 l 667 42 q 656 11 667 22 q 625 0 644 0 l 139 0 z "},"F":{"ha":688,"x_min":97,"x_max":667,"o":"m 139 0 q 108 11 119 0 q 97 42 97 22 l 97 903 q 108 933 97 922 q 139 944 119 944 l 625 944 q 656 933 644 944 q 667 903 667 922 l 667 861 q 656 831 667 842 q 625 819 644 819 l 243 819 q 229 806 229 819 l 229 542 q 243 528 229 528 l 569 528 q 600 517 589 528 q 611 486 611 506 l 611 444 q 600 414 611 425 q 569 403 589 403 l 243 403 q 229 389 229 403 l 229 42 q 218 11 229 22 q 188 0 207 0 l 139 0 z "},"G":{"ha":764,"x_min":83,"x_max":715,"o":"m 715 299 q 692 170 715 228 q 626 72 668 113 q 524 8 583 31 q 394 -14 465 -14 q 269 10 326 -14 q 171 78 213 35 q 106 184 129 122 q 83 319 83 246 l 83 625 q 108 759 83 697 q 174 865 132 821 q 275 933 217 908 q 401 958 333 958 q 485 949 447 958 q 553 926 522 940 q 606 895 583 913 q 644 863 629 878 q 644 804 674 833 l 613 772 q 586 758 599 758 q 557 772 574 757 q 502 811 539 789 q 401 833 465 833 q 323 817 357 833 q 265 773 289 801 q 228 706 240 744 q 215 625 215 668 l 215 319 q 261 169 215 226 q 394 111 307 111 q 536 163 489 111 q 583 299 583 215 l 583 310 q 581 325 583 321 q 571 332 578 329 l 331 468 q 310 493 315 478 q 315 525 306 508 l 336 561 q 360 583 344 578 q 392 578 376 588 l 686 408 q 710 387 704 397 q 715 357 715 376 l 715 299 z "},"H":{"ha":813,"x_min":97,"x_max":715,"o":"m 625 0 q 594 11 606 0 q 583 42 583 22 l 583 403 q 569 417 583 417 l 243 417 q 229 403 229 417 l 229 42 q 218 11 229 22 q 188 0 207 0 l 139 0 q 108 11 119 0 q 97 42 97 22 l 97 903 q 108 933 97 922 q 139 944 119 944 l 188 944 q 218 933 207 944 q 229 903 229 922 l 229 556 q 243 542 229 542 l 569 542 q 583 556 583 542 l 583 903 q 594 933 583 922 q 625 944 606 944 l 674 944 q 704 933 693 944 q 715 903 715 922 l 715 42 q 704 11 715 22 q 674 0 693 0 l 625 0 z "},"I":{"ha":326,"x_min":97,"x_max":229,"o":"m 139 0 q 108 11 119 0 q 97 42 97 22 l 97 903 q 108 933 97 922 q 139 944 119 944 l 188 944 q 218 933 207 944 q 229 903 229 922 l 229 42 q 218 11 229 22 q 188 0 207 0 l 139 0 z "},"J":{"ha":611,"x_min":28,"x_max":521,"o":"m 389 903 q 400 933 389 922 q 431 944 411 944 l 479 944 q 510 933 499 944 q 521 903 521 922 l 521 222 q 502 128 521 172 q 450 53 483 85 q 371 4 417 22 q 271 -14 325 -14 q 172 4 217 -14 q 94 53 126 22 q 45 128 63 85 q 28 222 28 172 l 28 264 q 39 294 28 283 q 69 306 50 306 l 118 306 q 149 294 138 306 q 160 264 160 283 l 160 229 q 166 186 160 207 q 185 149 172 165 q 219 122 199 132 q 271 111 240 111 q 324 122 301 111 q 360 149 346 132 q 382 186 375 165 q 389 229 389 207 l 389 903 z "},"K":{"ha":744,"x_min":97,"x_max":707,"o":"m 606 0 q 554 38 571 0 l 353 458 q 342 467 349 467 q 328 461 335 468 l 247 360 q 229 308 229 338 l 229 42 q 218 11 229 22 q 188 0 207 0 l 139 0 q 108 11 119 0 q 97 42 97 22 l 97 903 q 108 933 97 922 q 139 944 119 944 l 188 944 q 218 933 207 944 q 229 903 229 922 l 229 563 q 237 549 229 551 q 251 556 244 546 l 539 922 q 592 944 556 944 l 667 944 q 692 931 686 944 q 688 906 699 918 l 453 615 q 446 569 435 593 l 697 50 q 699 15 707 29 q 669 0 690 0 l 606 0 z "},"L":{"ha":685,"x_min":97,"x_max":664,"o":"m 139 0 q 108 11 119 0 q 97 42 97 22 l 97 903 q 108 933 97 922 q 139 944 119 944 l 188 944 q 218 933 207 944 q 229 903 229 922 l 229 139 q 243 125 229 125 l 622 125 q 653 114 642 125 q 664 83 664 103 l 664 42 q 653 11 664 22 q 622 0 642 0 l 139 0 z "},"M":{"ha":972,"x_min":97,"x_max":875,"o":"m 785 0 q 754 11 765 0 q 743 42 743 22 l 743 685 q 735 701 743 697 q 721 690 726 706 l 581 294 q 531 257 567 257 l 442 257 q 392 294 406 257 l 251 690 q 238 703 246 703 q 229 685 229 703 l 229 42 q 218 11 229 22 q 188 0 207 0 l 139 0 q 108 11 119 0 q 97 42 97 22 l 97 903 q 108 933 97 922 q 139 944 119 944 l 261 944 q 292 935 281 944 q 308 911 303 926 l 472 426 q 485 413 476 413 q 500 426 494 414 l 664 911 q 681 935 669 926 q 711 944 692 944 l 833 944 q 864 933 853 944 q 875 903 875 922 l 875 42 q 864 11 875 22 q 833 0 853 0 l 785 0 z "},"N":{"ha":840,"x_min":97,"x_max":743,"o":"m 660 0 q 628 10 640 0 q 604 42 617 21 l 251 660 q 237 668 244 671 q 229 654 229 665 l 229 42 q 218 11 229 22 q 188 0 207 0 l 139 0 q 108 11 119 0 q 97 42 97 22 l 97 903 q 108 933 97 922 q 139 944 119 944 l 193 944 q 228 937 214 944 q 253 910 242 929 l 590 322 q 603 315 596 314 q 611 328 611 317 l 611 903 q 622 933 611 922 q 653 944 633 944 l 701 944 q 732 933 721 944 q 743 903 743 922 l 743 42 q 732 11 743 22 q 701 0 721 0 l 660 0 z "},"O":{"ha":819,"x_min":83,"x_max":736,"o":"m 736 306 q 712 176 736 235 q 644 75 688 117 q 540 10 600 33 q 410 -14 481 -14 q 279 10 339 -14 q 176 75 219 33 q 108 176 132 117 q 83 306 83 235 l 83 639 q 108 769 83 710 q 176 869 132 828 q 279 935 219 911 q 410 958 339 958 q 540 935 481 958 q 644 869 600 911 q 712 769 688 828 q 736 639 736 710 l 736 306 m 604 639 q 554 778 604 722 q 410 833 504 833 q 265 778 315 833 q 215 639 215 722 l 215 306 q 265 167 215 222 q 410 111 315 111 q 554 167 504 111 q 604 306 604 222 l 604 639 z "},"P":{"ha":722,"x_min":97,"x_max":701,"o":"m 139 0 q 108 11 119 0 q 97 42 97 22 l 97 903 q 108 933 97 922 q 139 944 119 944 l 431 944 q 536 922 486 944 q 622 862 586 900 q 680 773 658 824 q 701 667 701 722 q 680 560 701 610 q 622 472 658 510 q 536 411 586 433 q 431 389 486 389 l 243 389 q 229 375 229 389 l 229 42 q 218 11 229 22 q 188 0 207 0 l 139 0 m 421 514 q 475 524 449 514 q 522 553 501 533 q 556 601 543 572 q 569 667 569 629 q 556 733 569 704 q 522 781 543 761 q 475 810 501 800 q 421 819 449 819 l 243 819 q 229 806 229 819 l 229 528 q 243 514 229 514 l 421 514 z "},"Q":{"ha":819,"x_min":83,"x_max":736,"o":"m 664 -139 q 607 -124 628 -160 l 532 6 q 410 -14 474 -14 q 279 10 339 -14 q 176 75 219 33 q 108 176 132 117 q 83 306 83 235 l 83 639 q 108 769 83 710 q 176 869 132 828 q 279 935 219 911 q 410 958 339 958 q 540 935 481 958 q 644 869 600 911 q 712 769 688 828 q 736 639 736 710 l 736 306 q 710 172 736 232 q 639 71 683 113 l 715 -61 q 720 -93 725 -78 q 700 -118 715 -108 l 664 -139 m 292 426 q 287 458 282 443 q 307 483 292 474 l 343 504 q 400 489 379 525 l 571 188 q 595 241 586 211 q 604 306 604 271 l 604 639 q 554 778 604 722 q 410 833 504 833 q 265 778 315 833 q 215 639 215 722 l 215 306 q 265 167 215 222 q 410 111 315 111 q 467 118 439 111 l 292 426 z "},"R":{"ha":750,"x_min":97,"x_max":721,"o":"m 619 0 q 568 38 585 0 l 404 390 q 375 410 396 410 l 243 410 q 229 396 229 410 l 229 42 q 218 11 229 22 q 188 0 207 0 l 139 0 q 108 11 119 0 q 97 42 97 22 l 97 903 q 108 933 97 922 q 139 944 119 944 l 424 944 q 528 924 479 944 q 612 869 576 904 q 667 785 647 833 q 688 681 688 736 q 649 540 688 601 q 553 447 611 479 q 543 407 531 435 l 711 50 q 713 15 721 29 q 683 0 704 0 l 619 0 m 414 535 q 467 545 442 535 q 513 575 493 556 q 544 622 532 594 q 556 681 556 649 q 544 738 556 713 q 513 782 532 764 q 467 810 493 800 q 414 819 442 819 l 243 819 q 229 806 229 819 l 229 549 q 243 535 229 535 l 414 535 z "},"S":{"ha":681,"x_min":71,"x_max":611,"o":"m 115 176 q 145 189 129 190 q 174 176 161 188 q 199 155 185 167 q 231 133 213 143 q 272 117 249 124 q 326 111 296 111 q 436 148 393 111 q 479 240 479 185 q 441 340 479 303 q 319 418 403 378 q 224 471 267 443 q 151 533 182 499 q 105 612 121 568 q 89 713 89 656 q 107 804 89 760 q 160 883 125 849 q 244 938 194 917 q 354 958 293 958 q 490 928 433 958 q 579 864 546 897 q 579 806 608 835 l 547 772 q 521 758 533 758 q 492 772 508 757 q 436 811 474 789 q 354 833 399 833 q 298 823 324 833 q 253 796 272 813 q 224 758 235 779 q 214 713 214 736 q 223 658 214 682 q 251 615 232 635 q 299 576 269 594 q 372 540 329 558 q 474 488 429 515 q 549 426 518 460 q 595 348 579 392 q 611 247 611 304 q 589 147 611 194 q 528 65 567 100 q 437 8 489 29 q 326 -14 385 -14 q 178 15 232 -14 q 85 88 125 43 q 72 115 74 99 q 85 146 71 132 l 115 176 z "},"T":{"ha":715,"x_min":28,"x_max":688,"o":"m 333 0 q 303 11 314 0 q 292 42 292 22 l 292 806 q 278 819 292 819 l 69 819 q 39 831 50 819 q 28 861 28 842 l 28 903 q 39 933 28 922 q 69 944 50 944 l 646 944 q 676 933 665 944 q 688 903 688 922 l 688 861 q 676 831 688 842 q 646 819 665 819 l 438 819 q 424 806 424 819 l 424 42 q 413 11 424 22 q 382 0 401 0 l 333 0 z "},"U":{"ha":833,"x_min":90,"x_max":743,"o":"m 611 903 q 622 933 611 922 q 653 944 633 944 l 701 944 q 732 933 721 944 q 743 903 743 922 l 743 306 q 719 176 743 235 q 651 75 694 117 q 547 10 607 33 q 417 -14 488 -14 q 286 10 346 -14 q 183 75 226 33 q 115 176 139 117 q 90 306 90 235 l 90 903 q 101 933 90 922 q 132 944 113 944 l 181 944 q 211 933 200 944 q 222 903 222 922 l 222 306 q 272 167 222 222 q 417 111 322 111 q 561 167 511 111 q 611 306 611 222 l 611 903 z "},"V":{"ha":806,"x_min":15,"x_max":790,"o":"m 354 0 q 323 8 335 0 q 304 38 311 15 l 26 906 q 56 944 15 944 l 124 944 q 171 911 161 944 l 389 176 q 403 161 393 161 q 417 176 413 161 l 635 911 q 682 944 644 944 l 750 944 q 779 906 790 944 l 501 38 q 483 8 494 15 q 451 0 471 0 l 354 0 z "},"W":{"ha":1299,"x_min":90,"x_max":1208,"o":"m 1076 903 q 1088 933 1076 922 q 1118 944 1099 944 l 1167 944 q 1197 933 1186 944 q 1208 903 1208 922 l 1208 306 q 1186 176 1208 235 q 1123 75 1164 117 q 1024 10 1082 33 q 896 -14 967 -14 q 819 -6 853 -14 q 759 15 786 1 q 710 48 732 29 q 668 88 688 67 q 629 88 647 108 q 535 13 589 39 q 403 -14 481 -14 q 274 10 332 -14 q 176 75 217 33 q 113 176 135 117 q 90 306 90 235 l 90 903 q 101 933 90 922 q 132 944 113 944 l 181 944 q 211 933 200 944 q 222 903 222 922 l 222 306 q 233 228 222 264 q 265 167 243 193 q 322 126 288 140 q 403 111 356 111 q 540 167 496 111 q 583 306 583 222 l 583 903 q 594 933 583 922 q 625 944 606 944 l 674 944 q 704 933 693 944 q 715 903 715 922 l 715 306 q 726 228 715 264 q 758 167 736 193 q 815 126 781 140 q 896 111 849 111 q 1033 167 989 111 q 1076 306 1076 222 l 1076 903 z "},"X":{"ha":806,"x_min":31,"x_max":776,"o":"m 675 0 q 636 10 651 0 q 610 36 621 19 l 421 347 q 405 359 414 358 q 388 346 396 360 l 197 36 q 171 10 186 19 q 132 0 156 0 l 64 0 q 36 13 42 0 q 42 42 31 25 l 311 463 q 311 513 326 489 l 61 903 q 57 932 50 919 q 86 944 64 944 l 151 944 q 214 911 194 944 l 386 626 q 403 615 393 615 q 419 626 413 615 l 593 911 q 618 937 604 929 q 656 944 632 944 l 721 944 q 750 931 743 944 q 746 903 757 918 l 496 514 q 496 460 478 485 l 765 42 q 771 13 776 25 q 743 0 765 0 l 675 0 z "},"Y":{"ha":736,"x_min":56,"x_max":681,"o":"m 347 0 q 317 11 328 0 q 306 42 306 22 l 306 375 q 286 406 306 399 q 117 519 178 436 q 56 722 56 601 l 56 903 q 67 933 56 922 q 97 944 78 944 l 146 944 q 176 933 165 944 q 188 903 188 922 l 188 722 q 198 644 188 681 q 231 580 208 607 q 287 537 253 553 q 368 521 321 521 q 449 537 415 521 q 506 580 483 553 q 538 644 528 607 q 549 722 549 681 l 549 903 q 560 933 549 922 q 590 944 571 944 l 639 944 q 669 933 658 944 q 681 903 681 922 l 681 722 q 621 519 681 604 q 457 407 561 435 q 442 395 446 404 q 438 375 438 386 l 438 42 q 426 11 438 22 q 396 0 415 0 l 347 0 z "},"Z":{"ha":792,"x_min":56,"x_max":735,"o":"m 97 0 q 67 11 78 0 q 56 42 56 22 l 56 74 q 60 105 56 90 q 79 139 65 119 l 532 801 q 533 814 536 808 q 519 819 529 819 l 139 819 q 108 831 119 819 q 97 861 97 842 l 97 903 q 108 933 97 922 q 139 944 119 944 l 679 944 q 710 933 699 944 q 721 903 721 922 l 721 872 q 713 839 721 856 q 694 806 706 822 l 244 147 q 241 131 238 138 q 257 125 244 125 l 693 125 q 724 114 713 125 q 735 83 735 103 l 735 42 q 724 11 735 22 q 693 0 713 0 l 97 0 z "},"[":{"ha":389,"x_min":97,"x_max":368,"o":"m 139 -236 q 108 -225 119 -236 q 97 -194 97 -214 l 97 986 q 108 1017 97 1006 q 139 1028 119 1028 l 326 1028 q 357 1017 346 1028 q 368 986 368 1006 l 368 938 q 357 907 368 918 q 326 896 346 896 l 243 896 q 229 882 229 896 l 229 -90 q 243 -104 229 -104 l 326 -104 q 357 -115 346 -104 q 368 -146 368 -126 l 368 -194 q 357 -225 368 -214 q 326 -236 346 -236 l 139 -236 z "},"\\":{"ha":456,"x_min":-6,"x_max":461,"o":"m 369 -69 q 322 -36 332 -69 l 6 975 q 35 1014 -6 1014 l 86 1014 q 133 981 124 1014 l 450 -31 q 421 -69 461 -69 l 369 -69 z "},"]":{"ha":389,"x_min":21,"x_max":292,"o":"m 63 -236 q 32 -225 43 -236 q 21 -194 21 -214 l 21 -146 q 32 -115 21 -126 q 63 -104 43 -104 l 146 -104 q 160 -90 160 -104 l 160 882 q 146 896 160 896 l 63 896 q 32 907 43 896 q 21 938 21 918 l 21 986 q 32 1017 21 1006 q 63 1028 43 1028 l 250 1028 q 281 1017 269 1028 q 292 986 292 1006 l 292 -194 q 281 -225 292 -214 q 250 -236 269 -236 l 63 -236 z "},"^":{"ha":792,"x_min":75,"x_max":728,"o":"m 668 206 q 638 201 653 197 q 611 221 622 204 l 425 544 q 400 566 411 565 q 378 544 389 567 l 194 219 q 169 199 186 204 q 136 206 151 194 l 99 225 q 79 249 83 235 q 85 281 75 264 l 319 689 q 344 712 331 706 q 376 718 357 718 l 426 718 q 458 711 442 718 q 483 689 474 704 l 719 279 q 724 247 728 264 q 704 222 719 231 l 668 206 z "},"_":{"ha":375,"x_min":-28,"x_max":403,"o":"m 14 -194 q -17 -183 -6 -194 q -28 -153 -28 -172 l -28 -118 q -17 -87 -28 -99 q 14 -76 -6 -76 l 361 -76 q 392 -87 381 -76 q 403 -118 403 -99 l 403 -153 q 392 -183 403 -172 q 361 -194 381 -194 l 14 -194 z "},"`":{"ha":639,"x_min":246,"x_max":461,"o":"m 417 729 q 385 719 401 718 q 358 735 369 721 l 258 857 q 247 888 246 872 q 264 917 249 904 l 292 938 q 322 949 306 950 q 350 932 338 947 l 450 810 q 460 778 461 794 q 444 751 460 763 l 417 729 z "},"b":{"ha":667,"x_min":83,"x_max":597,"o":"m 125 0 q 94 11 106 0 q 83 42 83 22 l 83 903 q 94 933 83 922 q 125 944 106 944 l 167 944 q 197 933 186 944 q 208 903 208 922 l 208 639 q 222 625 208 625 l 360 625 q 455 607 411 625 q 530 558 499 589 q 579 483 561 526 q 597 389 597 439 l 597 236 q 580 142 597 186 q 531 67 563 99 q 453 18 499 36 q 354 0 408 0 l 125 0 m 472 389 q 440 474 472 442 q 354 507 407 507 l 222 507 q 208 493 208 507 l 208 132 q 222 118 208 118 l 354 118 q 438 151 403 118 q 472 236 472 183 l 472 389 z "},"c":{"ha":554,"x_min":69,"x_max":519,"o":"m 507 124 q 518 96 519 111 q 506 67 517 81 q 433 13 482 39 q 319 -14 383 -14 q 212 6 258 -14 q 133 60 165 26 q 85 140 101 94 q 69 236 69 186 l 69 389 q 87 485 69 439 q 137 565 104 531 q 215 619 169 599 q 319 639 261 639 q 421 619 376 639 q 494 569 465 599 q 507 540 507 557 q 494 511 507 524 l 468 485 q 411 486 442 458 q 372 510 396 500 q 319 521 347 521 q 224 481 253 521 q 194 389 194 442 l 194 236 q 201 185 194 210 q 222 143 207 161 q 260 115 236 125 q 319 104 283 104 q 382 119 356 104 q 424 149 408 135 q 482 149 456 175 l 507 124 z "},"d":{"ha":667,"x_min":69,"x_max":583,"o":"m 313 0 q 213 18 258 0 q 136 67 168 36 q 87 142 104 99 q 69 236 69 186 l 69 389 q 88 483 69 439 q 137 558 106 526 q 212 607 168 589 q 307 625 256 625 l 444 625 q 458 639 458 625 l 458 903 q 469 933 458 922 q 500 944 481 944 l 542 944 q 572 933 561 944 q 583 903 583 922 l 583 42 q 572 11 583 22 q 542 0 561 0 l 313 0 m 458 493 q 444 507 458 507 l 313 507 q 227 474 260 507 q 194 389 194 442 l 194 236 q 229 151 194 183 q 313 118 264 118 l 444 118 q 458 132 458 118 l 458 493 z "},"e":{"ha":632,"x_min":69,"x_max":563,"o":"m 535 136 q 547 108 547 124 q 535 79 546 93 q 453 15 507 44 q 324 -14 399 -14 q 219 5 265 -14 q 139 57 172 24 q 88 135 106 90 q 69 229 69 179 l 69 393 q 85 488 69 443 q 133 567 101 533 q 209 619 164 600 q 313 639 254 639 q 417 619 371 639 q 495 567 463 600 q 545 488 528 533 q 563 393 563 443 l 563 310 q 551 279 563 290 q 521 268 540 268 l 208 268 q 194 254 194 268 l 194 229 q 226 140 194 176 q 324 104 257 104 q 406 123 376 104 q 450 158 435 142 q 481 173 465 174 q 508 160 496 172 l 535 136 m 438 393 q 408 483 438 446 q 313 521 379 521 q 221 483 247 521 q 194 393 194 446 l 194 386 q 208 372 194 372 l 424 372 q 438 386 438 372 l 438 393 z "},"f":{"ha":472,"x_min":28,"x_max":444,"o":"m 194 0 q 164 11 175 0 q 153 42 153 22 l 153 493 q 139 507 153 507 l 69 507 q 39 518 50 507 q 28 549 28 529 l 28 583 q 39 614 28 603 q 69 625 50 625 l 139 625 q 153 639 153 625 l 153 708 q 168 802 153 758 q 213 877 183 846 q 283 926 242 908 q 376 944 325 944 l 403 944 q 433 933 422 944 q 444 903 444 922 l 444 868 q 433 838 444 849 q 403 826 422 826 l 382 826 q 303 794 329 826 q 278 708 278 763 l 278 639 q 292 625 278 625 l 403 625 q 433 614 422 625 q 444 583 444 603 l 444 549 q 433 518 444 529 q 403 507 422 507 l 292 507 q 278 493 278 507 l 278 42 q 267 11 278 22 q 236 0 256 0 l 194 0 z "},"h":{"ha":667,"x_min":83,"x_max":583,"o":"m 500 0 q 469 11 481 0 q 458 42 458 22 l 458 394 q 428 477 458 447 q 346 507 399 507 l 222 507 q 208 493 208 507 l 208 42 q 197 11 208 22 q 167 0 186 0 l 125 0 q 94 11 106 0 q 83 42 83 22 l 83 903 q 94 933 83 922 q 125 944 106 944 l 167 944 q 197 933 186 944 q 208 903 208 922 l 208 639 q 222 625 208 625 l 351 625 q 446 608 403 625 q 519 560 489 590 q 567 487 550 529 q 583 394 583 444 l 583 42 q 572 11 583 22 q 542 0 561 0 l 500 0 z "},"i":{"ha":319,"x_min":97,"x_max":222,"o":"m 139 722 q 108 733 119 722 q 97 764 97 744 l 97 833 q 108 864 97 853 q 139 875 119 875 l 181 875 q 211 864 200 875 q 222 833 222 853 l 222 764 q 211 733 222 744 q 181 722 200 722 l 139 722 m 139 0 q 108 11 119 0 q 97 42 97 22 l 97 583 q 108 614 97 603 q 139 625 119 625 l 181 625 q 211 614 200 625 q 222 583 222 603 l 222 42 q 211 11 222 22 q 181 0 200 0 l 139 0 z "},"j":{"ha":319,"x_min":-35,"x_max":222,"o":"m 139 722 q 108 733 119 722 q 97 764 97 744 l 97 833 q 108 864 97 853 q 139 875 119 875 l 181 875 q 211 864 200 875 q 222 833 222 853 l 222 764 q 211 733 222 744 q 181 722 200 722 l 139 722 m 7 -319 q -24 -308 -12 -319 q -35 -278 -35 -297 l -35 -243 q -24 -212 -35 -224 q 7 -201 -12 -201 l 21 -201 q 78 -178 58 -201 q 97 -111 97 -154 l 97 583 q 108 614 97 603 q 139 625 119 625 l 181 625 q 211 614 200 625 q 222 583 222 603 l 222 -111 q 169 -263 222 -207 q 26 -319 115 -319 l 7 -319 z "},"k":{"ha":619,"x_min":97,"x_max":592,"o":"m 501 0 q 450 38 467 0 l 321 311 q 308 322 317 321 q 290 315 299 324 l 240 264 q 227 247 232 256 q 222 224 222 238 l 222 42 q 211 11 222 22 q 181 0 200 0 l 139 0 q 108 11 119 0 q 97 42 97 22 l 97 903 q 108 933 97 922 q 139 944 119 944 l 181 944 q 211 933 200 944 q 222 903 222 922 l 222 439 q 228 424 222 428 q 243 429 235 421 l 414 603 q 436 619 425 614 q 467 625 447 625 l 540 625 q 569 610 564 625 q 560 581 574 594 l 426 449 q 414 397 401 425 l 582 50 q 583 15 592 29 q 554 0 575 0 l 501 0 z "},"l":{"ha":354,"x_min":97,"x_max":326,"o":"m 265 0 q 137 49 176 0 q 97 181 97 97 l 97 903 q 108 933 97 922 q 139 944 119 944 l 181 944 q 211 933 200 944 q 222 903 222 922 l 222 167 q 235 131 222 144 q 271 118 247 118 l 285 118 q 315 107 304 118 q 326 76 326 96 l 326 42 q 315 11 326 22 q 285 0 304 0 l 265 0 z "},"n":{"ha":681,"x_min":83,"x_max":597,"o":"m 514 0 q 483 11 494 0 q 472 42 472 22 l 472 389 q 440 481 472 442 q 340 521 407 521 q 241 481 274 521 q 208 389 208 442 l 208 42 q 197 11 208 22 q 167 0 186 0 l 125 0 q 94 11 106 0 q 83 42 83 22 l 83 389 q 102 485 83 439 q 154 565 121 531 q 235 619 188 599 q 340 639 282 639 q 446 619 399 639 q 526 565 493 599 q 578 485 560 531 q 597 389 597 439 l 597 42 q 586 11 597 22 q 556 0 575 0 l 514 0 z "},"o":{"ha":764,"x_min":56,"x_max":708,"o":"m 382 104 q 462 121 425 104 q 526 165 499 138 q 568 231 553 193 q 583 313 583 269 q 568 394 583 356 q 526 460 553 432 q 462 504 499 488 q 382 521 425 521 q 302 504 339 521 q 238 460 265 488 q 196 394 211 432 q 181 313 181 356 q 196 231 181 269 q 238 165 211 193 q 302 121 265 138 q 382 104 339 104 m 382 -14 q 255 12 314 -14 q 151 82 196 38 q 81 185 107 126 q 56 313 56 244 q 81 440 56 381 q 151 543 107 499 q 255 613 196 588 q 382 639 314 639 q 509 613 450 639 q 613 543 568 588 q 683 440 657 499 q 708 313 708 381 q 683 185 708 244 q 613 82 657 126 q 509 12 568 38 q 382 -14 450 -14 z "},"p":{"ha":667,"x_min":83,"x_max":597,"o":"m 472 389 q 438 474 472 442 q 354 507 403 507 l 222 507 q 208 493 208 507 l 208 132 q 222 118 208 118 l 354 118 q 440 151 407 118 q 472 236 472 183 l 472 389 m 125 -319 q 94 -308 106 -319 q 83 -278 83 -297 l 83 583 q 94 614 83 603 q 125 625 106 625 l 354 625 q 453 607 408 625 q 531 558 499 589 q 580 483 563 526 q 597 389 597 439 l 597 236 q 579 142 597 186 q 530 67 561 99 q 455 18 499 36 q 360 0 411 0 l 222 0 q 208 -14 208 0 l 208 -278 q 197 -308 208 -297 q 167 -319 186 -319 l 125 -319 z "},"q":{"ha":667,"x_min":69,"x_max":583,"o":"m 458 493 q 444 507 458 507 l 313 507 q 229 474 264 507 q 194 389 194 442 l 194 236 q 227 151 194 183 q 313 118 260 118 l 444 118 q 458 132 458 118 l 458 493 m 500 -319 q 469 -308 481 -319 q 458 -278 458 -297 l 458 -14 q 444 0 458 0 l 307 0 q 212 18 256 0 q 137 67 168 36 q 88 142 106 99 q 69 236 69 186 l 69 389 q 87 483 69 439 q 136 558 104 526 q 213 607 168 589 q 313 625 258 625 l 542 625 q 572 614 561 625 q 583 583 583 603 l 583 -278 q 572 -308 583 -297 q 542 -319 561 -319 l 500 -319 z "},"r":{"ha":410,"x_min":83,"x_max":396,"o":"m 125 0 q 94 11 106 0 q 83 42 83 22 l 83 396 q 142 561 83 497 q 304 625 200 625 l 354 625 q 385 614 374 625 q 396 583 396 603 l 396 549 q 385 518 396 529 q 354 507 374 507 l 313 507 q 234 474 260 507 q 208 389 208 442 l 208 42 q 197 11 208 22 q 167 0 186 0 l 125 0 z "},"t":{"ha":458,"x_min":35,"x_max":417,"o":"m 335 0 q 181 57 231 0 q 132 215 132 114 l 132 493 q 118 507 132 507 l 76 507 q 46 518 57 507 q 35 549 35 529 l 35 583 q 46 614 35 603 q 76 625 57 625 l 118 625 q 132 639 132 625 l 132 736 q 143 767 132 756 q 174 778 154 778 l 215 778 q 246 767 235 778 q 257 736 257 756 l 257 639 q 271 625 257 625 l 375 625 q 406 614 394 625 q 417 583 417 603 l 417 549 q 406 518 417 529 q 375 507 394 507 l 271 507 q 257 493 257 507 l 257 222 q 276 146 257 174 q 347 118 294 118 l 375 118 q 406 107 394 118 q 417 76 417 96 l 417 42 q 406 11 417 22 q 375 0 394 0 l 335 0 z "},"u":{"ha":674,"x_min":83,"x_max":590,"o":"m 465 583 q 476 614 465 603 q 507 625 488 625 l 549 625 q 579 614 568 625 q 590 583 590 603 l 590 236 q 572 140 590 186 q 522 60 554 94 q 442 6 489 26 q 338 -14 396 -14 q 233 6 279 -14 q 153 60 186 26 q 101 140 119 94 q 83 236 83 186 l 83 583 q 94 614 83 603 q 125 625 106 625 l 167 625 q 197 614 186 625 q 208 583 208 603 l 208 236 q 240 144 208 183 q 338 104 271 104 q 435 144 404 104 q 465 236 465 183 l 465 583 z "},"v":{"ha":608,"x_min":24,"x_max":585,"o":"m 271 0 q 240 7 251 0 q 221 38 228 14 l 31 586 q 32 615 24 604 q 60 625 40 625 l 111 625 q 158 592 149 625 l 290 179 q 304 164 294 164 q 318 179 314 164 l 450 592 q 497 625 460 625 l 549 625 q 576 615 568 625 q 578 586 585 604 l 388 38 q 369 7 381 14 q 338 0 357 0 l 271 0 z "},"w":{"ha":1000,"x_min":83,"x_max":917,"o":"m 792 583 q 803 614 792 603 q 833 625 814 625 l 875 625 q 906 614 894 625 q 917 583 917 603 l 917 222 q 899 128 917 172 q 851 53 882 85 q 775 4 819 22 q 676 -14 731 -14 q 580 4 621 -14 q 513 49 539 22 q 486 49 500 61 q 417 6 458 25 q 324 -14 376 -14 q 225 4 269 -14 q 149 53 181 22 q 101 128 118 85 q 83 222 83 172 l 83 583 q 94 614 83 603 q 125 625 106 625 l 167 625 q 197 614 186 625 q 208 583 208 603 l 208 222 q 215 179 208 200 q 236 142 222 158 q 272 115 250 125 q 324 104 294 104 q 374 115 353 104 q 410 142 396 125 q 431 179 424 158 q 438 222 438 200 l 438 583 q 449 614 438 603 q 479 625 460 625 l 521 625 q 551 614 540 625 q 563 583 563 603 l 563 222 q 569 179 563 200 q 589 142 575 158 q 624 115 603 125 q 676 104 646 104 q 728 115 707 104 q 764 142 750 125 q 785 179 778 158 q 792 222 792 200 l 792 583 z "},"x":{"ha":581,"x_min":29,"x_max":551,"o":"m 464 0 q 428 10 440 0 q 406 36 417 19 l 304 201 q 290 212 297 211 q 276 201 283 213 l 175 36 q 152 10 164 19 q 117 0 140 0 l 63 0 q 35 13 40 0 q 40 42 29 25 l 210 301 q 210 344 225 322 l 54 583 q 50 612 43 599 q 79 625 57 625 l 129 625 q 164 617 153 625 q 186 592 175 610 l 275 446 q 306 446 290 422 l 394 592 q 417 617 406 610 q 451 625 428 625 l 501 625 q 531 612 524 625 q 526 583 538 599 l 372 346 q 374 297 357 322 l 540 42 q 546 13 551 25 q 518 0 540 0 l 464 0 z "},"y":{"ha":667,"x_min":83,"x_max":583,"o":"m 458 -14 q 444 0 458 0 l 315 0 q 221 17 264 0 q 147 65 178 35 q 100 138 117 96 q 83 231 83 181 l 83 583 q 94 614 83 603 q 125 625 106 625 l 167 625 q 197 614 186 625 q 208 583 208 603 l 208 231 q 238 148 208 178 q 321 118 268 118 l 444 118 q 458 132 458 118 l 458 583 q 469 614 458 603 q 500 625 481 625 l 542 625 q 572 614 561 625 q 583 583 583 603 l 583 -74 q 565 -174 583 -126 q 514 -256 547 -221 q 433 -312 481 -292 q 326 -333 386 -333 q 208 -319 256 -333 q 125 -281 161 -304 q 105 -256 110 -271 q 108 -225 100 -240 l 125 -193 q 179 -176 143 -158 q 243 -204 208 -193 q 326 -215 278 -215 q 428 -177 397 -215 q 458 -74 458 -139 l 458 -14 z "},"z":{"ha":549,"x_min":42,"x_max":507,"o":"m 83 0 q 53 11 64 0 q 42 42 42 22 l 42 76 q 65 139 42 107 l 318 489 q 321 501 324 496 q 308 507 318 507 l 97 507 q 67 518 78 507 q 56 549 56 529 l 56 583 q 67 614 56 603 q 97 625 78 625 l 451 625 q 482 614 471 625 q 493 583 493 603 l 493 549 q 487 519 493 532 q 467 486 481 506 l 217 140 q 213 124 210 131 q 229 118 217 118 l 465 118 q 496 107 485 118 q 507 76 507 96 l 507 42 q 496 11 507 22 q 465 0 485 0 l 83 0 z "},"{":{"ha":431,"x_min":21,"x_max":410,"o":"m 349 -250 q 266 -235 304 -250 q 199 -194 228 -221 q 155 -128 171 -167 q 139 -42 139 -89 l 139 258 q 126 315 139 294 q 76 335 114 335 l 63 335 q 32 346 43 335 q 21 376 21 357 l 21 417 q 32 447 21 436 q 63 458 43 458 l 76 458 q 126 478 114 458 q 139 535 139 499 l 139 833 q 155 919 139 881 q 199 985 171 958 q 266 1027 228 1013 q 349 1042 304 1042 l 368 1042 q 399 1031 388 1042 q 410 1000 410 1019 l 410 958 q 399 928 410 939 q 368 917 388 917 l 347 917 q 271 840 271 917 l 271 531 q 258 459 271 490 q 225 413 246 428 q 225 379 204 396 q 271 261 271 343 l 271 -49 q 347 -125 271 -125 l 368 -125 q 399 -136 388 -125 q 410 -167 410 -147 l 410 -208 q 399 -239 410 -228 q 368 -250 388 -250 l 349 -250 z "},"|":{"ha":354,"x_min":117,"x_max":242,"o":"m 158 -69 q 128 -58 139 -69 q 117 -28 117 -47 l 117 972 q 128 1003 117 992 q 158 1014 139 1014 l 200 1014 q 231 1003 219 1014 q 242 972 242 992 l 242 -28 q 231 -58 242 -47 q 200 -69 219 -69 l 158 -69 z "},"}":{"ha":431,"x_min":21,"x_max":410,"o":"m 63 -250 q 32 -239 43 -250 q 21 -208 21 -228 l 21 -167 q 32 -136 21 -147 q 63 -125 43 -125 l 83 -125 q 160 -49 160 -125 l 160 261 q 206 379 160 343 q 206 413 226 396 q 172 459 185 428 q 160 531 160 490 l 160 840 q 83 917 160 917 l 63 917 q 32 928 43 917 q 21 958 21 939 l 21 1000 q 32 1031 21 1019 q 63 1042 43 1042 l 82 1042 q 165 1027 126 1042 q 231 985 203 1013 q 276 919 260 958 q 292 833 292 881 l 292 535 q 304 478 292 499 q 354 458 317 458 l 368 458 q 399 447 388 458 q 410 417 410 436 l 410 376 q 399 346 410 357 q 368 335 388 335 l 354 335 q 304 315 317 335 q 292 258 292 294 l 292 -42 q 276 -128 292 -89 q 231 -194 260 -167 q 165 -235 203 -221 q 82 -250 126 -250 l 63 -250 z "},"~":{"ha":792,"x_min":100,"x_max":692,"o":"m 679 501 q 691 473 692 489 q 679 443 690 457 q 606 379 650 406 q 501 353 563 353 q 427 365 457 353 q 372 392 397 378 q 324 419 347 407 q 267 432 300 432 q 222 419 240 432 q 186 390 204 407 q 159 380 172 376 q 133 396 146 383 l 113 417 q 101 445 100 429 q 113 475 101 461 q 180 532 139 506 q 281 558 221 558 q 353 545 324 558 q 408 516 383 532 q 458 487 433 500 q 517 474 483 474 q 560 488 539 474 q 601 521 582 501 q 631 535 617 536 q 658 522 646 535 l 679 501 z "},"†":{"ha":625,"x_min":63,"x_max":563,"o":"m 303 -319 q 272 -308 283 -319 q 261 -278 261 -297 l 247 356 q 233 369 247 369 l 104 369 q 74 381 85 369 q 63 411 63 392 l 63 460 q 74 490 63 479 q 104 501 85 501 l 233 501 q 247 515 247 501 l 247 696 q 258 726 247 715 q 289 738 269 738 l 338 738 q 368 726 357 738 q 379 696 379 715 l 379 515 q 386 505 379 508 q 400 501 393 501 l 521 501 q 551 490 540 501 q 563 460 563 479 l 563 411 q 551 381 563 392 q 521 369 540 369 l 400 369 q 386 366 393 369 q 379 356 379 363 l 365 -278 q 354 -308 365 -297 q 324 -319 343 -319 l 303 -319 z "},"°":{"ha":514,"x_min":69,"x_max":444,"o":"m 444 771 q 430 699 444 732 q 390 642 415 665 q 330 604 364 618 q 257 590 296 590 q 184 604 218 590 q 124 642 150 618 q 84 699 99 665 q 69 771 69 732 q 84 843 69 810 q 124 900 99 876 q 184 938 150 924 q 257 951 218 951 q 330 938 296 951 q 390 900 364 924 q 430 843 415 876 q 444 771 444 810 m 257 667 q 329 697 301 667 q 357 771 357 726 q 329 845 357 815 q 257 875 301 875 q 185 845 213 875 q 157 771 157 815 q 185 697 157 726 q 257 667 213 667 z "},"¢":{"ha":611,"x_min":90,"x_max":560,"o":"m 333 0 q 303 11 314 0 q 292 42 292 22 l 292 133 q 268 164 292 158 q 140 246 189 185 q 90 389 90 307 l 90 569 q 140 711 90 651 q 267 794 190 771 q 285 803 278 799 q 292 824 292 808 l 292 903 q 303 933 292 922 q 333 944 314 944 l 354 944 q 385 933 374 944 q 396 903 396 922 l 396 824 q 401 806 396 811 q 417 797 406 800 q 478 773 447 789 q 529 740 510 757 q 542 712 542 729 q 529 682 542 694 l 503 656 q 471 645 490 643 q 436 661 451 647 q 408 670 421 674 q 396 653 396 667 l 396 308 q 410 291 396 290 q 444 310 425 292 q 481 324 460 322 q 513 311 501 325 l 538 281 q 538 224 560 251 q 489 188 522 206 q 417 161 456 171 q 396 133 396 157 l 396 42 q 385 11 396 22 q 354 0 374 0 l 333 0 m 292 657 q 288 670 292 668 q 274 669 285 672 q 231 634 246 660 q 215 583 215 608 l 215 375 q 231 328 215 351 q 267 294 247 304 q 285 290 279 288 q 292 307 292 292 l 292 657 z "},"£":{"ha":792,"x_min":65,"x_max":743,"o":"m 731 128 q 742 99 743 115 q 731 69 742 83 q 655 9 701 32 q 553 -14 608 -14 q 483 -3 513 -14 q 430 20 454 7 q 383 44 406 33 q 331 54 360 54 q 282 42 304 54 q 228 -3 260 29 q 202 -14 214 -17 q 176 1 190 -11 l 142 32 q 129 60 128 44 q 143 90 131 76 q 188 153 167 117 q 226 230 210 190 q 251 310 242 269 q 260 382 260 350 q 243 399 260 399 l 107 399 q 76 410 88 399 q 65 440 65 421 l 65 475 q 76 506 65 494 q 107 517 88 517 l 204 517 q 224 542 233 517 q 197 610 213 569 q 182 699 182 650 q 199 795 182 749 q 250 878 217 842 q 332 937 283 915 q 443 958 381 958 q 517 950 482 958 q 581 928 551 942 q 635 899 611 915 q 674 868 658 883 q 674 810 703 839 l 646 778 q 619 763 632 764 q 590 778 607 763 q 533 814 572 794 q 443 833 493 833 q 344 795 382 833 q 307 699 307 757 q 327 618 307 658 q 363 538 347 578 q 393 517 371 517 l 524 517 q 554 506 543 517 q 565 475 565 494 l 565 440 q 554 410 565 421 q 524 399 543 399 l 411 399 q 386 376 388 399 q 364 279 382 325 q 328 201 346 233 q 325 185 322 192 q 343 175 328 178 q 399 161 372 172 q 452 138 426 150 q 503 117 478 126 q 554 107 528 107 q 602 120 576 107 q 647 153 628 133 q 677 167 663 168 q 704 154 692 167 l 731 128 z "},"§":{"ha":611,"x_min":89,"x_max":533,"o":"m 258 31 q 245 58 246 43 q 260 88 244 72 q 300 165 300 125 q 286 211 300 193 q 240 251 272 229 q 131 344 174 296 q 89 458 89 393 q 124 569 89 522 q 210 639 158 615 q 215 667 229 646 q 191 722 197 694 q 185 785 185 749 q 209 877 185 838 q 271 946 233 917 q 301 958 285 957 q 329 946 317 958 l 364 911 q 377 884 376 899 q 363 854 378 869 q 322 776 322 817 q 336 731 322 749 q 382 690 350 713 q 491 597 449 646 q 533 483 533 549 q 499 372 533 418 q 411 303 464 326 q 401 291 401 299 q 407 275 401 283 q 438 157 438 228 q 413 65 438 104 q 351 -4 389 25 q 322 -16 338 -15 q 293 -4 306 -17 l 258 31 m 399 474 q 372 538 399 511 q 307 565 344 565 q 242 538 269 565 q 215 474 215 511 q 242 409 215 436 q 307 382 269 382 q 372 409 344 382 q 399 474 399 436 z "},"•":{"ha":500,"x_min":146,"x_max":354,"o":"m 354 319 q 326 245 354 275 q 250 215 299 215 q 174 245 201 215 q 146 319 146 275 l 146 375 q 174 449 146 419 q 250 479 201 479 q 326 449 299 479 q 354 375 354 419 l 354 319 z "},"¶":{"ha":819,"x_min":28,"x_max":726,"o":"m 636 -319 q 606 -308 617 -319 q 594 -278 594 -297 l 594 806 q 581 819 594 819 l 493 819 q 479 806 479 819 l 479 -278 q 468 -308 479 -297 q 438 -319 457 -319 l 389 -319 q 358 -308 369 -319 q 347 -278 347 -297 l 347 396 q 333 410 347 410 l 292 410 q 187 431 235 410 q 103 488 139 451 q 48 572 68 524 q 28 678 28 621 q 48 783 28 733 q 103 867 68 832 q 187 924 139 903 q 292 944 235 944 l 685 944 q 715 933 704 944 q 726 903 726 922 l 726 -278 q 715 -308 726 -297 q 685 -319 704 -319 l 636 -319 m 347 806 q 333 819 347 819 l 301 819 q 206 779 246 819 q 167 678 167 739 q 206 579 167 617 q 301 542 246 542 l 333 542 q 347 556 347 542 l 347 806 z "},"ß":{"ha":736,"x_min":28,"x_max":701,"o":"m 194 0 q 164 11 175 0 q 153 42 153 22 l 153 493 q 139 507 153 507 l 69 507 q 39 518 50 507 q 28 549 28 529 l 28 583 q 39 614 28 603 q 69 625 50 625 l 139 625 q 153 639 153 625 l 153 708 q 170 802 153 758 q 218 877 188 846 q 291 926 249 908 q 382 944 333 944 q 462 933 422 944 q 533 896 501 921 q 583 833 564 871 q 603 743 603 794 q 581 656 603 693 q 532 589 558 619 q 483 529 506 558 q 461 465 461 500 q 480 416 461 436 q 539 378 499 396 q 657 298 613 346 q 701 179 701 250 q 685 94 701 131 q 641 35 669 58 q 575 -1 613 11 q 496 -14 538 -14 q 397 3 436 -14 q 332 53 358 21 q 320 82 321 65 q 332 111 319 99 l 354 135 q 381 148 367 147 q 411 133 396 149 q 448 107 424 119 q 494 94 472 94 q 551 114 524 94 q 578 165 578 133 q 557 222 578 201 q 485 268 536 242 q 421 305 447 286 q 377 346 394 324 q 351 396 360 368 q 343 461 343 424 q 364 547 343 510 q 409 615 385 583 q 454 677 433 647 q 475 743 475 707 q 466 776 475 761 q 444 803 457 792 q 414 820 431 814 q 382 826 397 826 q 340 817 360 826 q 307 793 321 808 q 285 758 293 778 q 278 715 278 738 l 278 42 q 267 11 278 22 q 236 0 256 0 l 194 0 z "},"®":{"ha":958,"x_min":83,"x_max":875,"o":"m 757 576 q 738 684 757 635 q 682 769 718 733 q 594 826 646 806 q 479 847 543 847 q 364 826 415 847 q 276 769 313 806 q 221 684 240 733 q 201 576 201 635 l 201 368 q 221 260 201 310 q 276 175 240 211 q 364 118 313 139 q 479 97 415 97 q 594 118 543 97 q 682 175 646 139 q 738 260 718 211 q 757 368 757 310 l 757 576 m 875 375 q 847 222 875 293 q 767 98 818 150 q 642 16 715 46 q 479 -14 568 -14 q 316 16 389 -14 q 192 98 243 46 q 112 222 140 150 q 83 375 83 293 l 83 569 q 112 723 83 651 q 192 847 140 794 q 316 928 243 899 q 479 958 389 958 q 642 928 568 958 q 767 847 715 899 q 847 723 818 794 q 875 569 875 651 l 875 375 m 582 219 q 539 250 551 219 l 465 410 q 451 417 463 417 l 442 417 q 428 404 428 417 l 428 260 q 417 231 428 242 q 388 219 406 219 l 358 219 q 329 231 340 219 q 318 260 318 242 l 318 674 q 329 703 318 692 q 358 714 340 714 l 494 714 q 552 703 525 714 q 599 672 579 692 q 631 624 619 651 q 642 567 642 597 q 622 490 642 524 q 579 446 601 457 q 575 433 572 442 l 650 274 q 651 235 661 250 q 619 219 642 219 l 582 219 m 490 524 q 520 536 508 524 q 532 567 532 549 q 519 596 532 585 q 490 607 507 607 l 442 607 q 428 593 428 607 l 428 538 q 442 524 428 524 l 490 524 z "},"©":{"ha":958,"x_min":83,"x_max":875,"o":"m 757 576 q 738 684 757 635 q 682 769 718 733 q 594 826 646 806 q 479 847 543 847 q 364 826 415 847 q 276 769 313 806 q 221 684 240 733 q 201 576 201 635 l 201 368 q 221 260 201 310 q 276 175 240 211 q 364 118 313 139 q 479 97 415 97 q 594 118 543 97 q 682 175 646 139 q 738 260 718 211 q 757 368 757 310 l 757 576 m 875 375 q 847 222 875 293 q 767 98 818 150 q 642 16 715 46 q 479 -14 568 -14 q 316 16 389 -14 q 192 98 243 46 q 112 222 140 150 q 83 375 83 293 l 83 569 q 112 723 83 651 q 192 847 140 794 q 316 928 243 899 q 479 958 389 958 q 642 928 568 958 q 767 847 715 899 q 847 723 818 794 q 875 569 875 651 l 875 375 m 621 329 q 633 302 633 318 q 621 275 632 286 q 565 235 596 249 q 486 221 533 221 q 351 272 401 221 q 301 400 301 324 l 301 547 q 315 618 301 585 q 352 675 328 651 q 410 713 376 699 q 486 726 444 726 q 565 710 531 726 q 617 678 599 693 q 630 650 629 665 q 617 621 631 635 l 597 601 q 570 587 582 586 q 543 601 558 588 q 522 615 536 608 q 486 621 508 621 q 431 600 450 621 q 413 547 413 579 l 413 400 q 431 347 413 368 q 486 325 450 325 q 524 331 510 325 q 549 347 539 338 q 576 358 560 358 q 604 347 592 358 l 621 329 z "},"™":{"ha":986,"x_min":33,"x_max":903,"o":"m 824 507 q 797 533 797 507 l 797 747 q 792 759 797 757 q 783 751 788 761 l 732 626 q 699 603 722 603 l 626 603 q 594 626 604 603 l 542 751 q 532 760 538 761 q 526 747 526 758 l 526 533 q 501 507 526 507 l 449 507 q 422 533 422 507 l 422 918 q 449 944 422 944 l 539 944 q 558 938 551 944 q 569 922 565 931 l 654 722 q 662 715 657 715 q 671 722 667 714 l 757 922 q 767 938 761 931 q 786 944 774 944 l 876 944 q 903 918 903 944 l 903 533 q 876 507 903 507 l 824 507 m 183 507 q 157 533 157 507 l 157 835 q 147 844 157 844 l 60 844 q 33 871 33 844 l 33 918 q 60 944 33 944 l 358 944 q 376 937 369 944 q 383 918 383 929 l 383 871 q 376 851 383 858 q 358 844 369 844 l 271 844 q 261 835 261 844 l 261 533 q 235 507 261 507 l 183 507 z "},"´":{"ha":639,"x_min":247,"x_max":463,"o":"m 350 735 q 323 719 339 721 q 292 729 307 718 l 264 751 q 248 778 249 763 q 258 810 247 794 l 358 932 q 387 949 371 947 q 417 938 403 950 l 444 917 q 461 888 460 904 q 450 857 463 872 l 350 735 z "},"¨":{"ha":639,"x_min":125,"x_max":507,"o":"m 167 722 q 136 733 147 722 q 125 764 125 744 l 125 833 q 136 864 125 853 q 167 875 147 875 l 215 875 q 246 864 235 875 q 257 833 257 853 l 257 764 q 246 733 257 744 q 215 722 235 722 l 167 722 m 417 722 q 386 733 397 722 q 375 764 375 744 l 375 833 q 386 864 375 853 q 417 875 397 875 l 465 875 q 496 864 485 875 q 507 833 507 853 l 507 764 q 496 733 507 744 q 465 722 485 722 l 417 722 z "},"≤":{"ha":1197,"x_min":28,"x_max":1125,"o":"m 1125 332 q 1092 198 1125 261 q 1002 88 1060 135 q 867 14 944 42 q 699 -14 789 -14 q 575 6 631 -14 q 480 60 519 26 q 419 138 440 93 q 397 231 397 182 q 419 326 397 288 q 475 383 442 364 q 483 395 482 388 q 479 410 483 403 q 415 472 450 449 q 336 496 381 496 q 268 473 296 496 q 240 406 240 450 q 249 366 240 383 q 268 338 257 349 q 279 288 293 314 q 252 259 269 269 q 214 249 235 249 q 184 254 201 249 q 151 274 167 260 q 126 313 136 289 q 115 372 115 336 q 128 438 115 406 q 166 494 142 469 q 224 535 190 519 q 300 550 258 550 q 319 549 310 550 q 335 547 328 549 q 347 551 343 546 q 342 564 350 557 q 218 613 282 606 q 100 621 154 621 q 47 638 67 621 q 28 682 28 654 q 47 730 28 710 q 99 750 65 750 q 199 730 146 750 q 306 670 253 710 q 408 573 358 631 q 496 440 457 515 q 507 432 501 431 q 513 442 513 433 q 526 508 514 475 q 560 566 538 540 q 615 607 582 592 q 692 622 647 622 q 817 572 767 622 q 878 428 867 522 q 918 303 888 342 q 990 264 949 264 q 1031 276 1011 264 q 1051 318 1051 289 q 1031 361 1051 349 q 989 376 1011 374 q 951 397 965 379 q 936 440 936 414 q 956 485 936 468 q 1003 503 976 503 q 1050 490 1028 503 q 1089 453 1072 476 q 1115 399 1106 431 q 1125 332 1125 368 z "},"≥":{"ha":1197,"x_min":56,"x_max":1153,"o":"m 967 249 q 928 259 946 249 q 901 288 911 269 q 913 338 888 314 q 932 366 924 349 q 940 406 940 383 q 913 473 940 450 q 844 496 885 496 q 765 472 800 496 q 701 410 731 449 q 698 395 697 403 q 706 383 699 388 q 761 326 739 364 q 783 231 783 288 q 762 138 783 182 q 701 60 740 93 q 606 6 661 26 q 482 -14 550 -14 q 314 14 392 -14 q 178 88 236 42 q 88 198 121 135 q 56 332 56 261 q 65 399 56 368 q 92 453 75 431 q 131 490 108 476 q 178 503 153 503 q 224 485 204 503 q 244 440 244 468 q 230 397 244 414 q 192 376 215 379 q 149 361 169 374 q 129 318 129 349 q 149 276 129 289 q 190 264 169 264 q 263 303 232 264 q 303 428 293 343 q 364 572 314 522 q 489 622 414 622 q 565 607 532 622 q 621 566 599 592 q 655 508 643 540 q 668 442 667 475 q 674 432 668 433 q 685 440 679 431 q 773 573 724 515 q 875 670 822 631 q 981 730 928 710 q 1082 750 1035 750 q 1134 730 1115 750 q 1153 682 1153 710 q 1133 638 1153 654 q 1081 621 1114 621 q 963 613 1026 621 q 839 564 899 606 q 834 551 831 557 q 846 547 838 546 q 862 549 853 549 q 881 550 871 550 q 956 535 922 550 q 1015 494 990 519 q 1052 438 1039 469 q 1065 372 1065 406 q 1055 313 1065 336 q 1029 274 1044 289 q 997 254 1014 260 q 967 249 979 249 z "},"¥":{"ha":792,"x_min":56,"x_max":732,"o":"m 369 0 q 339 11 350 0 q 328 42 328 22 l 328 211 q 314 225 328 225 l 154 225 q 124 236 135 225 q 113 267 113 247 l 113 301 q 124 332 113 321 q 154 343 135 343 l 314 343 q 328 357 328 343 l 328 432 q 314 446 328 446 l 154 446 q 124 457 135 446 q 113 488 113 468 l 113 522 q 124 553 113 542 q 154 564 135 564 l 235 564 q 249 588 263 564 l 67 903 q 61 933 56 921 q 89 944 67 944 l 143 944 q 208 908 189 944 l 369 614 q 393 594 381 594 q 417 615 406 594 l 579 908 q 644 944 599 944 l 699 944 q 726 933 721 944 q 721 903 732 922 l 540 588 q 554 564 526 564 l 633 564 q 664 553 653 564 q 675 522 675 542 l 675 488 q 664 457 675 468 q 633 446 653 446 l 474 446 q 460 432 460 446 l 460 357 q 474 343 460 343 l 633 343 q 664 332 653 343 q 675 301 675 321 l 675 267 q 664 236 675 247 q 633 225 653 225 l 474 225 q 460 211 460 225 l 460 42 q 449 11 460 22 q 418 0 438 0 l 369 0 z "},"∫":{"ha":792,"x_min":121,"x_max":675,"o":"m 158 -319 q 121 -278 121 -319 l 121 -236 q 134 -204 121 -214 q 167 -194 147 -194 l 185 -194 q 267 -118 260 -194 l 339 708 q 365 801 343 758 q 421 876 386 844 q 501 926 456 908 q 597 944 546 944 l 638 944 q 666 933 657 944 q 675 903 675 922 l 675 861 q 663 831 675 842 q 631 819 650 819 l 592 819 q 507 786 539 819 q 471 708 475 753 l 399 -111 q 376 -197 394 -158 q 328 -263 357 -236 q 260 -305 299 -290 q 178 -319 222 -319 l 158 -319 z "},"ª":{"ha":556,"x_min":74,"x_max":436,"o":"m 235 490 q 124 533 161 490 q 88 635 88 575 q 126 738 88 697 q 240 778 165 778 l 297 778 q 311 792 311 778 l 311 814 q 300 836 311 828 q 261 844 289 844 l 199 844 q 167 856 179 844 q 156 888 156 868 l 156 915 q 167 947 156 935 q 199 958 179 958 l 265 958 q 388 911 340 958 q 436 786 436 864 l 436 533 q 424 502 436 514 q 393 490 413 490 l 235 490 m 115 247 q 85 258 96 247 q 74 289 74 269 l 74 324 q 85 354 74 343 q 115 365 96 365 l 394 365 q 425 354 414 365 q 436 324 436 343 l 436 289 q 425 258 436 269 q 394 247 414 247 l 115 247 m 311 654 q 297 668 311 668 l 244 668 q 219 658 228 668 q 211 635 211 647 q 219 612 211 622 q 244 601 228 601 l 297 601 q 311 615 311 601 l 311 654 z "},"º":{"ha":583,"x_min":81,"x_max":503,"o":"m 475 654 q 425 526 475 576 q 292 475 375 475 q 158 526 208 475 q 108 654 108 576 l 108 779 q 158 908 108 857 q 292 958 208 958 q 425 908 375 958 q 475 779 475 857 l 475 654 m 122 247 q 92 258 103 247 q 81 289 81 269 l 81 324 q 92 354 81 343 q 122 365 103 365 l 461 365 q 492 354 481 365 q 503 324 503 343 l 503 289 q 492 258 503 269 q 461 247 481 247 l 122 247 m 350 786 q 335 828 350 811 q 292 846 319 846 q 249 828 264 846 q 233 786 233 811 l 233 647 q 249 605 233 622 q 292 588 264 588 q 335 605 319 588 q 350 647 350 622 l 350 786 z "},"¡":{"ha":361,"x_min":107,"x_max":276,"o":"m 161 458 q 131 469 142 458 q 119 500 119 481 l 119 583 q 131 614 119 603 q 161 625 142 625 l 224 625 q 254 614 243 625 q 265 583 265 603 l 265 500 q 254 469 265 481 q 224 458 243 458 l 161 458 m 150 -319 q 119 -308 131 -319 q 108 -278 107 -297 l 136 306 q 148 335 138 324 q 178 347 158 347 l 206 347 q 235 336 225 347 q 247 306 246 325 l 275 -278 q 265 -309 276 -299 q 233 -319 253 -319 l 150 -319 z "},"¬":{"ha":792,"x_min":118,"x_max":646,"o":"m 563 189 q 532 200 543 189 q 521 231 521 211 l 521 397 q 507 411 521 411 l 160 411 q 129 422 140 411 q 118 453 118 433 l 118 488 q 129 518 118 507 q 160 529 140 529 l 604 529 q 646 488 646 529 l 646 231 q 635 200 646 211 q 604 189 624 189 l 563 189 z "},"ƒ":{"ha":792,"x_min":121,"x_max":675,"o":"m 158 -319 q 121 -278 121 -319 l 121 -236 q 134 -204 121 -214 q 167 -194 147 -194 l 185 -194 q 243 -171 222 -194 q 267 -111 264 -147 l 303 292 q 290 306 304 306 l 163 306 q 132 317 143 306 q 121 347 121 328 l 121 389 q 132 419 121 408 q 163 431 143 431 l 301 431 q 315 444 314 431 l 339 708 q 365 801 343 758 q 421 876 386 844 q 501 926 456 908 q 597 944 546 944 l 638 944 q 666 933 657 944 q 675 903 675 922 l 675 861 q 663 831 675 842 q 631 819 650 819 l 592 819 q 507 786 539 819 q 471 708 475 753 l 447 444 q 461 431 446 431 l 633 431 q 664 419 653 431 q 675 389 675 408 l 675 347 q 664 317 675 328 q 633 306 653 306 l 450 306 q 435 292 436 306 l 399 -111 q 376 -197 394 -158 q 328 -263 357 -236 q 260 -305 299 -290 q 178 -319 222 -319 l 158 -319 z "},"≈":{"ha":767,"x_min":68,"x_max":832,"o":"m 585 68 q 572 21 585 43 q 535 -18 558 -1 q 481 -44 513 -35 q 414 -54 450 -54 q 285 -24 347 -54 q 174 59 222 6 q 97 187 126 113 q 68 351 68 261 q 89 473 68 419 q 144 563 110 526 q 222 619 178 600 q 313 639 265 639 q 408 617 369 639 q 465 561 446 594 q 477 553 469 554 q 492 557 485 553 q 554 621 531 586 q 578 700 578 656 q 555 768 578 740 q 488 796 532 796 q 448 788 465 796 q 419 768 431 779 q 369 757 396 743 q 341 784 351 767 q 331 822 331 801 q 336 852 331 835 q 356 885 342 869 q 394 910 371 900 q 454 921 418 921 q 519 908 488 921 q 576 870 551 894 q 617 812 601 846 q 632 736 632 778 q 631 717 632 726 q 629 701 631 708 q 633 690 628 693 q 646 694 639 686 q 695 818 688 754 q 703 936 703 882 q 719 989 703 969 q 764 1008 736 1008 q 812 990 792 1008 q 832 938 832 971 q 813 843 832 894 q 754 738 793 792 q 657 634 715 685 q 522 540 599 583 q 514 529 513 535 q 524 524 515 524 q 589 513 557 522 q 647 483 621 503 q 688 433 672 464 q 704 358 704 401 q 649 240 704 283 q 510 186 594 196 q 385 146 424 176 q 346 74 346 115 q 358 36 346 53 q 400 19 371 19 q 443 40 431 19 q 458 82 456 60 q 478 120 461 106 q 522 135 496 135 q 567 115 550 135 q 585 68 585 94 z "},"∆":{"ha":767,"x_min":-54,"x_max":710,"o":"m 364 -54 q 297 -44 328 -54 q 242 -18 265 -35 q 206 21 219 -1 q 193 68 193 43 q 210 115 193 94 q 256 135 228 135 q 299 120 282 135 q 319 82 317 106 q 335 40 322 60 q 378 19 347 19 q 419 36 407 19 q 432 74 432 53 q 393 146 432 115 q 268 186 354 176 q 128 240 183 196 q 74 358 74 283 q 90 433 74 401 q 131 483 106 464 q 189 513 157 503 q 254 524 221 522 q 264 529 263 524 q 256 540 265 535 q 121 634 179 583 q 24 738 63 685 q -35 843 -15 792 q -54 938 -54 894 q -34 990 -54 971 q 14 1008 -14 1008 q 58 989 42 1008 q 75 936 75 969 q 83 818 75 882 q 132 694 90 754 q 144 690 139 686 q 149 701 150 693 q 147 717 147 708 q 146 736 146 726 q 161 812 146 778 q 201 870 176 846 q 258 908 226 894 q 324 921 290 921 q 383 910 360 921 q 422 885 407 900 q 442 852 436 869 q 447 822 447 835 q 437 784 447 801 q 408 757 426 767 q 358 768 382 743 q 330 788 347 779 q 290 796 313 796 q 223 768 246 796 q 200 700 200 740 q 224 621 200 656 q 286 557 247 586 q 301 553 293 553 q 313 561 308 554 q 370 617 332 594 q 465 639 408 639 q 556 619 513 639 q 634 563 600 600 q 689 473 668 526 q 710 351 710 419 q 681 187 710 261 q 603 59 651 113 q 493 -24 556 6 q 364 -54 431 -54 z "},"«":{"ha":653,"x_min":71,"x_max":579,"o":"m 549 179 q 523 162 538 164 q 492 174 508 160 l 363 271 q 347 291 350 281 q 343 319 343 301 l 343 356 q 347 385 343 375 q 363 406 350 396 l 492 503 q 522 513 507 514 q 549 497 538 513 l 568 474 q 578 444 579 458 q 561 418 576 429 l 478 353 q 468 337 468 346 q 479 319 468 328 l 561 258 q 578 232 576 247 q 568 203 579 217 l 549 179 m 276 179 q 219 174 254 147 l 90 271 q 75 291 79 281 q 71 319 71 301 l 71 356 q 75 385 71 375 q 90 406 79 396 l 219 503 q 250 513 235 514 q 276 497 265 513 l 296 474 q 306 444 307 458 q 289 418 304 429 l 207 353 q 197 337 196 346 q 208 319 197 328 l 289 258 q 306 232 304 247 q 296 203 307 217 l 276 179 z "},"»":{"ha":653,"x_min":82,"x_max":590,"o":"m 442 174 q 385 179 407 147 l 365 203 q 356 232 354 217 q 372 258 357 247 l 453 319 q 465 337 464 328 q 454 353 465 346 l 372 418 q 356 444 357 429 q 365 474 354 458 l 385 497 q 411 513 396 513 q 442 503 426 514 l 571 406 q 586 385 582 396 q 590 356 590 375 l 590 319 q 586 291 590 301 q 571 271 582 281 l 442 174 m 169 174 q 138 162 153 160 q 113 179 124 164 l 93 203 q 83 232 82 217 q 100 258 85 247 l 182 319 q 193 337 193 328 q 183 353 193 346 l 100 418 q 83 444 85 429 q 93 474 82 458 l 113 497 q 139 513 124 513 q 169 503 154 514 l 299 406 q 315 385 311 396 q 318 356 318 375 l 318 319 q 315 291 318 301 q 299 271 311 281 l 169 174 z "},"…":{"ha":1021,"x_min":104,"x_max":917,"o":"m 146 0 q 115 11 126 0 q 104 42 104 22 l 104 125 q 115 156 104 144 q 146 167 126 167 l 194 167 q 225 156 214 167 q 236 125 236 144 l 236 42 q 225 11 236 22 q 194 0 214 0 l 146 0 m 486 0 q 456 11 467 0 q 444 42 444 22 l 444 125 q 456 156 444 144 q 486 167 467 167 l 535 167 q 565 156 554 167 q 576 125 576 144 l 576 42 q 565 11 576 22 q 535 0 554 0 l 486 0 m 826 0 q 796 11 807 0 q 785 42 785 22 l 785 125 q 796 156 785 144 q 826 167 807 167 l 875 167 q 906 156 894 167 q 917 125 917 144 l 917 42 q 906 11 917 22 q 875 0 894 0 l 826 0 z "},"–":{"ha":708,"x_min":7,"x_max":632,"o":"m 49 285 q 18 296 29 285 q 7 326 7 307 l 7 361 q 18 392 7 381 q 49 403 29 403 l 590 403 q 621 392 610 403 q 632 361 632 381 l 632 326 q 621 296 632 307 q 590 285 610 285 l 49 285 z "},"—":{"ha":1076,"x_min":7,"x_max":1000,"o":"m 49 285 q 18 296 29 285 q 7 326 7 307 l 7 361 q 18 392 7 381 q 49 403 29 403 l 958 403 q 989 392 978 403 q 1000 361 1000 381 l 1000 326 q 989 296 1000 307 q 958 285 978 285 l 49 285 z "},"“":{"ha":521,"x_min":36,"x_max":488,"o":"m 429 653 q 399 648 414 643 q 374 668 383 653 l 240 863 q 234 895 229 881 q 256 921 239 910 l 297 946 q 330 951 314 956 q 354 932 346 947 l 469 724 q 454 668 488 689 l 429 653 m 236 653 q 206 648 221 643 q 181 668 190 653 l 47 863 q 41 895 36 881 q 63 921 46 910 l 104 946 q 137 951 121 956 q 161 932 153 947 l 276 724 q 261 668 294 689 l 236 653 z "},"”":{"ha":521,"x_min":26,"x_max":478,"o":"m 60 668 q 44 724 26 689 l 160 932 q 184 951 168 947 q 217 946 200 956 l 258 921 q 280 895 275 910 q 274 863 285 881 l 140 668 q 115 648 131 653 q 85 653 100 643 l 60 668 m 253 668 q 238 724 219 689 l 353 932 q 377 951 361 947 q 410 946 393 956 l 451 921 q 473 895 468 910 q 467 863 478 881 l 333 668 q 308 648 324 653 q 278 653 293 643 l 253 668 z "},"‘":{"ha":299,"x_min":31,"x_max":289,"o":"m 231 653 q 200 648 215 643 q 175 668 185 653 l 42 863 q 35 895 31 881 q 57 921 40 910 l 99 946 q 131 951 115 956 q 156 932 147 947 l 271 724 q 256 668 289 689 l 231 653 z "},"’":{"ha":299,"x_min":19,"x_max":278,"o":"m 53 668 q 38 724 19 689 l 153 932 q 177 951 161 947 q 210 946 193 956 l 251 921 q 273 895 268 910 q 267 863 278 881 l 133 668 q 108 648 124 653 q 78 653 93 643 l 53 668 z "},"÷":{"ha":792,"x_min":118,"x_max":674,"o":"m 374 603 q 343 614 354 603 q 332 644 332 625 l 332 728 q 343 758 332 747 q 374 769 354 769 l 422 769 q 453 758 442 769 q 464 728 464 747 l 464 644 q 453 614 464 625 q 422 603 442 603 l 374 603 m 160 400 q 129 411 140 400 q 118 442 118 422 l 118 483 q 129 514 118 503 q 160 525 140 525 l 632 525 q 663 514 651 525 q 674 483 674 503 l 674 442 q 663 411 674 422 q 632 400 651 400 l 160 400 m 374 144 q 343 156 354 144 q 332 186 332 167 l 332 269 q 343 300 332 289 q 374 311 354 311 l 422 311 q 453 300 442 311 q 464 269 464 289 l 464 186 q 453 156 464 167 q 422 144 442 144 l 374 144 z "},"⁄":{"ha":433,"x_min":1,"x_max":424,"o":"m 42 0 q 13 39 1 0 l 285 911 q 332 944 294 944 l 383 944 q 413 906 424 944 l 140 33 q 93 0 131 0 l 42 0 z "},"¤":{"ha":792,"x_min":56,"x_max":736,"o":"m 576 639 q 565 715 576 679 q 531 776 554 750 q 474 818 508 803 q 396 833 440 833 q 317 818 351 833 q 260 776 283 803 q 226 715 238 750 q 215 639 215 679 l 215 306 q 226 230 215 265 q 260 168 238 194 q 317 126 283 142 q 396 111 351 111 q 474 126 440 111 q 531 168 508 142 q 565 230 554 194 q 576 306 576 265 l 576 639 m 668 -44 q 638 -49 653 -53 q 611 -29 622 -46 l 585 15 q 572 28 578 26 q 553 24 565 31 q 481 -4 521 6 q 396 -14 440 -14 q 312 -4 351 -14 q 242 22 272 6 q 210 15 221 33 l 183 -29 q 157 -49 172 -46 q 126 -44 142 -53 l 83 -21 q 63 4 68 -12 q 68 36 58 21 l 111 111 q 119 138 119 126 q 111 163 118 149 q 91 226 99 190 q 83 299 83 263 l 83 646 q 111 782 83 719 q 110 831 122 808 l 65 908 q 60 940 56 924 q 81 965 65 957 l 124 989 q 154 994 139 997 q 181 974 169 990 l 207 929 q 221 916 214 918 q 239 921 228 914 q 311 949 271 939 q 396 958 351 958 q 480 949 440 958 q 550 922 519 939 q 582 929 571 911 l 608 974 q 635 994 619 990 q 665 989 650 997 l 708 965 q 728 940 724 957 q 724 908 733 924 l 681 833 q 673 807 672 818 q 681 782 674 796 q 701 718 693 754 q 708 646 708 682 l 708 299 q 681 163 708 225 q 682 114 669 136 l 726 36 q 731 4 736 21 q 711 -21 726 -12 l 668 -44 z "},"‹":{"ha":375,"x_min":65,"x_max":301,"o":"m 271 179 q 245 162 260 164 q 214 174 231 160 l 85 271 q 69 291 72 281 q 65 319 65 301 l 65 356 q 69 385 65 375 q 85 406 72 396 l 214 503 q 244 513 229 514 q 271 497 260 513 l 290 474 q 300 444 301 458 q 283 418 299 429 l 201 353 q 201 319 178 339 l 283 258 q 300 232 299 247 q 290 203 301 217 l 271 179 z "},"›":{"ha":375,"x_min":76,"x_max":313,"o":"m 164 174 q 133 162 147 160 q 107 179 118 164 l 88 203 q 78 232 76 217 q 94 258 79 247 l 176 319 q 176 353 200 339 l 94 418 q 78 444 79 429 q 88 474 76 458 l 107 497 q 133 513 118 513 q 164 503 149 514 l 293 406 q 309 385 306 396 q 313 356 313 375 l 313 319 q 309 291 313 301 q 293 271 306 281 l 164 174 z "},"‡":{"ha":625,"x_min":63,"x_max":563,"o":"m 289 -319 q 258 -308 269 -319 q 247 -278 247 -297 l 247 -83 q 233 -69 247 -69 l 104 -69 q 74 -58 85 -69 q 63 -28 63 -47 l 63 14 q 74 44 63 33 q 104 56 85 56 l 233 56 q 247 69 247 56 l 247 356 q 233 369 247 369 l 104 369 q 74 381 85 369 q 63 411 63 392 l 63 453 q 74 483 63 472 q 104 494 85 494 l 233 494 q 247 508 247 494 l 247 696 q 258 726 247 715 q 289 738 269 738 l 338 738 q 368 726 357 738 q 379 696 379 715 l 379 508 q 393 494 379 494 l 521 494 q 551 483 540 494 q 563 453 563 472 l 563 411 q 551 381 563 392 q 521 369 540 369 l 393 369 q 379 356 379 369 l 379 69 q 393 56 379 56 l 521 56 q 551 44 540 56 q 563 14 563 33 l 563 -28 q 551 -58 563 -47 q 521 -69 540 -69 l 393 -69 q 379 -83 379 -69 l 379 -278 q 368 -308 379 -297 q 338 -319 357 -319 l 289 -319 z "},"·":{"ha":326,"x_min":97,"x_max":229,"o":"m 139 306 q 108 317 119 306 q 97 347 97 328 l 97 431 q 108 461 97 450 q 139 472 119 472 l 188 472 q 218 461 207 472 q 229 431 229 450 l 229 347 q 218 317 229 328 q 188 306 207 306 l 139 306 z "},"‰":{"ha":1167,"x_min":36,"x_max":1136,"o":"m 257 786 q 242 820 257 807 q 206 833 228 833 q 169 820 183 833 q 154 786 154 807 l 154 675 q 169 641 154 654 q 206 628 183 628 q 242 641 228 628 q 257 675 257 654 l 257 786 m 638 256 q 623 290 638 276 q 586 303 608 303 q 549 290 564 303 q 535 256 535 276 l 535 144 q 549 110 535 124 q 586 97 564 97 q 623 110 608 97 q 638 144 638 124 l 638 256 m 1018 256 q 1003 290 1018 276 q 967 303 989 303 q 930 290 944 303 q 915 256 915 276 l 915 144 q 930 110 915 124 q 967 97 944 97 q 1003 110 989 97 q 1018 144 1018 124 l 1018 256 m 110 0 q 82 10 90 0 q 85 39 74 21 l 521 806 q 524 826 528 817 q 507 835 519 835 l 397 835 q 375 813 375 835 l 375 682 q 328 564 375 611 q 206 517 282 517 q 83 564 129 517 q 36 682 36 611 l 36 779 q 50 844 36 814 q 87 897 64 875 q 140 932 110 919 q 206 944 171 944 l 686 944 q 718 931 708 944 q 715 894 728 917 l 226 33 q 168 0 207 0 l 110 0 m 756 151 q 709 33 756 81 q 586 -14 663 -14 q 463 33 510 -14 q 417 151 417 81 l 417 249 q 463 367 417 319 q 586 414 510 414 q 709 367 663 414 q 756 249 756 319 l 756 151 m 1136 151 q 1090 33 1136 81 q 967 -14 1043 -14 q 844 33 890 -14 q 797 151 797 81 l 797 249 q 844 367 797 319 q 967 414 890 414 q 1090 367 1043 414 q 1136 249 1136 319 l 1136 151 z "},"ı":{"ha":319,"x_min":97,"x_max":222,"o":"m 139 0 q 108 11 119 0 q 97 42 97 22 l 97 583 q 108 614 97 603 q 139 625 119 625 l 181 625 q 211 614 200 625 q 222 583 222 603 l 222 42 q 211 11 222 22 q 181 0 200 0 l 139 0 z "},"ˆ":{"ha":639,"x_min":156,"x_max":479,"o":"m 444 746 q 415 737 431 735 q 389 751 400 739 l 340 807 q 320 817 333 815 q 297 807 307 818 l 246 751 q 190 744 219 719 l 171 760 q 156 787 157 771 q 167 818 156 803 l 250 919 q 274 938 261 935 q 306 940 288 940 l 329 940 q 360 938 347 940 q 385 919 374 935 l 468 818 q 478 787 479 803 q 464 760 478 771 l 444 746 z "},"˜":{"ha":639,"x_min":125,"x_max":525,"o":"m 511 849 q 524 818 525 835 q 513 786 524 801 q 460 742 492 760 q 389 724 428 724 q 347 730 364 724 q 315 744 329 736 q 288 758 301 751 q 260 764 275 764 q 237 758 249 764 q 218 744 225 751 q 188 731 201 728 q 160 749 175 733 l 139 769 q 126 801 125 783 q 139 835 126 819 q 188 872 157 854 q 256 890 218 890 q 298 883 281 890 q 329 868 315 876 q 356 853 343 860 q 385 846 369 846 q 408 853 394 846 q 429 868 422 860 q 490 869 460 900 l 511 849 z "},"¯":{"ha":639,"x_min":174,"x_max":465,"o":"m 215 757 q 185 768 196 757 q 174 799 174 779 l 174 833 q 185 864 174 853 q 215 875 196 875 l 424 875 q 454 864 443 875 q 465 833 465 853 l 465 799 q 454 768 465 779 q 424 757 443 757 l 215 757 z "},"˘":{"ha":639,"x_min":178,"x_max":463,"o":"m 463 846 q 424 747 463 786 q 319 707 385 707 q 217 746 256 707 q 178 846 178 785 l 178 861 q 189 892 178 881 q 219 903 200 903 l 247 903 q 278 892 267 903 q 289 861 289 881 l 289 846 q 297 823 289 832 q 319 814 304 814 q 343 823 335 814 q 351 846 351 832 l 351 861 q 363 892 351 881 q 393 903 374 903 l 421 903 q 451 892 440 903 q 463 861 463 881 l 463 846 z "},"˙":{"ha":319,"x_min":97,"x_max":222,"o":"m 139 722 q 108 733 119 722 q 97 764 97 744 l 97 833 q 108 864 97 853 q 139 875 119 875 l 181 875 q 211 864 200 875 q 222 833 222 853 l 222 764 q 211 733 222 744 q 181 722 200 722 l 139 722 z "},"˚":{"ha":611,"x_min":182,"x_max":449,"o":"m 449 815 q 410 722 449 758 q 315 686 372 686 q 220 722 258 686 q 182 815 182 758 q 220 908 182 872 q 315 944 258 944 q 410 908 372 944 q 449 815 449 872 m 315 751 q 358 770 342 751 q 375 815 375 789 q 358 860 375 842 q 315 879 342 879 q 272 860 289 879 q 256 815 256 842 q 272 770 256 789 q 315 751 289 751 z "},"¸":{"ha":583,"x_min":201,"x_max":435,"o":"m 240 -319 q 201 -281 201 -319 l 201 -264 q 240 -225 201 -225 l 299 -225 q 323 -214 313 -225 q 333 -187 333 -203 q 323 -160 333 -172 q 299 -149 313 -149 l 240 -149 q 201 -110 201 -149 l 201 -93 q 240 -54 201 -54 l 286 -54 q 342 -63 315 -54 q 390 -89 369 -72 q 423 -131 411 -106 q 435 -187 435 -156 q 391 -285 435 -251 q 286 -319 347 -319 l 240 -319 z "},"˝":{"ha":639,"x_min":189,"x_max":617,"o":"m 292 743 q 265 728 281 729 q 233 738 249 726 l 206 760 q 190 787 190 771 q 200 818 189 803 l 300 940 q 328 957 313 956 q 358 946 344 958 l 386 925 q 403 897 401 913 q 392 865 404 881 l 292 743 m 504 735 q 477 719 493 721 q 446 729 461 718 l 418 751 q 402 778 403 763 q 413 810 401 794 l 513 932 q 541 949 525 947 q 571 938 557 950 l 599 917 q 615 888 614 904 q 604 857 617 872 l 504 735 z "},"˛":{"ha":611,"x_min":271,"x_max":504,"o":"m 419 -167 q 315 -133 358 -167 q 271 -35 271 -99 q 283 22 271 -3 q 315 64 294 47 q 363 90 336 81 q 419 99 390 99 l 414 99 q 453 60 453 99 l 453 39 q 414 0 453 0 q 390 -10 400 0 q 379 -35 379 -19 q 390 -59 379 -50 q 414 -68 400 -68 l 465 -68 q 504 -107 504 -68 l 504 -128 q 465 -167 504 -167 l 419 -167 z "},"ˇ":{"ha":500,"x_min":100,"x_max":424,"o":"m 329 750 q 305 732 318 735 q 274 729 292 729 l 250 729 q 219 732 232 729 q 194 750 206 735 l 111 851 q 101 883 100 867 q 115 910 101 899 l 135 924 q 164 933 149 935 q 190 918 179 931 l 239 863 q 259 853 246 854 q 282 863 272 851 l 333 918 q 389 925 360 950 l 408 910 q 423 883 422 899 q 413 851 424 867 l 329 750 z "},"€":{"ha":792,"x_min":28,"x_max":722,"o":"m 708 153 q 721 122 722 139 q 708 94 719 106 q 604 18 664 50 q 450 -14 544 -14 q 324 11 382 -14 q 223 81 265 36 q 156 187 181 125 q 132 322 132 249 q 119 335 132 335 l 68 335 q 38 346 49 335 q 28 375 28 357 l 28 407 q 68 447 28 447 l 119 447 q 132 460 132 447 l 132 486 q 119 500 132 500 l 68 500 q 28 539 28 500 l 28 572 q 38 601 28 590 q 68 613 49 613 l 119 613 q 132 625 132 613 q 156 759 132 697 q 223 865 181 821 q 324 933 265 908 q 450 958 382 958 q 533 949 496 958 q 601 926 571 940 q 655 895 632 913 q 693 863 678 878 q 693 804 722 833 l 661 772 q 635 758 647 758 q 606 772 622 757 q 551 811 588 789 q 450 833 514 833 q 372 817 406 833 q 313 773 338 801 q 276 706 289 744 q 264 625 264 668 q 278 613 264 613 l 468 613 q 498 602 489 613 q 499 572 507 592 l 483 533 q 463 507 475 514 q 432 500 450 500 l 278 500 q 264 486 264 500 l 264 460 q 278 447 264 447 l 406 447 q 439 437 433 447 q 438 407 444 426 l 418 363 q 400 340 411 346 q 369 335 389 335 l 278 335 q 264 322 264 335 q 313 170 264 229 q 450 111 363 111 q 553 134 511 111 q 622 181 596 157 q 651 193 635 192 q 681 181 667 194 l 708 153 z "},"ﬃ":{"ha":1181,"x_min":28,"x_max":1083,"o":"m 1000 0 q 969 11 981 0 q 958 42 958 22 l 958 493 q 944 507 958 507 l 694 507 q 681 493 681 507 l 681 42 q 669 11 681 22 q 639 0 658 0 l 597 0 q 567 11 578 0 q 556 42 556 22 l 556 493 q 542 507 556 507 l 292 507 q 278 493 278 507 l 278 42 q 267 11 278 22 q 236 0 256 0 l 194 0 q 164 11 175 0 q 153 42 153 22 l 153 493 q 139 507 153 507 l 69 507 q 39 518 50 507 q 28 549 28 529 l 28 583 q 39 614 28 603 q 69 625 50 625 l 139 625 q 153 639 153 625 l 153 708 q 168 802 153 758 q 213 877 183 846 q 283 926 242 908 q 376 944 325 944 l 403 944 q 433 933 422 944 q 444 903 444 922 l 444 868 q 433 838 444 849 q 403 826 422 826 l 382 826 q 303 794 329 826 q 278 708 278 763 l 278 639 q 292 625 278 625 l 542 625 q 556 639 556 625 l 556 708 q 571 802 556 758 q 615 877 586 846 q 686 926 644 908 q 779 944 728 944 l 806 944 q 836 933 825 944 q 847 903 847 922 l 847 868 q 836 838 847 849 q 806 826 825 826 l 785 826 q 706 794 732 826 q 681 708 681 763 l 681 639 q 694 625 681 625 l 1042 625 q 1072 614 1061 625 q 1083 583 1083 603 l 1083 42 q 1072 11 1083 22 q 1042 0 1061 0 l 1000 0 m 1000 722 q 969 733 981 722 q 958 764 958 744 l 958 833 q 969 864 958 853 q 1000 875 981 875 l 1042 875 q 1072 864 1061 875 q 1083 833 1083 853 l 1083 764 q 1072 733 1083 744 q 1042 722 1061 722 l 1000 722 z "},"ﬄ":{"ha":1201,"x_min":28,"x_max":1174,"o":"m 1113 0 q 984 49 1024 0 q 944 181 944 97 l 944 493 q 931 507 944 507 l 674 507 q 660 493 660 507 l 660 42 q 649 11 660 22 q 618 0 638 0 l 576 0 q 546 11 557 0 q 535 42 535 22 l 535 493 q 521 507 535 507 l 292 507 q 278 493 278 507 l 278 42 q 267 11 278 22 q 236 0 256 0 l 194 0 q 164 11 175 0 q 153 42 153 22 l 153 493 q 139 507 153 507 l 69 507 q 39 518 50 507 q 28 549 28 529 l 28 583 q 39 614 28 603 q 69 625 50 625 l 139 625 q 153 639 153 625 l 153 708 q 168 802 153 758 q 213 877 183 846 q 283 926 242 908 q 376 944 325 944 l 403 944 q 433 933 422 944 q 444 903 444 922 l 444 868 q 433 838 444 849 q 403 826 422 826 l 382 826 q 303 794 329 826 q 278 708 278 763 l 278 639 q 292 625 278 625 l 521 625 q 535 639 535 625 l 535 708 q 550 802 535 758 q 594 877 565 846 q 665 926 624 908 q 758 944 707 944 l 785 944 q 815 933 804 944 q 826 903 826 922 l 826 868 q 815 838 826 849 q 785 826 804 826 l 764 826 q 685 794 711 826 q 660 708 660 763 l 660 639 q 674 625 660 625 l 931 625 q 944 639 944 625 l 944 903 q 956 933 944 922 q 986 944 967 944 l 1028 944 q 1058 933 1047 944 q 1069 903 1069 922 l 1069 167 q 1082 131 1069 144 q 1118 118 1094 118 l 1132 118 q 1163 107 1151 118 q 1174 76 1174 96 l 1174 42 q 1163 11 1174 22 q 1132 0 1151 0 l 1113 0 z "},"ﬆ":{"ha":938,"x_min":51,"x_max":896,"o":"m 814 0 q 660 57 710 0 q 611 215 611 114 l 611 493 q 597 507 611 507 l 556 507 q 525 518 536 507 q 514 549 514 529 l 514 583 q 525 614 514 603 q 556 625 536 625 l 597 625 q 611 639 611 625 l 611 819 q 597 833 611 833 l 372 833 q 288 809 321 833 q 256 750 256 785 q 277 690 256 715 q 326 643 299 664 q 382 606 354 622 q 422 576 410 590 q 434 547 433 563 q 422 518 435 531 l 397 492 q 372 476 385 479 q 344 486 358 472 q 261 521 307 521 q 202 503 221 521 q 183 456 183 485 q 210 408 183 428 q 276 371 236 389 q 347 335 315 354 q 400 292 378 315 q 435 241 422 269 q 447 175 447 213 q 429 94 447 129 q 381 34 411 58 q 313 -2 351 10 q 236 -14 275 -14 q 131 3 172 -14 q 64 50 89 21 q 52 79 53 63 q 64 108 51 96 l 89 139 q 146 138 113 167 q 183 115 161 125 q 235 104 204 104 q 297 121 272 104 q 322 165 322 138 q 301 211 322 192 q 221 260 279 231 q 154 297 183 278 q 105 340 125 317 q 74 390 85 363 q 63 456 63 418 q 94 557 63 511 q 188 626 125 603 q 190 646 203 633 q 161 688 175 661 q 147 756 147 715 q 165 835 147 800 q 213 894 182 869 q 285 931 243 918 q 379 944 328 944 l 694 944 q 736 903 736 944 l 736 639 q 750 625 736 625 l 854 625 q 885 614 874 625 q 896 583 896 603 l 896 549 q 885 518 896 529 q 854 507 874 507 l 750 507 q 736 493 736 507 l 736 222 q 755 146 736 174 q 826 118 774 118 l 854 118 q 885 107 874 118 q 896 76 896 96 l 896 42 q 885 11 896 22 q 854 0 874 0 l 814 0 z "}," ":{"ha":389,"x_min":0,"x_max":0,"o":""},"ë":{"ha":639,"x_min":69,"x_max":563,"o":"m 535 136 q 547 108 547 124 q 535 79 546 93 q 453 15 507 44 q 324 -14 399 -14 q 219 5 265 -14 q 139 57 172 24 q 88 135 106 90 q 69 229 69 179 l 69 393 q 85 488 69 443 q 133 567 101 533 q 209 619 164 600 q 313 639 254 639 q 417 619 371 639 q 495 567 463 600 q 545 488 528 533 q 563 393 563 443 l 563 310 q 551 279 563 290 q 521 268 540 268 l 208 268 q 194 254 194 268 l 194 229 q 226 140 194 176 q 324 104 257 104 q 406 123 376 104 q 450 158 435 142 q 481 173 465 174 q 508 160 496 172 l 535 136 m 438 393 q 408 483 438 446 q 313 521 379 521 q 221 483 247 521 q 194 393 194 446 l 194 386 q 208 372 194 372 l 424 372 q 438 386 438 372 l 438 393 m 167 722 q 136 733 147 722 q 125 764 125 744 l 125 833 q 136 864 125 853 q 167 875 147 875 l 215 875 q 246 864 235 875 q 257 833 257 853 l 257 764 q 246 733 257 744 q 215 722 235 722 l 167 722 m 417 722 q 386 733 397 722 q 375 764 375 744 l 375 833 q 386 864 375 853 q 417 875 397 875 l 465 875 q 496 864 485 875 q 507 833 507 853 l 507 764 q 496 733 507 744 q 465 722 485 722 l 417 722 z "},"ê":{"ha":639,"x_min":69,"x_max":563,"o":"m 535 136 q 547 108 547 124 q 535 79 546 93 q 453 15 507 44 q 324 -14 399 -14 q 219 5 265 -14 q 139 57 172 24 q 88 135 106 90 q 69 229 69 179 l 69 393 q 85 488 69 443 q 133 567 101 533 q 209 619 164 600 q 313 639 254 639 q 417 619 371 639 q 495 567 463 600 q 545 488 528 533 q 563 393 563 443 l 563 310 q 551 279 563 290 q 521 268 540 268 l 208 268 q 194 254 194 268 l 194 229 q 226 140 194 176 q 324 104 257 104 q 406 123 376 104 q 450 158 435 142 q 481 173 465 174 q 508 160 496 172 l 535 136 m 438 393 q 408 483 438 446 q 313 521 379 521 q 221 483 247 521 q 194 393 194 446 l 194 386 q 208 372 194 372 l 424 372 q 438 386 438 372 l 438 393 m 446 746 q 417 737 432 735 q 390 751 401 739 l 342 807 q 322 817 335 815 q 299 807 308 818 l 247 751 q 192 744 221 719 l 172 760 q 158 787 158 771 q 168 818 157 803 l 251 919 q 276 938 263 935 q 307 940 289 940 l 331 940 q 362 938 349 940 q 386 919 375 935 l 469 818 q 480 787 481 803 q 465 760 479 771 l 446 746 z "},"è":{"ha":639,"x_min":69,"x_max":563,"o":"m 535 136 q 547 108 547 124 q 535 79 546 93 q 453 15 507 44 q 324 -14 399 -14 q 219 5 265 -14 q 139 57 172 24 q 88 135 106 90 q 69 229 69 179 l 69 393 q 85 488 69 443 q 133 567 101 533 q 209 619 164 600 q 313 639 254 639 q 417 619 371 639 q 495 567 463 600 q 545 488 528 533 q 563 393 563 443 l 563 310 q 551 279 563 290 q 521 268 540 268 l 208 268 q 194 254 194 268 l 194 229 q 226 140 194 176 q 324 104 257 104 q 406 123 376 104 q 450 158 435 142 q 481 173 465 174 q 508 160 496 172 l 535 136 m 438 393 q 408 483 438 446 q 313 521 379 521 q 221 483 247 521 q 194 393 194 446 l 194 386 q 208 372 194 372 l 424 372 q 438 386 438 372 l 438 393 m 358 729 q 327 719 343 718 q 300 735 311 721 l 200 857 q 189 888 188 872 q 206 917 190 904 l 233 938 q 263 949 247 950 q 292 932 279 947 l 392 810 q 402 778 403 794 q 386 751 401 763 l 358 729 z "},"é":{"ha":639,"x_min":69,"x_max":563,"o":"m 535 136 q 547 108 547 124 q 535 79 546 93 q 453 15 507 44 q 324 -14 399 -14 q 219 5 265 -14 q 139 57 172 24 q 88 135 106 90 q 69 229 69 179 l 69 393 q 85 488 69 443 q 133 567 101 533 q 209 619 164 600 q 313 639 254 639 q 417 619 371 639 q 495 567 463 600 q 545 488 528 533 q 563 393 563 443 l 563 310 q 551 279 563 290 q 521 268 540 268 l 208 268 q 194 254 194 268 l 194 229 q 226 140 194 176 q 324 104 257 104 q 406 123 376 104 q 450 158 435 142 q 481 173 465 174 q 508 160 496 172 l 535 136 m 438 393 q 408 483 438 446 q 313 521 379 521 q 221 483 247 521 q 194 393 194 446 l 194 386 q 208 372 194 372 l 424 372 q 438 386 438 372 l 438 393 m 343 735 q 316 719 332 721 q 285 729 300 718 l 257 751 q 241 778 242 763 q 251 810 240 794 l 351 932 q 380 949 364 947 q 410 938 396 950 l 438 917 q 454 888 453 904 q 443 857 456 872 l 343 735 z "},"ç":{"ha":564,"x_min":69,"x_max":519,"o":"m 507 124 q 518 96 519 111 q 506 67 517 81 q 433 13 482 39 q 319 -14 383 -14 q 212 6 258 -14 q 133 60 165 26 q 85 140 101 94 q 69 236 69 186 l 69 389 q 87 485 69 439 q 137 565 104 531 q 215 619 169 599 q 319 639 261 639 q 421 619 376 639 q 494 569 465 599 q 507 540 507 557 q 494 511 507 524 l 468 485 q 411 486 442 458 q 372 510 396 500 q 319 521 347 521 q 224 481 253 521 q 194 389 194 442 l 194 236 q 201 185 194 210 q 222 143 207 161 q 260 115 236 125 q 319 104 283 104 q 382 119 356 104 q 424 149 408 135 q 482 149 456 175 l 507 124 m 207 -319 q 168 -281 168 -319 l 168 -264 q 207 -225 168 -225 l 265 -225 q 290 -214 279 -225 q 300 -187 300 -203 q 290 -160 300 -172 q 265 -149 279 -149 l 207 -149 q 168 -110 168 -149 l 168 -93 q 207 -54 168 -54 l 253 -54 q 309 -63 282 -54 q 357 -89 336 -72 q 390 -131 378 -106 q 401 -187 401 -156 q 358 -285 401 -251 q 253 -319 314 -319 l 207 -319 z "},"¿":{"ha":556,"x_min":32,"x_max":532,"o":"m 360 458 q 329 469 340 458 q 318 500 318 481 l 318 583 q 329 614 318 603 q 360 625 340 625 l 408 625 q 439 614 428 625 q 450 583 450 603 l 450 500 q 439 469 450 481 q 408 458 428 458 l 360 458 m 310 -319 q 203 -301 253 -319 q 115 -250 153 -283 q 54 -169 76 -217 q 32 -61 32 -121 q 54 47 32 -1 q 114 129 76 94 q 201 183 151 164 q 304 201 250 201 q 318 215 318 201 l 318 306 q 329 336 318 325 q 360 347 340 347 l 408 347 q 439 336 428 347 q 450 306 450 325 l 450 125 q 439 94 450 106 q 408 83 428 83 l 296 83 q 195 43 233 83 q 157 -58 157 3 q 169 -114 157 -89 q 200 -157 181 -139 q 244 -185 219 -175 q 296 -194 269 -194 l 490 -194 q 521 -206 510 -194 q 532 -236 532 -217 l 532 -278 q 521 -308 532 -297 q 490 -319 510 -319 l 310 -319 z "},"ý":{"ha":653,"x_min":83,"x_max":583,"o":"m 458 -14 q 444 0 458 0 l 315 0 q 221 17 264 0 q 147 65 178 35 q 100 138 117 96 q 83 231 83 181 l 83 583 q 94 614 83 603 q 125 625 106 625 l 167 625 q 197 614 186 625 q 208 583 208 603 l 208 231 q 238 148 208 178 q 321 118 268 118 l 444 118 q 458 132 458 118 l 458 583 q 469 614 458 603 q 500 625 481 625 l 542 625 q 572 614 561 625 q 583 583 583 603 l 583 -74 q 565 -174 583 -126 q 514 -256 547 -221 q 433 -312 481 -292 q 326 -333 386 -333 q 208 -319 256 -333 q 125 -281 161 -304 q 105 -256 110 -271 q 108 -225 100 -240 l 125 -193 q 179 -176 143 -158 q 243 -204 208 -193 q 326 -215 278 -215 q 428 -177 397 -215 q 458 -74 458 -139 l 458 -14 m 350 735 q 323 719 339 721 q 292 729 307 718 l 264 751 q 248 778 249 763 q 258 810 247 794 l 358 932 q 387 949 371 947 q 417 938 403 950 l 444 917 q 461 888 460 904 q 450 857 463 872 l 350 735 z "},"ÿ":{"ha":653,"x_min":83,"x_max":583,"o":"m 458 -14 q 444 0 458 0 l 315 0 q 221 17 264 0 q 147 65 178 35 q 100 138 117 96 q 83 231 83 181 l 83 583 q 94 614 83 603 q 125 625 106 625 l 167 625 q 197 614 186 625 q 208 583 208 603 l 208 231 q 238 148 208 178 q 321 118 268 118 l 444 118 q 458 132 458 118 l 458 583 q 469 614 458 603 q 500 625 481 625 l 542 625 q 572 614 561 625 q 583 583 583 603 l 583 -74 q 565 -174 583 -126 q 514 -256 547 -221 q 433 -312 481 -292 q 326 -333 386 -333 q 208 -319 256 -333 q 125 -281 161 -304 q 105 -256 110 -271 q 108 -225 100 -240 l 125 -193 q 179 -176 143 -158 q 243 -204 208 -193 q 326 -215 278 -215 q 428 -177 397 -215 q 458 -74 458 -139 l 458 -14 m 174 722 q 143 733 154 722 q 132 764 132 744 l 132 833 q 143 864 132 853 q 174 875 154 875 l 222 875 q 253 864 242 875 q 264 833 264 853 l 264 764 q 253 733 264 744 q 222 722 242 722 l 174 722 m 424 722 q 393 733 404 722 q 382 764 382 744 l 382 833 q 393 864 382 853 q 424 875 404 875 l 472 875 q 503 864 492 875 q 514 833 514 853 l 514 764 q 503 733 514 744 q 472 722 492 722 l 424 722 z "},":":{"ha":326,"x_min":97,"x_max":229,"o":"m 139 0 q 108 11 119 0 q 97 42 97 22 l 97 125 q 108 156 97 144 q 139 167 119 167 l 188 167 q 218 156 207 167 q 229 125 229 144 l 229 42 q 218 11 229 22 q 188 0 207 0 l 139 0 m 139 458 q 108 469 119 458 q 97 500 97 481 l 97 583 q 108 614 97 603 q 139 625 119 625 l 188 625 q 218 614 207 625 q 229 583 229 603 l 229 500 q 218 469 229 481 q 188 458 207 458 l 139 458 z "},"ﬁ":{"ha":778,"x_min":28,"x_max":681,"o":"m 597 722 q 567 733 578 722 q 556 764 556 744 l 556 833 q 567 864 556 853 q 597 875 578 875 l 639 875 q 669 864 658 875 q 681 833 681 853 l 681 764 q 669 733 681 744 q 639 722 658 722 l 597 722 m 597 0 q 567 11 578 0 q 556 42 556 22 l 556 493 q 542 507 556 507 l 292 507 q 278 493 278 507 l 278 42 q 267 11 278 22 q 236 0 256 0 l 194 0 q 164 11 175 0 q 153 42 153 22 l 153 493 q 139 507 153 507 l 69 507 q 39 518 50 507 q 28 549 28 529 l 28 583 q 39 614 28 603 q 69 625 50 625 l 139 625 q 153 639 153 625 l 153 708 q 168 802 153 758 q 213 877 183 846 q 283 926 242 908 q 376 944 325 944 l 403 944 q 433 933 422 944 q 444 903 444 922 l 444 868 q 433 838 444 849 q 403 826 422 826 l 382 826 q 303 794 329 826 q 278 708 278 763 l 278 639 q 292 625 278 625 l 639 625 q 669 614 658 625 q 681 583 681 603 l 681 42 q 669 11 681 22 q 639 0 658 0 l 597 0 z "},"ﬂ":{"ha":813,"x_min":28,"x_max":785,"o":"m 724 0 q 595 49 635 0 q 556 181 556 97 l 556 493 q 542 507 556 507 l 292 507 q 278 493 278 507 l 278 42 q 267 11 278 22 q 236 0 256 0 l 194 0 q 164 11 175 0 q 153 42 153 22 l 153 493 q 139 507 153 507 l 69 507 q 39 518 50 507 q 28 549 28 529 l 28 583 q 39 614 28 603 q 69 625 50 625 l 139 625 q 153 639 153 625 l 153 708 q 168 802 153 758 q 213 877 183 846 q 283 926 242 908 q 376 944 325 944 l 403 944 q 433 933 422 944 q 444 903 444 922 l 444 868 q 433 838 444 849 q 403 826 422 826 l 382 826 q 303 794 329 826 q 278 708 278 763 l 278 639 q 292 625 278 625 l 542 625 q 556 639 556 625 l 556 903 q 567 933 556 922 q 597 944 578 944 l 639 944 q 669 933 658 944 q 681 903 681 922 l 681 167 q 693 131 681 144 q 729 118 706 118 l 743 118 q 774 107 763 118 q 785 76 785 96 l 785 42 q 774 11 785 22 q 743 0 763 0 l 724 0 z "},"D":{"ha":806,"x_min":97,"x_max":722,"o":"m 139 0 q 108 11 119 0 q 97 42 97 22 l 97 903 q 108 933 97 922 q 139 944 119 944 l 382 944 q 522 919 458 944 q 629 849 585 893 q 698 743 674 804 q 722 611 722 682 l 722 333 q 698 201 722 263 q 629 96 674 140 q 522 26 585 51 q 382 0 458 0 l 139 0 m 590 611 q 575 699 590 660 q 532 765 560 738 q 466 806 504 792 q 382 819 428 819 l 243 819 q 229 806 229 819 l 229 139 q 243 125 229 125 l 382 125 q 466 139 428 125 q 532 179 504 153 q 575 244 560 206 q 590 333 590 283 l 590 611 z "},"m":{"ha":1000,"x_min":83,"x_max":917,"o":"m 833 0 q 803 11 814 0 q 792 42 792 22 l 792 403 q 785 446 792 425 q 764 483 778 467 q 728 510 750 500 q 676 521 707 521 q 624 510 646 521 q 589 483 603 500 q 569 446 575 467 q 563 403 563 425 l 563 42 q 551 11 563 22 q 521 0 540 0 l 479 0 q 449 11 460 0 q 438 42 438 22 l 438 403 q 431 446 438 425 q 410 483 424 467 q 374 510 396 500 q 324 521 353 521 q 272 510 294 521 q 236 483 250 500 q 215 446 222 467 q 208 403 208 425 l 208 42 q 197 11 208 22 q 167 0 186 0 l 125 0 q 94 11 106 0 q 83 42 83 22 l 83 403 q 101 497 83 453 q 149 572 118 540 q 225 621 181 603 q 324 639 269 639 q 417 619 376 639 q 486 576 458 600 q 513 576 500 564 q 580 621 539 603 q 676 639 621 639 q 775 621 731 639 q 851 572 819 603 q 899 497 882 540 q 917 403 917 453 l 917 42 q 906 11 917 22 q 875 0 894 0 l 833 0 z "},"ñ":{"ha":681,"x_min":83,"x_max":597,"o":"m 514 0 q 483 11 494 0 q 472 42 472 22 l 472 389 q 440 481 472 442 q 340 521 407 521 q 241 481 274 521 q 208 389 208 442 l 208 42 q 197 11 208 22 q 167 0 186 0 l 125 0 q 94 11 106 0 q 83 42 83 22 l 83 389 q 102 485 83 439 q 154 565 121 531 q 235 619 188 599 q 340 639 282 639 q 446 619 399 639 q 526 565 493 599 q 578 485 560 531 q 597 389 597 439 l 597 42 q 586 11 597 22 q 556 0 575 0 l 514 0 m 526 849 q 540 818 540 835 q 528 786 539 801 q 475 742 507 760 q 404 724 443 724 q 362 730 379 724 q 331 744 344 736 q 303 758 317 751 q 275 764 290 764 q 252 758 264 764 q 233 744 240 751 q 203 731 217 728 q 175 749 190 733 l 154 769 q 141 801 140 783 q 154 835 142 819 q 203 872 172 854 q 271 890 233 890 q 313 883 296 890 q 344 868 331 876 q 372 853 358 860 q 400 846 385 846 q 424 853 410 846 q 444 868 438 860 q 506 869 475 900 l 526 849 z "},"ú":{"ha":674,"x_min":83,"x_max":590,"o":"m 465 583 q 476 614 465 603 q 507 625 488 625 l 549 625 q 579 614 568 625 q 590 583 590 603 l 590 236 q 572 140 590 186 q 522 60 554 94 q 442 6 489 26 q 338 -14 396 -14 q 233 6 279 -14 q 153 60 186 26 q 101 140 119 94 q 83 236 83 186 l 83 583 q 94 614 83 603 q 125 625 106 625 l 167 625 q 197 614 186 625 q 208 583 208 603 l 208 236 q 240 144 208 183 q 338 104 271 104 q 435 144 404 104 q 465 236 465 183 l 465 583 m 372 735 q 345 719 361 721 q 314 729 329 718 l 286 751 q 270 778 271 763 q 281 810 269 794 l 381 932 q 409 949 393 947 q 439 938 425 950 l 467 917 q 483 888 482 904 q 472 857 485 872 l 372 735 z "},"ù":{"ha":674,"x_min":83,"x_max":590,"o":"m 465 583 q 476 614 465 603 q 507 625 488 625 l 549 625 q 579 614 568 625 q 590 583 590 603 l 590 236 q 572 140 590 186 q 522 60 554 94 q 442 6 489 26 q 338 -14 396 -14 q 233 6 279 -14 q 153 60 186 26 q 101 140 119 94 q 83 236 83 186 l 83 583 q 94 614 83 603 q 125 625 106 625 l 167 625 q 197 614 186 625 q 208 583 208 603 l 208 236 q 240 144 208 183 q 338 104 271 104 q 435 144 404 104 q 465 236 465 183 l 465 583 m 401 729 q 370 719 386 718 q 343 735 354 721 l 243 857 q 232 888 231 872 q 249 917 233 904 l 276 938 q 306 949 290 950 q 335 932 322 947 l 435 810 q 445 778 446 794 q 429 751 444 763 l 401 729 z "},"û":{"ha":674,"x_min":83,"x_max":590,"o":"m 465 583 q 476 614 465 603 q 507 625 488 625 l 549 625 q 579 614 568 625 q 590 583 590 603 l 590 236 q 572 140 590 186 q 522 60 554 94 q 442 6 489 26 q 338 -14 396 -14 q 233 6 279 -14 q 153 60 186 26 q 101 140 119 94 q 83 236 83 186 l 83 583 q 94 614 83 603 q 125 625 106 625 l 167 625 q 197 614 186 625 q 208 583 208 603 l 208 236 q 240 144 208 183 q 338 104 271 104 q 435 144 404 104 q 465 236 465 183 l 465 583 m 464 746 q 435 737 450 735 q 408 751 419 739 l 360 807 q 340 817 353 815 q 317 807 326 818 l 265 751 q 210 744 239 719 l 190 760 q 176 787 176 771 q 186 818 175 803 l 269 919 q 294 938 281 935 q 325 940 307 940 l 349 940 q 380 938 367 940 q 404 919 393 935 l 488 818 q 498 787 499 803 q 483 760 497 771 l 464 746 z "},"ü":{"ha":674,"x_min":83,"x_max":590,"o":"m 465 583 q 476 614 465 603 q 507 625 488 625 l 549 625 q 579 614 568 625 q 590 583 590 603 l 590 236 q 572 140 590 186 q 522 60 554 94 q 442 6 489 26 q 338 -14 396 -14 q 233 6 279 -14 q 153 60 186 26 q 101 140 119 94 q 83 236 83 186 l 83 583 q 94 614 83 603 q 125 625 106 625 l 167 625 q 197 614 186 625 q 208 583 208 603 l 208 236 q 240 144 208 183 q 338 104 271 104 q 435 144 404 104 q 465 236 465 183 l 465 583 m 188 722 q 157 733 168 722 q 146 764 146 744 l 146 833 q 157 864 146 853 q 188 875 168 875 l 236 875 q 267 864 256 875 q 278 833 278 853 l 278 764 q 267 733 278 744 q 236 722 256 722 l 188 722 m 438 722 q 407 733 418 722 q 396 764 396 744 l 396 833 q 407 864 396 853 q 438 875 418 875 l 486 875 q 517 864 506 875 q 528 833 528 853 l 528 764 q 517 733 528 744 q 486 722 506 722 l 438 722 z "},"s":{"ha":500,"x_min":51,"x_max":447,"o":"m 89 139 q 146 138 113 167 q 183 115 161 125 q 235 104 204 104 q 297 121 272 104 q 322 165 322 138 q 301 211 322 192 q 221 260 279 231 q 154 297 183 278 q 105 340 125 317 q 74 390 85 363 q 63 456 63 418 q 76 526 63 493 q 116 585 90 560 q 178 624 142 610 q 261 639 215 639 q 360 618 317 639 q 422 576 403 597 q 434 547 433 563 q 422 518 435 531 l 397 492 q 372 476 385 479 q 344 486 358 472 q 261 521 307 521 q 202 503 221 521 q 183 456 183 485 q 210 408 183 428 q 276 371 236 389 q 347 335 315 354 q 400 292 378 315 q 435 241 422 269 q 447 175 447 213 q 429 94 447 129 q 381 34 411 58 q 313 -2 351 10 q 236 -14 275 -14 q 131 3 172 -14 q 64 50 89 21 q 52 79 53 63 q 64 108 51 96 l 89 139 z "},"š":{"ha":500,"x_min":51,"x_max":447,"o":"m 89 139 q 146 138 113 167 q 183 115 161 125 q 235 104 204 104 q 297 121 272 104 q 322 165 322 138 q 301 211 322 192 q 221 260 279 231 q 154 297 183 278 q 105 340 125 317 q 74 390 85 363 q 63 456 63 418 q 76 526 63 493 q 116 585 90 560 q 178 624 142 610 q 261 639 215 639 q 360 618 317 639 q 422 576 403 597 q 434 547 433 563 q 422 518 435 531 l 397 492 q 372 476 385 479 q 344 486 358 472 q 261 521 307 521 q 202 503 221 521 q 183 456 183 485 q 210 408 183 428 q 276 371 236 389 q 347 335 315 354 q 400 292 378 315 q 435 241 422 269 q 447 175 447 213 q 429 94 447 129 q 381 34 411 58 q 313 -2 351 10 q 236 -14 275 -14 q 131 3 172 -14 q 64 50 89 21 q 52 79 53 63 q 64 108 51 96 l 89 139 m 328 750 q 303 732 317 735 q 272 729 290 729 l 249 729 q 217 732 231 729 q 193 750 204 735 l 110 851 q 99 883 99 867 q 114 910 100 899 l 133 924 q 163 933 147 935 q 189 918 178 931 l 238 863 q 258 853 244 854 q 281 863 271 851 l 332 918 q 388 925 358 950 l 407 910 q 422 883 421 899 q 411 851 422 867 l 328 750 z "},"∞":{"ha":1215,"x_min":47,"x_max":1168,"o":"m 1158 442 q 1168 418 1168 432 q 1158 393 1168 404 q 1089 342 1135 365 q 996 319 1043 319 q 951 322 972 319 q 914 332 929 325 q 883 334 894 339 q 865 318 872 329 q 830 278 851 297 q 783 242 808 258 q 726 217 757 226 q 664 207 696 207 q 592 216 626 207 q 525 240 557 225 q 463 273 493 254 q 406 310 433 292 q 311 366 357 342 q 219 390 265 390 q 172 381 192 390 q 133 354 153 371 q 113 346 122 343 q 92 360 103 349 l 57 394 q 47 418 47 404 q 57 443 47 432 q 87 470 69 457 q 126 494 104 483 q 172 510 147 504 q 219 517 196 517 q 265 512 243 517 q 307 500 286 507 q 330 497 322 494 q 349 517 338 499 q 429 595 375 561 q 551 629 483 629 q 624 620 589 629 q 690 597 658 611 q 752 563 722 582 q 810 526 782 544 q 904 470 858 494 q 996 446 950 446 q 1042 456 1024 446 q 1081 482 1061 465 q 1102 490 1092 493 q 1124 476 1113 488 l 1158 442 m 761 369 q 767 397 774 385 q 740 421 760 408 q 633 484 679 460 q 550 508 588 508 q 494 497 518 508 q 454 467 469 486 q 468 418 433 440 q 574 356 525 383 q 665 328 624 328 q 722 339 697 328 q 761 369 746 350 z "},"π":{"ha":1235,"x_min":57,"x_max":1178,"o":"m 1168 447 q 1178 424 1178 438 q 1168 399 1178 410 q 1099 348 1144 371 q 1006 325 1053 325 q 937 335 972 325 q 867 362 901 346 q 799 397 832 378 q 736 435 765 417 q 642 487 686 467 q 560 507 597 507 q 485 485 515 507 q 447 431 456 464 q 447 405 443 415 q 463 383 451 394 q 515 333 490 358 q 563 287 539 307 q 609 254 586 267 q 657 242 632 242 q 724 260 697 242 q 768 311 751 279 q 788 328 776 326 q 813 324 800 331 l 856 299 q 870 278 868 292 q 867 253 872 265 q 836 206 857 229 q 787 163 815 182 q 724 133 758 144 q 656 121 690 121 q 582 136 615 121 q 518 175 549 151 q 460 226 488 199 q 408 278 433 253 q 366 315 389 296 q 319 351 343 335 q 273 378 296 368 q 229 389 250 389 q 182 379 201 389 q 143 353 163 369 q 122 344 132 342 q 101 358 113 347 l 67 393 q 57 417 57 403 q 67 442 57 431 q 97 469 79 456 q 135 492 114 482 q 181 509 157 503 q 229 515 206 515 q 274 510 253 515 q 307 499 294 506 q 335 490 326 488 q 354 511 343 492 q 388 554 367 533 q 437 592 410 575 q 496 618 464 608 q 561 628 528 628 q 699 598 636 628 q 819 532 763 568 q 914 476 868 500 q 1006 451 960 451 q 1052 461 1033 451 q 1090 488 1071 471 q 1112 496 1101 499 q 1133 482 1122 493 l 1168 447 z "},"∏":{"ha":1235,"x_min":57,"x_max":1178,"o":"m 1133 358 q 1113 344 1122 347 q 1092 353 1103 342 q 1053 379 1072 369 q 1006 389 1033 389 q 962 378 985 389 q 915 351 939 368 q 869 315 892 335 q 826 278 846 296 q 774 226 801 253 q 717 175 747 199 q 652 136 686 151 q 579 121 618 121 q 510 133 543 121 q 448 163 476 144 q 399 206 419 182 q 368 253 378 229 q 365 278 363 265 q 379 299 367 292 l 422 324 q 447 328 435 331 q 467 311 458 326 q 510 260 483 279 q 578 242 538 242 q 626 254 603 242 q 672 287 649 267 q 720 333 696 307 q 772 383 744 358 q 788 405 783 394 q 788 431 792 415 q 749 485 779 464 q 675 507 719 507 q 593 487 638 507 q 499 435 549 467 q 436 397 469 417 q 368 362 403 378 q 298 335 333 346 q 229 325 263 325 q 181 331 206 325 q 135 348 157 338 q 97 372 114 358 q 67 399 79 385 q 57 424 57 410 q 67 447 57 438 l 101 482 q 144 488 125 506 q 183 461 164 471 q 229 451 201 451 q 321 476 275 451 q 415 532 367 500 q 535 598 472 568 q 674 628 599 628 q 739 618 707 628 q 798 592 771 608 q 847 554 825 575 q 881 511 868 533 q 900 490 892 492 q 928 499 908 488 q 961 510 940 506 q 1006 515 982 515 q 1099 492 1053 515 q 1168 442 1144 469 q 1178 417 1178 431 q 1168 393 1178 403 l 1133 358 z "},"Å":{"ha":806,"x_min":15,"x_max":776,"o":"m 724 0 q 692 -10 710 -11 q 660 0 675 -8 l 256 236 q 238 236 246 242 q 228 222 231 231 l 171 33 q 124 0 161 0 l 56 0 q 26 39 15 0 l 304 907 q 323 937 311 929 q 354 944 335 944 l 451 944 q 483 937 471 944 q 501 907 494 929 l 767 76 q 756 26 776 44 l 724 0 m 417 768 q 403 783 413 783 q 389 768 393 783 l 279 401 q 278 374 274 383 q 292 360 282 365 l 553 207 q 575 205 568 197 q 579 222 582 213 l 417 768 m 536 1135 q 498 1042 536 1078 q 403 1006 460 1006 q 308 1042 346 1006 q 269 1135 269 1078 q 308 1228 269 1192 q 403 1264 346 1264 q 498 1228 460 1264 q 536 1135 536 1192 m 403 1071 q 446 1090 429 1071 q 463 1135 463 1108 q 446 1180 463 1161 q 403 1199 429 1199 q 360 1180 376 1199 q 343 1135 343 1161 q 360 1090 343 1108 q 403 1071 376 1071 z "},"Ä":{"ha":806,"x_min":15,"x_max":776,"o":"m 724 0 q 692 -10 710 -11 q 660 0 675 -8 l 256 236 q 238 236 246 242 q 228 222 231 231 l 171 33 q 124 0 161 0 l 56 0 q 26 39 15 0 l 304 907 q 323 937 311 929 q 354 944 335 944 l 451 944 q 483 937 471 944 q 501 907 494 929 l 767 76 q 756 26 776 44 l 724 0 m 417 768 q 403 783 413 783 q 389 768 393 783 l 279 401 q 278 374 274 383 q 292 360 282 365 l 553 207 q 575 205 568 197 q 579 222 582 213 l 417 768 m 253 1042 q 222 1053 233 1042 q 211 1083 211 1064 l 211 1153 q 222 1183 211 1172 q 253 1194 233 1194 l 301 1194 q 332 1183 321 1194 q 343 1153 343 1172 l 343 1083 q 332 1053 343 1064 q 301 1042 321 1042 l 253 1042 m 503 1042 q 472 1053 483 1042 q 461 1083 461 1064 l 461 1153 q 472 1183 461 1172 q 503 1194 483 1194 l 551 1194 q 582 1183 571 1194 q 593 1153 593 1172 l 593 1083 q 582 1053 593 1064 q 551 1042 571 1042 l 503 1042 z "},"À":{"ha":806,"x_min":15,"x_max":776,"o":"m 724 0 q 692 -10 710 -11 q 660 0 675 -8 l 256 236 q 238 236 246 242 q 228 222 231 231 l 171 33 q 124 0 161 0 l 56 0 q 26 39 15 0 l 304 907 q 323 937 311 929 q 354 944 335 944 l 451 944 q 483 937 471 944 q 501 907 494 929 l 767 76 q 756 26 776 44 l 724 0 m 417 768 q 403 783 413 783 q 389 768 393 783 l 279 401 q 278 374 274 383 q 292 360 282 365 l 553 207 q 575 205 568 197 q 579 222 582 213 l 417 768 m 421 1049 q 390 1039 406 1038 q 363 1054 374 1040 l 263 1176 q 251 1208 250 1192 q 268 1236 253 1224 l 296 1257 q 326 1268 310 1269 q 354 1251 342 1267 l 454 1129 q 465 1098 465 1114 q 449 1071 464 1082 l 421 1049 z "},"Ã":{"ha":806,"x_min":15,"x_max":776,"o":"m 724 0 q 692 -10 710 -11 q 660 0 675 -8 l 256 236 q 238 236 246 242 q 228 222 231 231 l 171 33 q 124 0 161 0 l 56 0 q 26 39 15 0 l 304 907 q 323 937 311 929 q 354 944 335 944 l 451 944 q 483 937 471 944 q 501 907 494 929 l 767 76 q 756 26 776 44 l 724 0 m 417 768 q 403 783 413 783 q 389 768 393 783 l 279 401 q 278 374 274 383 q 292 360 282 365 l 553 207 q 575 205 568 197 q 579 222 582 213 l 417 768 m 589 1168 q 602 1138 603 1154 q 590 1106 601 1121 q 538 1061 569 1079 q 467 1043 506 1043 q 424 1049 442 1043 q 393 1063 407 1056 q 366 1077 379 1071 q 338 1083 353 1083 q 315 1077 326 1083 q 296 1064 303 1071 q 266 1050 279 1047 q 238 1068 253 1053 l 217 1089 q 203 1121 203 1103 q 217 1154 204 1139 q 265 1192 235 1174 q 333 1210 296 1210 q 376 1203 358 1210 q 407 1188 393 1196 q 434 1172 421 1179 q 463 1165 447 1165 q 486 1172 472 1165 q 507 1188 500 1179 q 568 1189 538 1219 l 589 1168 z "},"Â":{"ha":806,"x_min":15,"x_max":776,"o":"m 724 0 q 692 -10 710 -11 q 660 0 675 -8 l 256 236 q 238 236 246 242 q 228 222 231 231 l 171 33 q 124 0 161 0 l 56 0 q 26 39 15 0 l 304 907 q 323 937 311 929 q 354 944 335 944 l 451 944 q 483 937 471 944 q 501 907 494 929 l 767 76 q 756 26 776 44 l 724 0 m 417 768 q 403 783 413 783 q 389 768 393 783 l 279 401 q 278 374 274 383 q 292 360 282 365 l 553 207 q 575 205 568 197 q 579 222 582 213 l 417 768 m 529 1065 q 500 1056 515 1054 q 474 1071 485 1058 l 425 1126 q 405 1136 418 1135 q 382 1126 392 1138 l 331 1071 q 275 1064 304 1039 l 256 1079 q 241 1106 242 1090 q 251 1138 240 1122 l 335 1239 q 359 1257 346 1254 q 390 1260 372 1260 l 414 1260 q 445 1257 432 1260 q 469 1239 458 1254 l 553 1138 q 563 1106 564 1122 q 549 1079 563 1090 l 529 1065 z "},"Á":{"ha":806,"x_min":15,"x_max":776,"o":"m 724 0 q 692 -10 710 -11 q 660 0 675 -8 l 256 236 q 238 236 246 242 q 228 222 231 231 l 171 33 q 124 0 161 0 l 56 0 q 26 39 15 0 l 304 907 q 323 937 311 929 q 354 944 335 944 l 451 944 q 483 937 471 944 q 501 907 494 929 l 767 76 q 756 26 776 44 l 724 0 m 417 768 q 403 783 413 783 q 389 768 393 783 l 279 401 q 278 374 274 383 q 292 360 282 365 l 553 207 q 575 205 568 197 q 579 222 582 213 l 417 768 m 472 1054 q 445 1039 461 1040 q 414 1049 429 1038 l 386 1071 q 370 1098 371 1082 q 381 1129 369 1114 l 481 1251 q 509 1268 493 1267 q 539 1257 525 1269 l 567 1236 q 583 1208 582 1224 q 572 1176 585 1192 l 472 1054 z "},"Ý":{"ha":736,"x_min":56,"x_max":681,"o":"m 347 0 q 317 11 328 0 q 306 42 306 22 l 306 375 q 286 406 306 399 q 117 519 178 436 q 56 722 56 601 l 56 903 q 67 933 56 922 q 97 944 78 944 l 146 944 q 176 933 165 944 q 188 903 188 922 l 188 722 q 198 644 188 681 q 231 580 208 607 q 287 537 253 553 q 368 521 321 521 q 449 537 415 521 q 506 580 483 553 q 538 644 528 607 q 549 722 549 681 l 549 903 q 560 933 549 922 q 590 944 571 944 l 639 944 q 669 933 658 944 q 681 903 681 922 l 681 722 q 621 519 681 604 q 457 407 561 435 q 442 395 446 404 q 438 375 438 386 l 438 42 q 426 11 438 22 q 396 0 415 0 l 347 0 m 414 1054 q 387 1039 403 1040 q 356 1049 371 1038 l 328 1071 q 312 1098 313 1082 q 322 1129 311 1114 l 422 1251 q 451 1268 435 1267 q 481 1257 467 1269 l 508 1236 q 525 1208 524 1224 q 514 1176 526 1192 l 414 1054 z "},"Ÿ":{"ha":736,"x_min":56,"x_max":681,"o":"m 347 0 q 317 11 328 0 q 306 42 306 22 l 306 375 q 286 406 306 399 q 117 519 178 436 q 56 722 56 601 l 56 903 q 67 933 56 922 q 97 944 78 944 l 146 944 q 176 933 165 944 q 188 903 188 922 l 188 722 q 198 644 188 681 q 231 580 208 607 q 287 537 253 553 q 368 521 321 521 q 449 537 415 521 q 506 580 483 553 q 538 644 528 607 q 549 722 549 681 l 549 903 q 560 933 549 922 q 590 944 571 944 l 639 944 q 669 933 658 944 q 681 903 681 922 l 681 722 q 621 519 681 604 q 457 407 561 435 q 442 395 446 404 q 438 375 438 386 l 438 42 q 426 11 438 22 q 396 0 415 0 l 347 0 m 218 1042 q 188 1053 199 1042 q 176 1083 176 1064 l 176 1153 q 188 1183 176 1172 q 218 1194 199 1194 l 267 1194 q 297 1183 286 1194 q 308 1153 308 1172 l 308 1083 q 297 1053 308 1064 q 267 1042 286 1042 l 218 1042 m 468 1042 q 438 1053 449 1042 q 426 1083 426 1064 l 426 1153 q 438 1183 426 1172 q 468 1194 449 1194 l 517 1194 q 547 1183 536 1194 q 558 1153 558 1172 l 558 1083 q 547 1053 558 1064 q 517 1042 536 1042 l 468 1042 z "},"Ö":{"ha":819,"x_min":83,"x_max":736,"o":"m 736 306 q 712 176 736 235 q 644 75 688 117 q 540 10 600 33 q 410 -14 481 -14 q 279 10 339 -14 q 176 75 219 33 q 108 176 132 117 q 83 306 83 235 l 83 639 q 108 769 83 710 q 176 869 132 828 q 279 935 219 911 q 410 958 339 958 q 540 935 481 958 q 644 869 600 911 q 712 769 688 828 q 736 639 736 710 l 736 306 m 604 639 q 554 778 604 722 q 410 833 504 833 q 265 778 315 833 q 215 639 215 722 l 215 306 q 265 167 215 222 q 410 111 315 111 q 554 167 504 111 q 604 306 604 222 l 604 639 m 260 1042 q 229 1053 240 1042 q 218 1083 218 1064 l 218 1153 q 229 1183 218 1172 q 260 1194 240 1194 l 308 1194 q 339 1183 328 1194 q 350 1153 350 1172 l 350 1083 q 339 1053 350 1064 q 308 1042 328 1042 l 260 1042 m 510 1042 q 479 1053 490 1042 q 468 1083 468 1064 l 468 1153 q 479 1183 468 1172 q 510 1194 490 1194 l 558 1194 q 589 1183 578 1194 q 600 1153 600 1172 l 600 1083 q 589 1053 600 1064 q 558 1042 578 1042 l 510 1042 z "},"ó":{"ha":764,"x_min":56,"x_max":708,"o":"m 382 104 q 462 121 425 104 q 526 165 499 138 q 568 231 553 193 q 583 313 583 269 q 568 394 583 356 q 526 460 553 432 q 462 504 499 488 q 382 521 425 521 q 302 504 339 521 q 238 460 265 488 q 196 394 211 432 q 181 313 181 356 q 196 231 181 269 q 238 165 211 193 q 302 121 265 138 q 382 104 339 104 m 382 -14 q 255 12 314 -14 q 151 82 196 38 q 81 185 107 126 q 56 313 56 244 q 81 440 56 381 q 151 543 107 499 q 255 613 196 588 q 382 639 314 639 q 509 613 450 639 q 613 543 568 588 q 683 440 657 499 q 708 313 708 381 q 683 185 708 244 q 613 82 657 126 q 509 12 568 38 q 382 -14 450 -14 m 428 735 q 401 719 417 721 q 369 729 385 718 l 342 751 q 326 778 326 763 q 336 810 325 794 l 436 932 q 465 949 449 947 q 494 938 481 950 l 522 917 q 539 888 538 904 q 528 857 540 872 l 428 735 z "},"ò":{"ha":764,"x_min":56,"x_max":708,"o":"m 382 104 q 462 121 425 104 q 526 165 499 138 q 568 231 553 193 q 583 313 583 269 q 568 394 583 356 q 526 460 553 432 q 462 504 499 488 q 382 521 425 521 q 302 504 339 521 q 238 460 265 488 q 196 394 211 432 q 181 313 181 356 q 196 231 181 269 q 238 165 211 193 q 302 121 265 138 q 382 104 339 104 m 382 -14 q 255 12 314 -14 q 151 82 196 38 q 81 185 107 126 q 56 313 56 244 q 81 440 56 381 q 151 543 107 499 q 255 613 196 588 q 382 639 314 639 q 509 613 450 639 q 613 543 568 588 q 683 440 657 499 q 708 313 708 381 q 683 185 708 244 q 613 82 657 126 q 509 12 568 38 q 382 -14 450 -14 m 417 729 q 385 719 401 718 q 358 735 369 721 l 258 857 q 247 888 246 872 q 264 917 249 904 l 292 938 q 322 949 306 950 q 350 932 338 947 l 450 810 q 460 778 461 794 q 444 751 460 763 l 417 729 z "},"ô":{"ha":764,"x_min":56,"x_max":708,"o":"m 382 104 q 462 121 425 104 q 526 165 499 138 q 568 231 553 193 q 583 313 583 269 q 568 394 583 356 q 526 460 553 432 q 462 504 499 488 q 382 521 425 521 q 302 504 339 521 q 238 460 265 488 q 196 394 211 432 q 181 313 181 356 q 196 231 181 269 q 238 165 211 193 q 302 121 265 138 q 382 104 339 104 m 382 -14 q 255 12 314 -14 q 151 82 196 38 q 81 185 107 126 q 56 313 56 244 q 81 440 56 381 q 151 543 107 499 q 255 613 196 588 q 382 639 314 639 q 509 613 450 639 q 613 543 568 588 q 683 440 657 499 q 708 313 708 381 q 683 185 708 244 q 613 82 657 126 q 509 12 568 38 q 382 -14 450 -14 m 508 746 q 479 737 494 735 q 453 751 464 739 l 404 807 q 384 817 397 815 q 361 807 371 818 l 310 751 q 254 744 283 719 l 235 760 q 220 787 221 771 q 231 818 219 803 l 314 919 q 338 938 325 935 q 369 940 351 940 l 393 940 q 424 938 411 940 q 449 919 438 935 l 532 818 q 542 787 543 803 q 528 760 542 771 l 508 746 z "},"ö":{"ha":764,"x_min":56,"x_max":708,"o":"m 382 104 q 462 121 425 104 q 526 165 499 138 q 568 231 553 193 q 583 313 583 269 q 568 394 583 356 q 526 460 553 432 q 462 504 499 488 q 382 521 425 521 q 302 504 339 521 q 238 460 265 488 q 196 394 211 432 q 181 313 181 356 q 196 231 181 269 q 238 165 211 193 q 302 121 265 138 q 382 104 339 104 m 382 -14 q 255 12 314 -14 q 151 82 196 38 q 81 185 107 126 q 56 313 56 244 q 81 440 56 381 q 151 543 107 499 q 255 613 196 588 q 382 639 314 639 q 509 613 450 639 q 613 543 568 588 q 683 440 657 499 q 708 313 708 381 q 683 185 708 244 q 613 82 657 126 q 509 12 568 38 q 382 -14 450 -14 m 232 722 q 201 733 213 722 q 190 764 190 744 l 190 833 q 201 864 190 853 q 232 875 213 875 l 281 875 q 311 864 300 875 q 322 833 322 853 l 322 764 q 311 733 322 744 q 281 722 300 722 l 232 722 m 482 722 q 451 733 463 722 q 440 764 440 744 l 440 833 q 451 864 440 853 q 482 875 463 875 l 531 875 q 561 864 550 875 q 572 833 572 853 l 572 764 q 561 733 572 744 q 531 722 550 722 l 482 722 z "},"õ":{"ha":764,"x_min":56,"x_max":708,"o":"m 382 104 q 462 121 425 104 q 526 165 499 138 q 568 231 553 193 q 583 313 583 269 q 568 394 583 356 q 526 460 553 432 q 462 504 499 488 q 382 521 425 521 q 302 504 339 521 q 238 460 265 488 q 196 394 211 432 q 181 313 181 356 q 196 231 181 269 q 238 165 211 193 q 302 121 265 138 q 382 104 339 104 m 382 -14 q 255 12 314 -14 q 151 82 196 38 q 81 185 107 126 q 56 313 56 244 q 81 440 56 381 q 151 543 107 499 q 255 613 196 588 q 382 639 314 639 q 509 613 450 639 q 613 543 568 588 q 683 440 657 499 q 708 313 708 381 q 683 185 708 244 q 613 82 657 126 q 509 12 568 38 q 382 -14 450 -14 m 568 849 q 581 818 582 835 q 569 786 581 801 q 517 742 549 760 q 446 724 485 724 q 403 730 421 724 q 372 744 386 736 q 345 758 358 751 q 317 764 332 764 q 294 758 306 764 q 275 744 282 751 q 245 731 258 728 q 217 749 232 733 l 196 769 q 183 801 182 783 q 196 835 183 819 q 244 872 214 854 q 313 890 275 890 q 355 883 338 890 q 386 868 372 876 q 413 853 400 860 q 442 846 426 846 q 465 853 451 846 q 486 868 479 860 q 547 869 517 900 l 568 849 z "},"a":{"ha":681,"x_min":83,"x_max":597,"o":"m 472 493 q 458 507 472 507 l 354 507 q 247 464 285 507 q 208 361 208 421 l 208 224 q 240 138 208 171 q 326 104 271 104 q 391 117 364 104 q 436 153 418 131 q 463 202 454 175 q 472 258 472 229 l 472 493 m 514 0 q 483 13 494 0 q 472 40 472 25 q 466 51 472 49 q 454 46 460 53 q 397 3 435 19 q 304 -14 358 -14 q 215 4 256 -14 q 146 56 175 22 q 100 135 117 89 q 83 238 83 182 l 83 361 q 103 464 83 415 q 158 548 122 513 q 242 604 193 583 q 349 625 290 625 l 556 625 q 586 614 575 625 q 597 583 597 603 l 597 42 q 586 11 597 22 q 556 0 575 0 l 514 0 z "},"å":{"ha":681,"x_min":83,"x_max":597,"o":"m 472 493 q 458 507 472 507 l 354 507 q 247 464 285 507 q 208 361 208 421 l 208 224 q 240 138 208 171 q 326 104 271 104 q 391 117 364 104 q 436 153 418 131 q 463 202 454 175 q 472 258 472 229 l 472 493 m 514 0 q 483 13 494 0 q 472 40 472 25 q 466 51 472 49 q 454 46 460 53 q 397 3 435 19 q 304 -14 358 -14 q 215 4 256 -14 q 146 56 175 22 q 100 135 117 89 q 83 238 83 182 l 83 361 q 103 464 83 415 q 158 548 122 513 q 242 604 193 583 q 349 625 290 625 l 556 625 q 586 614 575 625 q 597 583 597 603 l 597 42 q 586 11 597 22 q 556 0 575 0 l 514 0 m 522 815 q 484 722 522 758 q 389 686 446 686 q 294 722 332 686 q 256 815 256 758 q 294 908 256 872 q 389 944 332 944 q 484 908 446 944 q 522 815 522 872 m 389 751 q 432 770 415 751 q 449 815 449 789 q 432 860 449 842 q 389 879 415 879 q 346 860 363 879 q 329 815 329 842 q 346 770 329 789 q 389 751 363 751 z "},"ã":{"ha":681,"x_min":83,"x_max":597,"o":"m 472 493 q 458 507 472 507 l 354 507 q 247 464 285 507 q 208 361 208 421 l 208 224 q 240 138 208 171 q 326 104 271 104 q 391 117 364 104 q 436 153 418 131 q 463 202 454 175 q 472 258 472 229 l 472 493 m 514 0 q 483 13 494 0 q 472 40 472 25 q 466 51 472 49 q 454 46 460 53 q 397 3 435 19 q 304 -14 358 -14 q 215 4 256 -14 q 146 56 175 22 q 100 135 117 89 q 83 238 83 182 l 83 361 q 103 464 83 415 q 158 548 122 513 q 242 604 193 583 q 349 625 290 625 l 556 625 q 586 614 575 625 q 597 583 597 603 l 597 42 q 586 11 597 22 q 556 0 575 0 l 514 0 m 549 849 q 562 818 563 835 q 550 786 561 801 q 497 742 529 760 q 426 724 465 724 q 384 730 401 724 q 353 744 367 736 q 326 758 339 751 q 297 764 313 764 q 274 758 286 764 q 256 744 263 751 q 226 731 239 728 q 197 749 213 733 l 176 769 q 163 801 163 783 q 176 835 164 819 q 225 872 194 854 q 293 890 256 890 q 335 883 318 890 q 367 868 353 876 q 394 853 381 860 q 422 846 407 846 q 446 853 432 846 q 467 868 460 860 q 528 869 497 900 l 549 849 z "},"ä":{"ha":681,"x_min":83,"x_max":597,"o":"m 472 493 q 458 507 472 507 l 354 507 q 247 464 285 507 q 208 361 208 421 l 208 224 q 240 138 208 171 q 326 104 271 104 q 391 117 364 104 q 436 153 418 131 q 463 202 454 175 q 472 258 472 229 l 472 493 m 514 0 q 483 13 494 0 q 472 40 472 25 q 466 51 472 49 q 454 46 460 53 q 397 3 435 19 q 304 -14 358 -14 q 215 4 256 -14 q 146 56 175 22 q 100 135 117 89 q 83 238 83 182 l 83 361 q 103 464 83 415 q 158 548 122 513 q 242 604 193 583 q 349 625 290 625 l 556 625 q 586 614 575 625 q 597 583 597 603 l 597 42 q 586 11 597 22 q 556 0 575 0 l 514 0 m 231 722 q 200 733 211 722 q 189 764 189 744 l 189 833 q 200 864 189 853 q 231 875 211 875 l 279 875 q 310 864 299 875 q 321 833 321 853 l 321 764 q 310 733 321 744 q 279 722 299 722 l 231 722 m 481 722 q 450 733 461 722 q 439 764 439 744 l 439 833 q 450 864 439 853 q 481 875 461 875 l 529 875 q 560 864 549 875 q 571 833 571 853 l 571 764 q 560 733 571 744 q 529 722 549 722 l 481 722 z "},"â":{"ha":681,"x_min":83,"x_max":597,"o":"m 472 493 q 458 507 472 507 l 354 507 q 247 464 285 507 q 208 361 208 421 l 208 224 q 240 138 208 171 q 326 104 271 104 q 391 117 364 104 q 436 153 418 131 q 463 202 454 175 q 472 258 472 229 l 472 493 m 514 0 q 483 13 494 0 q 472 40 472 25 q 466 51 472 49 q 454 46 460 53 q 397 3 435 19 q 304 -14 358 -14 q 215 4 256 -14 q 146 56 175 22 q 100 135 117 89 q 83 238 83 182 l 83 361 q 103 464 83 415 q 158 548 122 513 q 242 604 193 583 q 349 625 290 625 l 556 625 q 586 614 575 625 q 597 583 597 603 l 597 42 q 586 11 597 22 q 556 0 575 0 l 514 0 m 504 746 q 475 737 490 735 q 449 751 460 739 l 400 807 q 380 817 393 815 q 357 807 367 818 l 306 751 q 250 744 279 719 l 231 760 q 216 787 217 771 q 226 818 215 803 l 310 919 q 334 938 321 935 q 365 940 347 940 l 389 940 q 420 938 407 940 q 444 919 433 935 l 528 818 q 538 787 539 803 q 524 760 538 771 l 504 746 z "},"à":{"ha":681,"x_min":83,"x_max":597,"o":"m 472 493 q 458 507 472 507 l 354 507 q 247 464 285 507 q 208 361 208 421 l 208 224 q 240 138 208 171 q 326 104 271 104 q 391 117 364 104 q 436 153 418 131 q 463 202 454 175 q 472 258 472 229 l 472 493 m 514 0 q 483 13 494 0 q 472 40 472 25 q 466 51 472 49 q 454 46 460 53 q 397 3 435 19 q 304 -14 358 -14 q 215 4 256 -14 q 146 56 175 22 q 100 135 117 89 q 83 238 83 182 l 83 361 q 103 464 83 415 q 158 548 122 513 q 242 604 193 583 q 349 625 290 625 l 556 625 q 586 614 575 625 q 597 583 597 603 l 597 42 q 586 11 597 22 q 556 0 575 0 l 514 0 m 478 729 q 447 719 463 718 q 419 735 431 721 l 319 857 q 308 888 307 872 q 325 917 310 904 l 353 938 q 383 949 367 950 q 411 932 399 947 l 511 810 q 522 778 522 794 q 506 751 521 763 l 478 729 z "},"á":{"ha":681,"x_min":83,"x_max":597,"o":"m 472 493 q 458 507 472 507 l 354 507 q 247 464 285 507 q 208 361 208 421 l 208 224 q 240 138 208 171 q 326 104 271 104 q 391 117 364 104 q 436 153 418 131 q 463 202 454 175 q 472 258 472 229 l 472 493 m 514 0 q 483 13 494 0 q 472 40 472 25 q 466 51 472 49 q 454 46 460 53 q 397 3 435 19 q 304 -14 358 -14 q 215 4 256 -14 q 146 56 175 22 q 100 135 117 89 q 83 238 83 182 l 83 361 q 103 464 83 415 q 158 548 122 513 q 242 604 193 583 q 349 625 290 625 l 556 625 q 586 614 575 625 q 597 583 597 603 l 597 42 q 586 11 597 22 q 556 0 575 0 l 514 0 m 403 735 q 376 719 392 721 q 344 729 360 718 l 317 751 q 301 778 301 763 q 311 810 300 794 l 411 932 q 440 949 424 947 q 469 938 456 950 l 497 917 q 514 888 513 904 q 503 857 515 872 l 403 735 z "},"É":{"ha":736,"x_min":97,"x_max":667,"o":"m 139 0 q 108 11 119 0 q 97 42 97 22 l 97 903 q 108 933 97 922 q 139 944 119 944 l 597 944 q 628 933 617 944 q 639 903 639 922 l 639 861 q 628 831 639 842 q 597 819 617 819 l 243 819 q 229 806 229 819 l 229 556 q 243 542 229 542 l 569 542 q 600 531 589 542 q 611 500 611 519 l 611 458 q 600 428 611 439 q 569 417 589 417 l 243 417 q 229 403 229 417 l 229 139 q 243 125 229 125 l 625 125 q 656 114 644 125 q 667 83 667 103 l 667 42 q 656 11 667 22 q 625 0 644 0 l 139 0 m 393 1054 q 366 1039 382 1040 q 335 1049 350 1038 l 307 1071 q 291 1098 292 1082 q 301 1129 290 1114 l 401 1251 q 430 1268 414 1267 q 460 1257 446 1269 l 488 1236 q 504 1208 503 1224 q 493 1176 506 1192 l 393 1054 z "},"Š":{"ha":681,"x_min":71,"x_max":611,"o":"m 115 176 q 145 189 129 190 q 174 176 161 188 q 199 155 185 167 q 231 133 213 143 q 272 117 249 124 q 326 111 296 111 q 436 148 393 111 q 479 240 479 185 q 441 340 479 303 q 319 418 403 378 q 224 471 267 443 q 151 533 182 499 q 105 612 121 568 q 89 713 89 656 q 107 804 89 760 q 160 883 125 849 q 244 938 194 917 q 354 958 293 958 q 490 928 433 958 q 579 864 546 897 q 579 806 608 835 l 547 772 q 521 758 533 758 q 492 772 508 757 q 436 811 474 789 q 354 833 399 833 q 298 823 324 833 q 253 796 272 813 q 224 758 235 779 q 214 713 214 736 q 223 658 214 682 q 251 615 232 635 q 299 576 269 594 q 372 540 329 558 q 474 488 429 515 q 549 426 518 460 q 595 348 579 392 q 611 247 611 304 q 589 147 611 194 q 528 65 567 100 q 437 8 489 29 q 326 -14 385 -14 q 178 15 232 -14 q 85 88 125 43 q 72 115 74 99 q 85 146 71 132 l 115 176 m 418 1069 q 394 1051 407 1054 q 363 1049 381 1049 l 339 1049 q 308 1051 321 1049 q 283 1069 294 1054 l 200 1171 q 190 1202 189 1186 q 204 1229 190 1218 l 224 1243 q 253 1252 238 1254 q 279 1238 268 1250 l 328 1182 q 348 1172 335 1174 q 371 1182 361 1171 l 422 1238 q 478 1244 449 1269 l 497 1229 q 512 1202 511 1218 q 501 1171 513 1186 l 418 1069 z "},"ž":{"ha":549,"x_min":42,"x_max":507,"o":"m 83 0 q 53 11 64 0 q 42 42 42 22 l 42 76 q 65 139 42 107 l 318 489 q 321 501 324 496 q 308 507 318 507 l 97 507 q 67 518 78 507 q 56 549 56 529 l 56 583 q 67 614 56 603 q 97 625 78 625 l 451 625 q 482 614 471 625 q 493 583 493 603 l 493 549 q 487 519 493 532 q 467 486 481 506 l 217 140 q 213 124 210 131 q 229 118 217 118 l 465 118 q 496 107 485 118 q 507 76 507 96 l 507 42 q 496 11 507 22 q 465 0 485 0 l 83 0 m 342 750 q 317 732 331 735 q 286 729 304 729 l 263 729 q 231 732 244 729 q 207 750 218 735 l 124 851 q 113 883 113 867 q 128 910 114 899 l 147 924 q 176 933 161 935 q 203 918 192 931 l 251 863 q 272 853 258 854 q 294 863 285 851 l 346 918 q 401 925 372 950 l 421 910 q 435 883 435 899 q 425 851 436 867 l 342 750 z "},"Ž":{"ha":792,"x_min":56,"x_max":735,"o":"m 97 0 q 67 11 78 0 q 56 42 56 22 l 56 74 q 60 105 56 90 q 79 139 65 119 l 532 801 q 533 814 536 808 q 519 819 529 819 l 139 819 q 108 831 119 819 q 97 861 97 842 l 97 903 q 108 933 97 922 q 139 944 119 944 l 679 944 q 710 933 699 944 q 721 903 721 922 l 721 872 q 713 839 721 856 q 694 806 706 822 l 244 147 q 241 131 238 138 q 257 125 244 125 l 693 125 q 724 114 713 125 q 735 83 735 103 l 735 42 q 724 11 735 22 q 693 0 713 0 l 97 0 m 463 1069 q 438 1051 451 1054 q 407 1049 425 1049 l 383 1049 q 352 1051 365 1049 q 328 1069 339 1054 l 244 1171 q 234 1202 233 1186 q 249 1229 235 1218 l 268 1243 q 297 1252 282 1254 q 324 1238 313 1250 l 372 1182 q 392 1172 379 1174 q 415 1182 406 1171 l 467 1238 q 522 1244 493 1269 l 542 1229 q 556 1202 556 1218 q 546 1171 557 1186 l 463 1069 z "},"æ":{"ha":1035,"x_min":83,"x_max":965,"o":"m 938 131 q 949 103 950 118 q 936 74 947 88 q 903 44 924 60 q 857 16 883 29 q 798 -6 831 3 q 729 -14 765 -14 q 665 -8 694 -14 q 613 10 635 -1 q 579 7 597 17 q 556 0 568 0 l 514 0 q 483 10 494 0 q 472 36 472 21 q 466 47 472 44 q 454 42 460 49 q 394 1 435 15 q 304 -14 353 -14 q 215 4 256 -14 q 146 56 175 22 q 100 135 117 89 q 83 238 83 182 l 83 361 q 103 464 83 415 q 158 548 122 513 q 242 604 193 583 q 349 625 290 625 l 556 625 q 581 618 569 625 q 592 613 588 614 q 608 617 597 613 q 658 633 632 626 q 715 639 683 639 q 819 619 774 639 q 898 567 865 600 q 948 488 931 533 q 965 393 965 443 l 965 310 q 954 279 965 290 q 924 268 943 268 l 611 268 q 597 254 597 268 l 597 229 q 626 140 597 176 q 729 104 656 104 q 810 123 781 104 q 854 156 839 142 q 913 156 886 182 l 938 131 m 472 493 q 458 507 472 507 l 354 507 q 247 464 285 507 q 208 361 208 421 l 208 224 q 240 138 208 171 q 326 104 271 104 q 388 117 361 104 q 434 150 415 129 q 463 198 453 171 q 472 254 472 225 l 472 493 m 840 393 q 811 483 840 446 q 715 521 782 521 q 624 483 650 521 q 597 393 597 446 l 597 386 q 611 372 597 372 l 826 372 q 840 386 840 372 l 840 393 z "},"∂":{"ha":764,"x_min":56,"x_max":708,"o":"m 382 104 q 462 121 425 104 q 526 165 499 138 q 568 231 553 193 q 583 313 583 269 q 568 394 583 356 q 526 460 553 432 q 462 504 499 488 q 382 521 425 521 q 302 504 339 521 q 238 460 265 488 q 196 394 211 432 q 181 313 181 356 q 196 231 181 269 q 238 165 211 193 q 302 121 265 138 q 382 104 339 104 m 253 865 q 264 924 231 901 l 301 944 q 335 953 319 956 q 360 935 350 950 l 644 507 q 690 417 672 465 q 708 313 708 368 q 683 185 708 244 q 613 82 657 126 q 509 12 568 38 q 382 -14 450 -14 q 255 12 314 -14 q 151 82 196 38 q 81 185 107 126 q 56 313 56 244 q 81 440 56 381 q 151 543 107 499 q 256 613 196 588 q 383 639 315 639 q 392 654 400 639 l 253 865 z "},"ð":{"ha":764,"x_min":56,"x_max":708,"o":"m 368 690 q 353 693 363 700 l 276 643 q 224 654 244 624 l 199 693 q 208 744 176 724 l 285 796 q 288 813 296 803 l 253 865 q 264 924 231 901 l 301 944 q 335 953 319 956 q 360 935 350 950 l 393 883 q 410 881 400 872 l 493 935 q 521 943 507 946 q 544 925 535 940 l 571 886 q 560 833 590 853 l 478 779 q 472 770 472 776 q 475 761 472 764 l 644 507 q 690 417 672 465 q 708 313 708 368 q 683 185 708 244 q 613 82 657 126 q 509 12 568 38 q 382 -14 450 -14 q 255 12 314 -14 q 151 82 196 38 q 81 185 107 126 q 56 313 56 244 q 81 440 56 381 q 151 543 107 499 q 256 613 196 588 q 383 639 315 639 q 392 654 400 639 l 368 690 m 382 104 q 462 121 425 104 q 526 165 499 138 q 568 231 553 193 q 583 313 583 269 q 568 394 583 356 q 526 460 553 432 q 462 504 499 488 q 382 521 425 521 q 302 504 339 521 q 238 460 265 488 q 196 394 211 432 q 181 313 181 356 q 196 231 181 269 q 238 165 211 193 q 302 121 265 138 q 382 104 339 104 z "},"Ð":{"ha":806,"x_min":-28,"x_max":722,"o":"m 139 0 q 108 11 119 0 q 97 42 97 22 l 97 390 q 83 404 97 404 l 14 404 q -17 415 -6 404 q -28 446 -28 426 l -28 488 q -17 518 -28 507 q 14 529 -6 529 l 83 529 q 97 543 97 529 l 97 903 q 108 933 97 922 q 139 944 119 944 l 382 944 q 522 919 458 944 q 629 849 585 893 q 698 743 674 804 q 722 611 722 682 l 722 333 q 698 201 722 263 q 629 96 674 140 q 522 26 585 51 q 382 0 458 0 l 139 0 m 590 611 q 575 699 590 660 q 532 765 560 738 q 466 806 504 792 q 382 819 428 819 l 243 819 q 229 806 229 819 l 229 543 q 243 529 229 529 l 354 529 q 385 518 374 529 q 396 488 396 507 l 396 446 q 385 415 396 426 q 354 404 374 404 l 243 404 q 229 390 229 404 l 229 139 q 243 125 229 125 l 382 125 q 466 139 428 125 q 532 179 504 153 q 575 244 560 206 q 590 333 590 283 l 590 611 z "},"µ":{"ha":674,"x_min":83,"x_max":590,"o":"m 125 -318 q 94 -307 106 -318 q 83 -276 83 -296 l 83 583 q 94 614 83 603 q 125 625 106 625 l 167 625 q 197 614 186 625 q 208 583 208 603 l 208 236 q 240 144 208 183 q 338 104 271 104 q 435 144 404 104 q 465 236 465 183 l 465 583 q 476 614 465 603 q 507 625 488 625 l 549 625 q 579 614 568 625 q 590 583 590 603 l 590 236 q 572 140 590 186 q 522 60 554 94 q 442 6 489 26 q 338 -14 396 -14 q 226 10 276 -14 q 214 9 219 13 q 208 -3 208 6 l 208 -276 q 197 -307 208 -296 q 167 -318 186 -318 l 125 -318 z "},"Ñ":{"ha":840,"x_min":97,"x_max":743,"o":"m 660 0 q 628 10 640 0 q 604 42 617 21 l 251 660 q 237 668 244 671 q 229 654 229 665 l 229 42 q 218 11 229 22 q 188 0 207 0 l 139 0 q 108 11 119 0 q 97 42 97 22 l 97 903 q 108 933 97 922 q 139 944 119 944 l 193 944 q 228 937 214 944 q 253 910 242 929 l 590 322 q 603 315 596 314 q 611 328 611 317 l 611 903 q 622 933 611 922 q 653 944 633 944 l 701 944 q 732 933 721 944 q 743 903 743 922 l 743 42 q 732 11 743 22 q 701 0 721 0 l 660 0 m 606 1168 q 619 1138 619 1154 q 607 1106 618 1121 q 554 1061 586 1079 q 483 1043 522 1043 q 441 1049 458 1043 q 410 1063 424 1056 q 383 1077 396 1071 q 354 1083 369 1083 q 331 1077 343 1083 q 313 1064 319 1071 q 283 1050 296 1047 q 254 1068 269 1053 l 233 1089 q 220 1121 219 1103 q 233 1154 221 1139 q 282 1192 251 1174 q 350 1210 313 1210 q 392 1203 375 1210 q 424 1188 410 1196 q 451 1172 438 1179 q 479 1165 464 1165 q 503 1172 489 1165 q 524 1188 517 1179 q 585 1189 554 1219 l 606 1168 z "},"Ç":{"ha":722,"x_min":83,"x_max":674,"o":"m 660 153 q 672 122 674 139 q 660 94 671 106 q 556 18 615 50 q 401 -14 496 -14 q 275 10 333 -14 q 174 78 217 35 q 108 184 132 122 q 83 319 83 246 l 83 625 q 108 759 83 697 q 174 865 132 821 q 275 933 217 908 q 401 958 333 958 q 485 949 447 958 q 553 926 522 940 q 606 895 583 913 q 644 863 629 878 q 644 804 674 833 l 613 772 q 586 758 599 758 q 557 772 574 757 q 502 811 539 789 q 401 833 465 833 q 323 817 357 833 q 265 773 289 801 q 228 706 240 744 q 215 625 215 668 l 215 319 q 265 169 215 226 q 401 111 314 111 q 505 134 463 111 q 574 181 547 157 q 602 193 586 192 q 632 181 618 194 l 660 153 m 283 -319 q 244 -281 244 -319 l 244 -264 q 283 -225 244 -225 l 342 -225 q 366 -214 356 -225 q 376 -187 376 -203 q 366 -160 376 -172 q 342 -149 356 -149 l 283 -149 q 244 -110 244 -149 l 244 -93 q 283 -54 244 -54 l 329 -54 q 385 -63 358 -54 q 433 -89 413 -72 q 466 -131 454 -106 q 478 -187 478 -156 q 434 -285 478 -251 q 329 -319 390 -319 l 283 -319 z "},"Ü":{"ha":833,"x_min":90,"x_max":743,"o":"m 611 903 q 622 933 611 922 q 653 944 633 944 l 701 944 q 732 933 721 944 q 743 903 743 922 l 743 306 q 719 176 743 235 q 651 75 694 117 q 547 10 607 33 q 417 -14 488 -14 q 286 10 346 -14 q 183 75 226 33 q 115 176 139 117 q 90 306 90 235 l 90 903 q 101 933 90 922 q 132 944 113 944 l 181 944 q 211 933 200 944 q 222 903 222 922 l 222 306 q 272 167 222 222 q 417 111 322 111 q 561 167 511 111 q 611 306 611 222 l 611 903 m 267 1042 q 236 1053 247 1042 q 225 1083 225 1064 l 225 1153 q 236 1183 225 1172 q 267 1194 247 1194 l 315 1194 q 346 1183 335 1194 q 357 1153 357 1172 l 357 1083 q 346 1053 357 1064 q 315 1042 335 1042 l 267 1042 m 517 1042 q 486 1053 497 1042 q 475 1083 475 1064 l 475 1153 q 486 1183 475 1172 q 517 1194 497 1194 l 565 1194 q 596 1183 585 1194 q 607 1153 607 1172 l 607 1083 q 596 1053 607 1064 q 565 1042 585 1042 l 517 1042 z "},"Ù":{"ha":833,"x_min":90,"x_max":743,"o":"m 611 903 q 622 933 611 922 q 653 944 633 944 l 701 944 q 732 933 721 944 q 743 903 743 922 l 743 306 q 719 176 743 235 q 651 75 694 117 q 547 10 607 33 q 417 -14 488 -14 q 286 10 346 -14 q 183 75 226 33 q 115 176 139 117 q 90 306 90 235 l 90 903 q 101 933 90 922 q 132 944 113 944 l 181 944 q 211 933 200 944 q 222 903 222 922 l 222 306 q 272 167 222 222 q 417 111 322 111 q 561 167 511 111 q 611 306 611 222 l 611 903 m 471 1049 q 440 1039 456 1038 q 413 1054 424 1040 l 313 1176 q 301 1208 300 1192 q 318 1236 303 1224 l 346 1257 q 376 1268 360 1269 q 404 1251 392 1267 l 504 1129 q 515 1098 515 1114 q 499 1071 514 1082 l 471 1049 z "},"Û":{"ha":833,"x_min":90,"x_max":743,"o":"m 611 903 q 622 933 611 922 q 653 944 633 944 l 701 944 q 732 933 721 944 q 743 903 743 922 l 743 306 q 719 176 743 235 q 651 75 694 117 q 547 10 607 33 q 417 -14 488 -14 q 286 10 346 -14 q 183 75 226 33 q 115 176 139 117 q 90 306 90 235 l 90 903 q 101 933 90 922 q 132 944 113 944 l 181 944 q 211 933 200 944 q 222 903 222 922 l 222 306 q 272 167 222 222 q 417 111 322 111 q 561 167 511 111 q 611 306 611 222 l 611 903 m 543 1065 q 514 1056 529 1054 q 488 1071 499 1058 l 439 1126 q 419 1136 432 1135 q 396 1126 406 1138 l 344 1071 q 289 1064 318 1039 l 269 1079 q 255 1106 256 1090 q 265 1138 254 1122 l 349 1239 q 373 1257 360 1254 q 404 1260 386 1260 l 428 1260 q 459 1257 446 1260 q 483 1239 472 1254 l 567 1138 q 577 1106 578 1122 q 563 1079 576 1090 l 543 1065 z "},"Ú":{"ha":833,"x_min":90,"x_max":743,"o":"m 611 903 q 622 933 611 922 q 653 944 633 944 l 701 944 q 732 933 721 944 q 743 903 743 922 l 743 306 q 719 176 743 235 q 651 75 694 117 q 547 10 607 33 q 417 -14 488 -14 q 286 10 346 -14 q 183 75 226 33 q 115 176 139 117 q 90 306 90 235 l 90 903 q 101 933 90 922 q 132 944 113 944 l 181 944 q 211 933 200 944 q 222 903 222 922 l 222 306 q 272 167 222 222 q 417 111 322 111 q 561 167 511 111 q 611 306 611 222 l 611 903 m 451 1054 q 424 1039 440 1040 q 393 1049 408 1038 l 365 1071 q 349 1098 350 1082 q 360 1129 349 1114 l 460 1251 q 488 1268 472 1267 q 518 1257 504 1269 l 546 1236 q 563 1208 561 1224 q 551 1176 564 1192 l 451 1054 z "},"Ê":{"ha":736,"x_min":97,"x_max":667,"o":"m 139 0 q 108 11 119 0 q 97 42 97 22 l 97 903 q 108 933 97 922 q 139 944 119 944 l 597 944 q 628 933 617 944 q 639 903 639 922 l 639 861 q 628 831 639 842 q 597 819 617 819 l 243 819 q 229 806 229 819 l 229 556 q 243 542 229 542 l 569 542 q 600 531 589 542 q 611 500 611 519 l 611 458 q 600 428 611 439 q 569 417 589 417 l 243 417 q 229 403 229 417 l 229 139 q 243 125 229 125 l 625 125 q 656 114 644 125 q 667 83 667 103 l 667 42 q 656 11 667 22 q 625 0 644 0 l 139 0 m 494 1065 q 465 1056 481 1054 q 439 1071 450 1058 l 390 1126 q 370 1136 383 1135 q 347 1126 357 1138 l 296 1071 q 240 1064 269 1039 l 221 1079 q 206 1106 207 1090 q 217 1138 206 1122 l 300 1239 q 324 1257 311 1254 q 356 1260 338 1260 l 379 1260 q 410 1257 397 1260 q 435 1239 424 1254 l 518 1138 q 528 1106 529 1122 q 514 1079 528 1090 l 494 1065 z "},"Ë":{"ha":736,"x_min":97,"x_max":667,"o":"m 139 0 q 108 11 119 0 q 97 42 97 22 l 97 903 q 108 933 97 922 q 139 944 119 944 l 597 944 q 628 933 617 944 q 639 903 639 922 l 639 861 q 628 831 639 842 q 597 819 617 819 l 243 819 q 229 806 229 819 l 229 556 q 243 542 229 542 l 569 542 q 600 531 589 542 q 611 500 611 519 l 611 458 q 600 428 611 439 q 569 417 589 417 l 243 417 q 229 403 229 417 l 229 139 q 243 125 229 125 l 625 125 q 656 114 644 125 q 667 83 667 103 l 667 42 q 656 11 667 22 q 625 0 644 0 l 139 0 m 218 1042 q 188 1053 199 1042 q 176 1083 176 1064 l 176 1153 q 188 1183 176 1172 q 218 1194 199 1194 l 267 1194 q 297 1183 286 1194 q 308 1153 308 1172 l 308 1083 q 297 1053 308 1064 q 267 1042 286 1042 l 218 1042 m 468 1042 q 438 1053 449 1042 q 426 1083 426 1064 l 426 1153 q 438 1183 426 1172 q 468 1194 449 1194 l 517 1194 q 547 1183 536 1194 q 558 1153 558 1172 l 558 1083 q 547 1053 558 1064 q 517 1042 536 1042 l 468 1042 z "},"È":{"ha":736,"x_min":97,"x_max":667,"o":"m 139 0 q 108 11 119 0 q 97 42 97 22 l 97 903 q 108 933 97 922 q 139 944 119 944 l 597 944 q 628 933 617 944 q 639 903 639 922 l 639 861 q 628 831 639 842 q 597 819 617 819 l 243 819 q 229 806 229 819 l 229 556 q 243 542 229 542 l 569 542 q 600 531 589 542 q 611 500 611 519 l 611 458 q 600 428 611 439 q 569 417 589 417 l 243 417 q 229 403 229 417 l 229 139 q 243 125 229 125 l 625 125 q 656 114 644 125 q 667 83 667 103 l 667 42 q 656 11 667 22 q 625 0 644 0 l 139 0 m 422 1049 q 391 1039 407 1038 q 364 1054 375 1040 l 264 1176 q 253 1208 251 1192 q 269 1236 254 1224 l 297 1257 q 327 1268 311 1269 q 356 1251 343 1267 l 456 1129 q 466 1098 467 1114 q 450 1071 465 1082 l 422 1049 z "},"Í":{"ha":326,"x_min":97,"x_max":332,"o":"m 139 0 q 108 11 119 0 q 97 42 97 22 l 97 903 q 108 933 97 922 q 139 944 119 944 l 188 944 q 218 933 207 944 q 229 903 229 922 l 229 42 q 218 11 229 22 q 188 0 207 0 l 139 0 m 219 1054 q 192 1039 208 1040 q 161 1049 176 1038 l 133 1071 q 117 1098 118 1082 q 128 1129 117 1114 l 228 1251 q 256 1268 240 1267 q 286 1257 272 1269 l 314 1236 q 331 1208 329 1224 q 319 1176 332 1192 l 219 1054 z "},"Î":{"ha":326,"x_min":3,"x_max":326,"o":"m 139 0 q 108 11 119 0 q 97 42 97 22 l 97 903 q 108 933 97 922 q 139 944 119 944 l 188 944 q 218 933 207 944 q 229 903 229 922 l 229 42 q 218 11 229 22 q 188 0 207 0 l 139 0 m 292 1065 q 263 1056 278 1054 q 236 1071 247 1058 l 188 1126 q 167 1136 181 1135 q 144 1126 154 1138 l 93 1071 q 38 1064 67 1039 l 18 1079 q 3 1106 4 1090 q 14 1138 3 1122 l 97 1239 q 122 1257 108 1254 q 153 1260 135 1260 l 176 1260 q 208 1257 194 1260 q 232 1239 221 1254 l 315 1138 q 326 1106 326 1122 q 311 1079 325 1090 l 292 1065 z "},"Ï":{"ha":326,"x_min":-26,"x_max":356,"o":"m 139 0 q 108 11 119 0 q 97 42 97 22 l 97 903 q 108 933 97 922 q 139 944 119 944 l 188 944 q 218 933 207 944 q 229 903 229 922 l 229 42 q 218 11 229 22 q 188 0 207 0 l 139 0 m 15 1042 q -15 1053 -4 1042 q -26 1083 -26 1064 l -26 1153 q -15 1183 -26 1172 q 15 1194 -4 1194 l 64 1194 q 94 1183 83 1194 q 106 1153 106 1172 l 106 1083 q 94 1053 106 1064 q 64 1042 83 1042 l 15 1042 m 265 1042 q 235 1053 246 1042 q 224 1083 224 1064 l 224 1153 q 235 1183 224 1172 q 265 1194 246 1194 l 314 1194 q 344 1183 333 1194 q 356 1153 356 1172 l 356 1083 q 344 1053 356 1064 q 314 1042 333 1042 l 265 1042 z "},"Ì":{"ha":326,"x_min":28,"x_max":243,"o":"m 139 0 q 108 11 119 0 q 97 42 97 22 l 97 903 q 108 933 97 922 q 139 944 119 944 l 188 944 q 218 933 207 944 q 229 903 229 922 l 229 42 q 218 11 229 22 q 188 0 207 0 l 139 0 m 199 1049 q 167 1039 183 1038 q 140 1054 151 1040 l 40 1176 q 29 1208 28 1192 q 46 1236 31 1224 l 74 1257 q 103 1268 88 1269 q 132 1251 119 1267 l 232 1129 q 242 1098 243 1114 q 226 1071 242 1082 l 199 1049 z "},"Ó":{"ha":819,"x_min":83,"x_max":736,"o":"m 736 306 q 712 176 736 235 q 644 75 688 117 q 540 10 600 33 q 410 -14 481 -14 q 279 10 339 -14 q 176 75 219 33 q 108 176 132 117 q 83 306 83 235 l 83 639 q 108 769 83 710 q 176 869 132 828 q 279 935 219 911 q 410 958 339 958 q 540 935 481 958 q 644 869 600 911 q 712 769 688 828 q 736 639 736 710 l 736 306 m 604 639 q 554 778 604 722 q 410 833 504 833 q 265 778 315 833 q 215 639 215 722 l 215 306 q 265 167 215 222 q 410 111 315 111 q 554 167 504 111 q 604 306 604 222 l 604 639 m 392 1054 q 365 1039 381 1040 q 333 1049 349 1038 l 306 1071 q 290 1098 290 1082 q 300 1129 289 1114 l 400 1251 q 428 1268 413 1267 q 458 1257 444 1269 l 486 1236 q 503 1208 501 1224 q 492 1176 504 1192 l 392 1054 z "},"Ô":{"ha":819,"x_min":83,"x_max":736,"o":"m 736 306 q 712 176 736 235 q 644 75 688 117 q 540 10 600 33 q 410 -14 481 -14 q 279 10 339 -14 q 176 75 219 33 q 108 176 132 117 q 83 306 83 235 l 83 639 q 108 769 83 710 q 176 869 132 828 q 279 935 219 911 q 410 958 339 958 q 540 935 481 958 q 644 869 600 911 q 712 769 688 828 q 736 639 736 710 l 736 306 m 604 639 q 554 778 604 722 q 410 833 504 833 q 265 778 315 833 q 215 639 215 722 l 215 306 q 265 167 215 222 q 410 111 315 111 q 554 167 504 111 q 604 306 604 222 l 604 639 m 536 1065 q 507 1056 522 1054 q 481 1071 492 1058 l 432 1126 q 412 1136 425 1135 q 389 1126 399 1138 l 338 1071 q 282 1064 311 1039 l 263 1079 q 248 1106 249 1090 q 258 1138 247 1122 l 342 1239 q 366 1257 353 1254 q 397 1260 379 1260 l 421 1260 q 452 1257 439 1260 q 476 1239 465 1254 l 560 1138 q 570 1106 571 1122 q 556 1079 569 1090 l 536 1065 z "},"Ò":{"ha":819,"x_min":83,"x_max":736,"o":"m 736 306 q 712 176 736 235 q 644 75 688 117 q 540 10 600 33 q 410 -14 481 -14 q 279 10 339 -14 q 176 75 219 33 q 108 176 132 117 q 83 306 83 235 l 83 639 q 108 769 83 710 q 176 869 132 828 q 279 935 219 911 q 410 958 339 958 q 540 935 481 958 q 644 869 600 911 q 712 769 688 828 q 736 639 736 710 l 736 306 m 604 639 q 554 778 604 722 q 410 833 504 833 q 265 778 315 833 q 215 639 215 722 l 215 306 q 265 167 215 222 q 410 111 315 111 q 554 167 504 111 q 604 306 604 222 l 604 639 m 556 1049 q 524 1039 540 1038 q 497 1054 508 1040 l 397 1176 q 386 1208 385 1192 q 403 1236 388 1224 l 431 1257 q 460 1268 444 1269 q 489 1251 476 1267 l 589 1129 q 599 1098 600 1114 q 583 1071 599 1082 l 556 1049 z "},"Õ":{"ha":819,"x_min":83,"x_max":736,"o":"m 736 306 q 712 176 736 235 q 644 75 688 117 q 540 10 600 33 q 410 -14 481 -14 q 279 10 339 -14 q 176 75 219 33 q 108 176 132 117 q 83 306 83 235 l 83 639 q 108 769 83 710 q 176 869 132 828 q 279 935 219 911 q 410 958 339 958 q 540 935 481 958 q 644 869 600 911 q 712 769 688 828 q 736 639 736 710 l 736 306 m 604 639 q 554 778 604 722 q 410 833 504 833 q 265 778 315 833 q 215 639 215 722 l 215 306 q 265 167 215 222 q 410 111 315 111 q 554 167 504 111 q 604 306 604 222 l 604 639 m 596 1168 q 609 1138 610 1154 q 597 1106 608 1121 q 544 1061 576 1079 q 474 1043 513 1043 q 431 1049 449 1043 q 400 1063 414 1056 q 373 1077 386 1071 q 344 1083 360 1083 q 322 1077 333 1083 q 303 1064 310 1071 q 273 1050 286 1047 q 244 1068 260 1053 l 224 1089 q 210 1121 210 1103 q 224 1154 211 1139 q 272 1192 242 1174 q 340 1210 303 1210 q 383 1203 365 1210 q 414 1188 400 1196 q 441 1172 428 1179 q 469 1165 454 1165 q 493 1172 479 1165 q 514 1188 507 1179 q 575 1189 544 1219 l 596 1168 z "},"œ":{"ha":1146,"x_min":56,"x_max":1076,"o":"m 1049 131 q 1060 103 1061 118 q 1047 74 1058 88 q 1015 44 1035 60 q 968 16 994 29 q 909 -6 942 3 q 840 -14 876 -14 q 719 10 769 -14 q 638 75 669 35 q 604 76 624 93 q 505 12 561 38 q 382 -14 449 -14 q 255 12 314 -14 q 151 82 196 38 q 81 185 107 126 q 56 313 56 244 q 81 440 56 381 q 151 543 107 499 q 255 613 196 588 q 382 639 314 639 q 510 615 450 639 q 608 544 569 592 q 621 538 613 539 q 633 544 629 538 q 711 613 663 586 q 826 639 760 639 q 931 619 885 639 q 1009 567 976 600 q 1059 488 1042 533 q 1076 393 1076 443 l 1076 310 q 1065 279 1076 290 q 1035 268 1054 268 l 722 268 q 708 254 708 268 l 708 229 q 738 140 708 176 q 840 104 767 104 q 921 123 892 104 q 965 156 950 142 q 1024 156 997 182 l 1049 131 m 382 104 q 462 121 425 104 q 526 165 499 138 q 568 231 553 193 q 583 313 583 269 q 568 394 583 356 q 526 460 553 432 q 462 504 499 488 q 382 521 425 521 q 302 504 339 521 q 238 460 265 488 q 196 394 211 432 q 181 313 181 356 q 196 231 181 269 q 238 165 211 193 q 302 121 265 138 q 382 104 339 104 m 951 393 q 922 483 951 446 q 826 521 893 521 q 735 483 761 521 q 708 393 708 446 l 708 386 q 722 372 708 372 l 938 372 q 951 386 951 372 l 951 393 z "},"Æ":{"ha":1157,"x_min":22,"x_max":1088,"o":"m 663 0 q 612 8 638 0 q 554 39 586 15 l 296 221 q 279 221 289 226 q 265 207 269 215 l 185 33 q 132 0 167 0 l 56 0 q 29 10 36 0 q 32 39 22 21 l 463 907 q 485 937 472 929 q 518 944 499 944 l 1018 944 q 1049 933 1038 944 q 1060 903 1060 922 l 1060 861 q 1049 831 1060 842 q 1018 819 1038 819 l 706 819 q 692 806 692 819 l 692 556 q 706 542 692 542 l 990 542 q 1021 531 1010 542 q 1032 500 1032 519 l 1032 458 q 1021 428 1032 439 q 990 417 1010 417 l 706 417 q 692 403 692 417 l 692 139 q 706 125 692 125 l 1046 125 q 1076 114 1065 125 q 1088 83 1088 103 l 1088 42 q 1076 11 1088 22 q 1046 0 1065 0 l 663 0 m 558 768 q 548 783 558 783 q 531 768 538 783 l 350 386 q 344 359 342 368 q 354 344 347 350 l 532 222 q 552 220 546 213 q 558 238 558 228 l 558 768 z "},"Œ":{"ha":1104,"x_min":83,"x_max":1035,"o":"m 424 0 q 283 26 346 0 q 176 96 221 51 q 108 201 132 140 q 83 333 83 263 l 83 611 q 108 743 83 682 q 176 849 132 804 q 283 919 221 893 q 424 944 346 944 l 965 944 q 996 933 985 944 q 1007 903 1007 922 l 1007 861 q 996 831 1007 842 q 965 819 985 819 l 667 819 q 653 806 653 819 l 653 556 q 667 542 653 542 l 938 542 q 968 531 957 542 q 979 500 979 519 l 979 458 q 968 428 979 439 q 938 417 957 417 l 667 417 q 653 403 653 417 l 653 139 q 667 125 653 125 l 993 125 q 1024 114 1013 125 q 1035 83 1035 103 l 1035 42 q 1024 11 1035 22 q 993 0 1013 0 l 424 0 m 521 806 q 507 819 521 819 l 424 819 q 340 806 378 819 q 274 765 301 792 q 231 700 246 739 q 215 611 215 661 l 215 333 q 231 246 215 285 q 274 180 246 207 q 340 139 301 153 q 424 125 378 125 l 507 125 q 521 139 521 125 l 521 806 z "},"±":{"ha":792,"x_min":128,"x_max":665,"o":"m 372 303 q 347 313 357 303 q 336 339 336 322 l 336 490 q 317 511 335 510 l 164 511 q 128 547 128 511 l 128 601 q 164 638 128 638 l 317 638 q 336 658 335 639 l 336 810 q 347 835 336 826 q 372 846 357 844 l 419 846 q 446 837 435 847 q 457 810 457 826 l 457 657 q 476 638 457 638 l 628 638 q 654 627 643 638 q 665 601 665 617 l 665 547 q 654 522 665 532 q 628 511 643 511 l 476 511 q 457 492 457 511 l 457 339 q 446 312 457 322 q 419 303 435 301 l 372 303 m 169 129 q 139 140 150 129 q 128 171 128 151 l 128 206 q 139 236 128 225 q 169 247 150 247 l 624 247 q 654 236 643 247 q 665 206 665 225 l 665 171 q 654 140 665 151 q 624 129 643 129 l 169 129 z "},"„":{"ha":521,"x_min":26,"x_max":478,"o":"m 60 -36 q 44 19 26 -15 l 160 228 q 184 247 168 243 q 217 242 200 251 l 258 217 q 280 191 275 206 q 274 158 285 176 l 140 -36 q 115 -56 131 -51 q 85 -51 100 -61 l 60 -36 m 253 -36 q 238 19 219 -15 l 353 228 q 377 247 361 243 q 410 242 393 251 l 451 217 q 473 191 468 206 q 467 158 478 176 l 333 -36 q 308 -56 324 -51 q 278 -51 293 -61 l 253 -36 z "},"‚":{"ha":299,"x_min":19,"x_max":278,"o":"m 53 -36 q 38 19 19 -15 l 153 228 q 177 247 161 243 q 210 242 193 251 l 251 217 q 273 191 268 206 q 267 158 278 176 l 133 -36 q 108 -56 124 -51 q 78 -51 93 -61 l 53 -36 z "},"Ø":{"ha":819,"x_min":11,"x_max":811,"o":"m 136 -31 q 78 -40 111 -62 l 43 -17 q 33 42 11 8 l 96 132 q 110 167 113 156 q 104 186 107 179 q 83 306 83 240 l 83 639 q 108 769 83 710 q 176 869 132 828 q 279 935 219 911 q 410 958 339 958 q 599 906 518 958 q 619 900 606 901 q 642 913 632 899 l 686 975 q 744 985 711 1007 l 779 961 q 789 903 811 936 l 724 810 q 713 782 715 797 q 718 751 711 767 q 733 698 729 726 q 736 639 736 669 l 736 306 q 712 176 736 235 q 644 75 688 117 q 540 10 600 33 q 410 -14 481 -14 q 306 1 354 -14 q 218 42 258 15 q 203 48 213 44 q 182 35 193 51 l 136 -31 m 536 760 q 540 778 542 767 q 529 799 538 790 q 477 826 508 818 q 410 833 446 833 q 265 778 315 833 q 215 639 215 722 l 215 346 q 223 328 215 331 q 238 333 231 325 l 536 760 m 604 596 q 595 612 604 611 q 582 607 586 613 l 289 188 q 281 156 274 165 q 294 142 288 146 q 410 111 343 111 q 554 167 504 111 q 604 306 604 222 l 604 596 z "},"ø":{"ha":764,"x_min":56,"x_max":708,"o":"m 201 -47 q 174 -65 190 -62 q 143 -57 158 -68 l 110 -33 q 99 25 76 -8 l 126 64 q 126 110 144 88 q 74 203 93 151 q 56 313 56 254 q 81 440 56 381 q 151 543 107 499 q 255 613 196 588 q 382 639 314 639 q 431 635 407 639 q 479 624 456 632 q 525 635 510 613 l 560 683 q 587 701 571 699 q 618 693 603 704 l 651 669 q 663 611 685 644 l 628 561 q 622 539 618 547 q 635 519 625 531 q 690 426 671 479 q 708 313 708 372 q 683 185 708 244 q 613 82 657 126 q 509 12 568 38 q 382 -14 450 -14 q 328 -9 354 -14 q 276 4 301 -4 q 256 10 268 7 q 229 -8 244 13 l 201 -47 m 329 136 q 328 115 318 121 q 346 107 338 108 q 364 104 356 104 q 382 104 372 104 q 462 121 425 104 q 526 165 499 138 q 568 231 553 193 q 583 313 583 269 q 578 367 583 340 q 558 415 572 393 q 543 426 553 425 q 526 417 533 426 l 329 136 m 424 489 q 428 508 431 500 q 415 518 426 515 q 398 521 406 521 q 382 521 390 521 q 302 504 339 521 q 238 460 265 488 q 196 394 211 432 q 181 313 181 356 q 201 218 181 260 q 212 205 204 211 q 231 214 219 199 l 424 489 z "},"Ł":{"ha":685,"x_min":-36,"x_max":664,"o":"m 139 0 q 108 11 119 0 q 97 42 97 22 l 97 249 q 91 265 97 264 q 76 258 85 267 l 61 243 q 31 229 47 229 q 1 243 15 229 l -22 268 q -36 298 -36 282 q -22 326 -36 314 l 75 425 q 93 449 89 439 q 97 474 97 460 l 97 903 q 108 933 97 922 q 139 944 119 944 l 188 944 q 218 933 207 944 q 229 903 229 922 l 229 610 q 235 593 229 594 q 250 600 242 592 l 265 615 q 295 629 279 629 q 325 615 311 629 l 349 590 q 363 560 363 576 q 349 532 363 544 l 251 433 q 233 409 238 419 q 229 385 229 399 l 229 139 q 243 125 229 125 l 622 125 q 653 114 642 125 q 664 83 664 103 l 664 42 q 653 11 664 22 q 622 0 642 0 l 139 0 z "},"ł":{"ha":354,"x_min":-36,"x_max":356,"o":"m 265 0 q 137 49 176 0 q 97 181 97 97 l 97 249 q 91 265 97 264 q 76 258 85 267 l 61 243 q 31 229 47 229 q 1 243 15 229 l -22 268 q -36 298 -36 282 q -22 326 -36 314 l 75 425 q 93 449 89 439 q 97 474 97 460 l 97 903 q 108 933 97 922 q 139 944 119 944 l 181 944 q 211 933 200 944 q 222 903 222 922 l 222 603 q 228 586 222 588 q 243 593 235 585 l 258 608 q 288 622 272 622 q 318 608 304 622 l 342 583 q 356 553 356 569 q 342 525 356 538 l 244 426 q 226 402 231 413 q 222 378 222 392 l 222 167 q 235 131 222 144 q 271 118 247 118 l 285 118 q 315 107 304 118 q 326 76 326 96 l 326 42 q 315 11 326 22 q 285 0 304 0 l 265 0 z "},"":{"ha":767,"x_min":68,"x_max":832,"o":"m 585 68 q 572 21 585 43 q 535 -18 558 -1 q 481 -44 513 -35 q 414 -54 450 -54 q 285 -24 347 -54 q 174 59 222 6 q 97 187 126 113 q 68 351 68 261 q 89 473 68 419 q 144 563 110 526 q 222 619 178 600 q 313 639 265 639 q 408 617 369 639 q 465 561 446 594 q 477 553 469 554 q 492 557 485 553 q 554 621 531 586 q 578 700 578 656 q 555 768 578 740 q 488 796 532 796 q 448 788 465 796 q 419 768 431 779 q 369 757 396 743 q 341 784 351 767 q 331 822 331 801 q 336 852 331 835 q 356 885 342 869 q 394 910 371 900 q 454 921 418 921 q 519 908 488 921 q 576 870 551 894 q 617 812 601 846 q 632 736 632 778 q 631 717 632 726 q 629 701 631 708 q 633 690 628 693 q 646 694 639 686 q 695 818 688 754 q 703 936 703 882 q 719 989 703 969 q 764 1008 736 1008 q 812 990 792 1008 q 832 938 832 971 q 813 843 832 894 q 754 738 793 792 q 657 634 715 685 q 522 540 599 583 q 514 529 513 535 q 524 524 515 524 q 589 513 557 522 q 647 483 621 503 q 688 433 672 464 q 704 358 704 401 q 649 240 704 283 q 510 186 594 196 q 385 146 424 176 q 346 74 346 115 q 358 36 346 53 q 400 19 371 19 q 443 40 431 19 q 458 82 456 60 q 478 120 461 106 q 522 135 496 135 q 567 115 550 135 q 585 68 585 94 m 282 68 q 264 149 271 103 q 257 238 257 196 q 292 412 257 351 q 381 497 328 472 q 388 525 401 507 q 349 553 374 544 q 294 563 325 563 q 172 505 219 563 q 124 353 124 447 q 135 254 124 300 q 167 171 147 208 q 212 105 186 133 q 265 57 238 76 q 280 53 274 50 q 282 68 286 56 z "},"Ω":{"ha":767,"x_min":-57,"x_max":707,"o":"m 510 57 q 563 105 538 76 q 608 171 589 133 q 640 254 628 208 q 651 353 651 300 q 603 505 651 447 q 481 563 556 563 q 426 553 450 563 q 388 525 401 544 q 394 497 374 507 q 443 464 421 485 q 482 412 465 443 q 508 338 499 381 q 518 238 518 294 q 511 149 518 196 q 493 68 504 103 q 495 53 489 56 q 510 57 501 50 m 361 -54 q 294 -44 325 -54 q 240 -18 263 -35 q 203 21 217 -1 q 190 68 190 43 q 208 115 190 94 q 253 135 225 135 q 297 120 279 135 q 317 82 314 106 q 332 40 319 60 q 375 19 344 19 q 417 36 404 19 q 429 74 429 53 q 390 146 429 115 q 265 186 351 176 q 126 240 181 196 q 71 358 71 283 q 87 433 71 401 q 128 483 103 464 q 186 513 154 503 q 251 524 218 522 q 261 529 260 524 q 253 540 263 535 q 118 634 176 583 q 21 738 60 685 q -37 843 -18 792 q -57 938 -57 894 q -37 990 -57 971 q 11 1008 -17 1008 q 56 989 39 1008 q 72 936 72 969 q 80 818 72 882 q 129 694 88 754 q 142 690 136 686 q 146 701 147 693 q 144 717 144 708 q 143 736 143 726 q 158 812 143 778 q 199 870 174 846 q 256 908 224 894 q 321 921 288 921 q 381 910 357 921 q 420 885 406 900 q 441 852 435 869 q 447 822 447 835 q 435 782 447 801 q 406 757 424 763 q 378 754 390 753 q 356 768 367 756 q 327 788 344 779 q 288 796 310 796 q 220 768 243 796 q 197 700 197 740 q 221 621 197 656 q 283 557 244 586 q 298 553 290 553 q 310 561 306 554 q 367 617 329 594 q 463 639 406 639 q 553 619 510 639 q 631 563 597 600 q 686 473 665 526 q 707 351 707 419 q 678 187 707 261 q 601 59 649 113 q 490 -24 553 6 q 361 -54 428 -54 z "},"ì":{"ha":319,"x_min":14,"x_max":229,"o":"m 139 0 q 108 11 119 0 q 97 42 97 22 l 97 583 q 108 614 97 603 q 139 625 119 625 l 181 625 q 211 614 200 625 q 222 583 222 603 l 222 42 q 211 11 222 22 q 181 0 200 0 l 139 0 m 185 729 q 153 719 169 718 q 126 735 138 721 l 26 857 q 15 888 14 872 q 32 917 17 904 l 60 938 q 90 949 74 950 q 118 932 106 947 l 218 810 q 228 778 229 794 q 213 751 228 763 l 185 729 z "},"í":{"ha":319,"x_min":97,"x_max":335,"o":"m 139 0 q 108 11 119 0 q 97 42 97 22 l 97 583 q 108 614 97 603 q 139 625 119 625 l 181 625 q 211 614 200 625 q 222 583 222 603 l 222 42 q 211 11 222 22 q 181 0 200 0 l 139 0 m 222 735 q 195 719 211 721 q 164 729 179 718 l 136 751 q 120 778 121 763 q 131 810 119 794 l 231 932 q 259 949 243 947 q 289 938 275 950 l 317 917 q 333 888 332 904 q 322 857 335 872 l 222 735 z "},"ï":{"ha":319,"x_min":-29,"x_max":353,"o":"m 139 0 q 108 11 119 0 q 97 42 97 22 l 97 583 q 108 614 97 603 q 139 625 119 625 l 181 625 q 211 614 200 625 q 222 583 222 603 l 222 42 q 211 11 222 22 q 181 0 200 0 l 139 0 m 13 722 q -18 733 -7 722 q -29 764 -29 744 l -29 833 q -18 864 -29 853 q 13 875 -7 875 l 61 875 q 92 864 81 875 q 103 833 103 853 l 103 764 q 92 733 103 744 q 61 722 81 722 l 13 722 m 263 722 q 232 733 243 722 q 221 764 221 744 l 221 833 q 232 864 221 853 q 263 875 243 875 l 311 875 q 342 864 331 875 q 353 833 353 853 l 353 764 q 342 733 353 744 q 311 722 331 722 l 263 722 z "},"î":{"ha":319,"x_min":0,"x_max":324,"o":"m 139 0 q 108 11 119 0 q 97 42 97 22 l 97 583 q 108 614 97 603 q 139 625 119 625 l 181 625 q 211 614 200 625 q 222 583 222 603 l 222 42 q 211 11 222 22 q 181 0 200 0 l 139 0 m 289 746 q 260 737 275 735 q 233 751 244 739 l 185 807 q 165 817 178 815 q 142 807 151 818 l 90 751 q 35 744 64 719 l 15 760 q 1 787 1 771 q 11 818 0 803 l 94 919 q 119 938 106 935 q 150 940 132 940 l 174 940 q 205 938 192 940 q 229 919 218 935 l 313 818 q 323 787 324 803 q 308 760 322 771 l 289 746 z "},"Þ":{"ha":722,"x_min":97,"x_max":701,"o":"m 421 333 q 475 343 449 333 q 522 372 501 353 q 556 420 543 392 q 569 486 569 449 q 556 552 569 524 q 522 600 543 581 q 475 629 501 619 q 421 639 449 639 l 243 639 q 229 625 229 639 l 229 347 q 243 333 229 333 l 421 333 m 243 208 q 229 194 229 208 l 229 42 q 218 11 229 22 q 188 0 207 0 l 139 0 q 108 11 119 0 q 97 42 97 22 l 97 903 q 108 933 97 922 q 139 944 119 944 l 188 944 q 218 933 207 944 q 229 903 229 922 l 229 778 q 243 764 229 764 l 431 764 q 536 742 486 764 q 622 681 586 719 q 680 592 658 643 q 701 486 701 542 q 680 379 701 429 q 622 291 658 329 q 536 231 586 253 q 431 208 486 208 l 243 208 z "},"g":{"ha":615,"x_min":42,"x_max":582,"o":"m 326 285 q 372 294 350 285 q 409 319 393 303 q 435 356 425 335 q 444 403 444 378 q 435 449 444 428 q 409 487 425 471 q 372 512 393 503 q 326 521 350 521 q 281 512 303 521 q 244 487 260 503 q 218 449 228 471 q 208 403 208 428 q 218 356 208 378 q 244 319 228 335 q 281 294 260 303 q 326 285 303 285 m 389 -237 q 400 -181 365 -207 q 431 -149 418 -168 q 443 -99 443 -131 q 409 -27 443 -54 q 322 0 375 0 l 83 0 q 53 11 64 0 q 42 42 42 22 l 42 76 q 65 139 42 107 l 131 229 q 135 251 138 240 q 128 269 133 263 q 95 332 107 297 q 83 403 83 367 q 103 494 83 451 q 157 569 124 538 q 234 620 190 601 q 326 639 278 639 q 355 638 340 639 q 389 629 369 636 q 417 628 408 624 q 432 642 425 632 l 476 701 q 503 719 488 717 q 535 710 519 721 l 563 690 q 580 663 578 679 q 571 632 582 647 l 526 572 q 524 549 519 561 q 535 525 528 536 q 569 403 569 468 q 549 311 569 354 q 496 237 529 268 q 419 188 463 206 q 326 169 375 169 q 290 172 307 169 q 261 178 274 175 q 240 178 250 181 q 224 165 231 176 l 201 135 q 214 115 189 115 l 321 115 q 416 100 371 115 q 495 57 461 85 q 549 -10 529 29 q 568 -99 568 -50 q 538 -212 568 -169 q 474 -279 508 -256 q 443 -285 458 -289 q 417 -269 428 -282 l 389 -237 z "}}}
